<svg xmlns="http://www.w3.org/2000/svg" viewBox="0 0 1140 540" font-family="Inter, system-ui, sans-serif" role="img" aria-label="Platform fit by use case" data-visual-system="evidence-plate-v1" preserveAspectRatio="xMidYMid meet" shape-rendering="geometricPrecision" text-rendering="geometricPrecision">
  <title id="artifact-title">Plattformkonformität nach Anwendungsfall</title>
  <defs>
    <filter id="dsm" x="-10%" y="-10%" width="120%" height="120%">
      <feDropShadow dx="0" dy="2" stdDeviation="2" flood-color="#334155" flood-opacity="0.08" />
    </filter>
  </defs>
  <style data-visual-system="evidence-plate-v1">
    * { animation: none !important; }
    .anim-box, .bar, .bar-text, .seq-item, .t-box, .flow { opacity: 1 !important; transform: none !important; }
    path, line, polyline { stroke-linecap: round; stroke-linejoin: round; }
  </style>

  <rect width="1140" height="540" fill="#f8fafc" />

  <!-- Title -->
  <text y="32" text-anchor="middle" font-size="20" font-weight="700" fill="#0f172a" x="570">Plattformkonformität nach Anwendungsfall</text>
  <text y="54" text-anchor="middle" font-size="12" fill="#334155" x="570">Grün = unterstützt. Gelb = unter Auflagen unterstützt. Rot = nicht geeignet.</text>

  <!-- Column headers -->
  <g font-size="11" font-weight="700" fill="#334155" text-anchor="middle">
    <text y="84" x="357">Cloud Run</text>
    <text y="98" x="357">Dienst</text>
    <text y="84" x="492">Cloud Run</text>
    <text y="98" x="492">Aufgabe</text>
    <text y="84" x="627">Fargate</text>
    <text y="98" x="627">Aufgabe</text>
    <text y="84" x="762">verwaltet</text>
    <text y="98" x="762">Agents</text>
    <text y="84" x="897">Tiefe Agents</text>
    <text y="98" x="897">Einbetten</text>
    <text y="84" x="1032">Kubernetes</text>
    <text y="98" x="1032">Aufgabe</text>
  </g>
  <line x1="290" y1="106" x2="1098" y2="106" stroke="#2563eb" stroke-width="1" />

  <!-- ===================== Row 1: Sub-60-min synchronous (y=112) ===================== -->
  <text y="135" font-size="12" font-weight="600" fill="#0f172a" x="30">synchron innerhalb von 60 Minuten</text>
  <!-- Cloud Run service: yes (60-min cap) -->
  <g filter="url(#dsm)"><rect x="292" y="112" width="131" height="36" rx="4" fill="#f0fdf4" stroke="#166534" stroke-width="1.1" /></g>
  <text y="129" text-anchor="middle" font-size="16" font-weight="700" fill="#166534" x="357">✓</text>
  <text y="142" text-anchor="middle" font-size="9" fill="#166534" x="357">60-Minuten-Limit</text>
  <!-- Cloud Run job: partial -->
  <g filter="url(#dsm)"><rect x="427" y="112" width="131" height="36" rx="4" fill="#fff7ed" stroke="#ea580c" stroke-width="1.1" /></g>
  <text y="129" text-anchor="middle" font-size="16" font-weight="700" fill="#991b1b" x="492">~</text>
  <text y="142" text-anchor="middle" font-size="9" fill="#991b1b" x="492">nur asynchron</text>
  <!-- Fargate: partial -->
  <g filter="url(#dsm)"><rect x="562" y="112" width="131" height="36" rx="4" fill="#fff7ed" stroke="#ea580c" stroke-width="1.1" /></g>
  <text y="129" text-anchor="middle" font-size="16" font-weight="700" fill="#991b1b" x="627">~</text>
  <text y="142" text-anchor="middle" font-size="9" fill="#991b1b" x="627">nur asynchron</text>
  <!-- Managed Agents: yes -->
  <g filter="url(#dsm)"><rect x="697" y="112" width="131" height="36" rx="4" fill="#f0fdf4" stroke="#166534" stroke-width="1.1" /></g>
  <text y="136" text-anchor="middle" font-size="18" font-weight="700" fill="#166534" x="762">✓</text>
  <!-- Deep Agents Deploy: yes -->
  <g filter="url(#dsm)"><rect x="832" y="112" width="131" height="36" rx="4" fill="#f0fdf4" stroke="#166534" stroke-width="1.1" /></g>
  <text y="136" text-anchor="middle" font-size="18" font-weight="700" fill="#166534" x="897">✓</text>
  <!-- K8s Job: yes -->
  <g filter="url(#dsm)"><rect x="967" y="112" width="131" height="36" rx="4" fill="#f0fdf4" stroke="#166534" stroke-width="1.1" /></g>
  <text y="136" text-anchor="middle" font-size="18" font-weight="700" fill="#166534" x="1032">✓</text>

  <!-- ===================== Row 2: Multi-hour batch (y=152) ===================== -->
  <text y="175" font-size="12" font-weight="600" fill="#0f172a" x="30">Mehrstündige Batch-Verarbeitung (&gt;60 Min.)</text>
  <g filter="url(#dsm)"><rect x="292" y="152" width="131" height="36" rx="4" fill="#fef2f2" stroke="#dc2626" stroke-width="1.1" /></g>
  <text y="169" text-anchor="middle" font-size="16" font-weight="700" fill="#991b1b" x="357">✗</text>
  <text y="182" text-anchor="middle" font-size="9" fill="#991b1b" x="357">60-Minuten-Obergrenze</text>
  <g filter="url(#dsm)"><rect x="427" y="152" width="131" height="36" rx="4" fill="#f0fdf4" stroke="#166534" stroke-width="1.1" /></g>
  <text y="169" text-anchor="middle" font-size="16" font-weight="700" fill="#166534" x="492">✓</text>
  <text y="182" text-anchor="middle" font-size="9" fill="#166534" x="492">bis zu 7 Tagen</text>
  <g filter="url(#dsm)"><rect x="562" y="152" width="131" height="36" rx="4" fill="#f0fdf4" stroke="#166534" stroke-width="1.1" /></g>
  <text y="176" text-anchor="middle" font-size="18" font-weight="700" fill="#166534" x="627">✓</text>
  <g filter="url(#dsm)"><rect x="697" y="152" width="131" height="36" rx="4" fill="#f0fdf4" stroke="#166534" stroke-width="1.1" /></g>
  <text y="169" text-anchor="middle" font-size="16" font-weight="700" fill="#166534" x="762">✓</text>
  <text y="182" text-anchor="middle" font-size="9" fill="#166534" x="762">0,08 $/Stunde</text>
  <g filter="url(#dsm)"><rect x="832" y="152" width="131" height="36" rx="4" fill="#f0fdf4" stroke="#166534" stroke-width="1.1" /></g>
  <text y="176" text-anchor="middle" font-size="18" font-weight="700" fill="#166534" x="897">✓</text>
  <g filter="url(#dsm)"><rect x="967" y="152" width="131" height="36" rx="4" fill="#f0fdf4" stroke="#166534" stroke-width="1.1" /></g>
  <text y="176" text-anchor="middle" font-size="18" font-weight="700" fill="#166534" x="1032">✓</text>

  <!-- ===================== Row 3: Fork sandbox provider (y=192) ===================== -->
  <text y="215" font-size="12" font-weight="600" fill="#0f172a" x="30">Fork Agent in einen anderen Sandbox</text>
  <g filter="url(#dsm)"><rect x="292" y="192" width="131" height="36" rx="4" fill="#fef2f2" stroke="#dc2626" stroke-width="1.1" /></g>
  <text y="216" text-anchor="middle" font-size="18" font-weight="700" fill="#991b1b" x="357">✗</text>
  <g filter="url(#dsm)"><rect x="427" y="192" width="131" height="36" rx="4" fill="#fef2f2" stroke="#dc2626" stroke-width="1.1" /></g>
  <text y="216" text-anchor="middle" font-size="18" font-weight="700" fill="#991b1b" x="492">✗</text>
  <g filter="url(#dsm)"><rect x="562" y="192" width="131" height="36" rx="4" fill="#fef2f2" stroke="#dc2626" stroke-width="1.1" /></g>
  <text y="216" text-anchor="middle" font-size="18" font-weight="700" fill="#991b1b" x="627">✗</text>
  <g filter="url(#dsm)"><rect x="697" y="192" width="131" height="36" rx="4" fill="#fff7ed" stroke="#ea580c" stroke-width="1.1" /></g>
  <text y="209" text-anchor="middle" font-size="16" font-weight="700" fill="#991b1b" x="762">~</text>
  <text y="222" text-anchor="middle" font-size="9" fill="#991b1b" x="762">einziger Backend</text>
  <g filter="url(#dsm)"><rect x="832" y="192" width="131" height="36" rx="4" fill="#f0fdf4" stroke="#166534" stroke-width="1.1" /></g>
  <text y="209" text-anchor="middle" font-size="16" font-weight="700" fill="#166534" x="897">✓</text>
  <text y="222" text-anchor="middle" font-size="9" fill="#166534" x="897">Konfigurationswechsler</text>
  <g filter="url(#dsm)"><rect x="967" y="192" width="131" height="36" rx="4" fill="#fef2f2" stroke="#dc2626" stroke-width="1.1" /></g>
  <text y="216" text-anchor="middle" font-size="18" font-weight="700" fill="#991b1b" x="1032">✗</text>

  <!-- ===================== Row 4: On GCP (y=232) ===================== -->
  <text y="255" font-size="12" font-weight="600" fill="#0f172a" x="30">Bereits auf GCP – Betriebsaufwände minimieren</text>
  <g filter="url(#dsm)"><rect x="292" y="232" width="131" height="36" rx="4" fill="#f0fdf4" stroke="#166534" stroke-width="1.1" /></g>
  <text y="256" text-anchor="middle" font-size="18" font-weight="700" fill="#166534" x="357">✓</text>
  <g filter="url(#dsm)"><rect x="427" y="232" width="131" height="36" rx="4" fill="#f0fdf4" stroke="#166534" stroke-width="1.1" /></g>
  <text y="256" text-anchor="middle" font-size="18" font-weight="700" fill="#166534" x="492">✓</text>
  <g filter="url(#dsm)"><rect x="562" y="232" width="131" height="36" rx="4" fill="#fef2f2" stroke="#dc2626" stroke-width="1.1" /></g>
  <text y="256" text-anchor="middle" font-size="18" font-weight="700" fill="#991b1b" x="627">✗</text>
  <g filter="url(#dsm)"><rect x="697" y="232" width="131" height="36" rx="4" fill="#fef2f2" stroke="#dc2626" stroke-width="1.1" /></g>
  <text y="256" text-anchor="middle" font-size="18" font-weight="700" fill="#991b1b" x="762">✗</text>
  <g filter="url(#dsm)"><rect x="832" y="232" width="131" height="36" rx="4" fill="#f0fdf4" stroke="#166534" stroke-width="1.1" /></g>
  <text y="256" text-anchor="middle" font-size="18" font-weight="700" fill="#166534" x="897">✓</text>
  <g filter="url(#dsm)"><rect x="967" y="232" width="131" height="36" rx="4" fill="#fff7ed" stroke="#ea580c" stroke-width="1.1" /></g>
  <text y="256" text-anchor="middle" font-size="18" font-weight="700" fill="#991b1b" x="1032">~</text>

  <!-- ===================== Row 5: On AWS + VPC (y=272) ===================== -->
  <text y="295" font-size="12" font-weight="600" fill="#0f172a" x="30">Befindet sich bereits auf AWS, möchte eine VPC-lokale Lösung.</text>
  <g filter="url(#dsm)"><rect x="292" y="272" width="131" height="36" rx="4" fill="#fef2f2" stroke="#dc2626" stroke-width="1.1" /></g>
  <text y="296" text-anchor="middle" font-size="18" font-weight="700" fill="#991b1b" x="357">✗</text>
  <g filter="url(#dsm)"><rect x="427" y="272" width="131" height="36" rx="4" fill="#fef2f2" stroke="#dc2626" stroke-width="1.1" /></g>
  <text y="296" text-anchor="middle" font-size="18" font-weight="700" fill="#991b1b" x="492">✗</text>
  <g filter="url(#dsm)"><rect x="562" y="272" width="131" height="36" rx="4" fill="#f0fdf4" stroke="#166534" stroke-width="1.1" /></g>
  <text y="296" text-anchor="middle" font-size="18" font-weight="700" fill="#166534" x="627">✓</text>
  <g filter="url(#dsm)"><rect x="697" y="272" width="131" height="36" rx="4" fill="#fef2f2" stroke="#dc2626" stroke-width="1.1" /></g>
  <text y="289" text-anchor="middle" font-size="16" font-weight="700" fill="#991b1b" x="762">✗</text>
  <text y="302" text-anchor="middle" font-size="9" fill="#991b1b" x="762">kein Bedrock</text>
  <g filter="url(#dsm)"><rect x="832" y="272" width="131" height="36" rx="4" fill="#f0fdf4" stroke="#166534" stroke-width="1.1" /></g>
  <text y="289" text-anchor="middle" font-size="16" font-weight="700" fill="#166534" x="897">✓</text>
  <text y="302" text-anchor="middle" font-size="9" fill="#166534" x="897">hybrider</text>
  <g filter="url(#dsm)"><rect x="967" y="272" width="131" height="36" rx="4" fill="#f0fdf4" stroke="#166534" stroke-width="1.1" /></g>
  <text y="296" text-anchor="middle" font-size="18" font-weight="700" fill="#166534" x="1032">✓</text>

  <!-- ===================== Row 6: Zero-infra hosted (y=312) ===================== -->
  <text y="335" font-size="12" font-weight="600" fill="#0f172a" x="30">Zero-infra gehosteter Harness</text>
  <g filter="url(#dsm)"><rect x="292" y="312" width="131" height="36" rx="4" fill="#fef2f2" stroke="#dc2626" stroke-width="1.1" /></g>
  <text y="336" text-anchor="middle" font-size="18" font-weight="700" fill="#991b1b" x="357">✗</text>
  <g filter="url(#dsm)"><rect x="427" y="312" width="131" height="36" rx="4" fill="#fef2f2" stroke="#dc2626" stroke-width="1.1" /></g>
  <text y="336" text-anchor="middle" font-size="18" font-weight="700" fill="#991b1b" x="492">✗</text>
  <g filter="url(#dsm)"><rect x="562" y="312" width="131" height="36" rx="4" fill="#fef2f2" stroke="#dc2626" stroke-width="1.1" /></g>
  <text y="336" text-anchor="middle" font-size="18" font-weight="700" fill="#991b1b" x="627">✗</text>
  <g filter="url(#dsm)"><rect x="697" y="312" width="131" height="36" rx="4" fill="#f0fdf4" stroke="#166534" stroke-width="1.1" /></g>
  <text y="336" text-anchor="middle" font-size="18" font-weight="700" fill="#166534" x="762">✓</text>
  <g filter="url(#dsm)"><rect x="832" y="312" width="131" height="36" rx="4" fill="#f0fdf4" stroke="#166534" stroke-width="1.1" /></g>
  <text y="336" text-anchor="middle" font-size="18" font-weight="700" fill="#166534" x="897">✓</text>
  <g filter="url(#dsm)"><rect x="967" y="312" width="131" height="36" rx="4" fill="#fef2f2" stroke="#dc2626" stroke-width="1.1" /></g>
  <text y="336" text-anchor="middle" font-size="18" font-weight="700" fill="#991b1b" x="1032">✗</text>

  <!-- ===================== Row 7: Need GPU (y=352) ===================== -->
  <text y="375" font-size="12" font-weight="600" fill="#0f172a" x="30">Es ist ein GPU erforderlich.</text>
  <g filter="url(#dsm)"><rect x="292" y="352" width="131" height="36" rx="4" fill="#fff7ed" stroke="#ea580c" stroke-width="1.1" /></g>
  <text y="369" text-anchor="middle" font-size="16" font-weight="700" fill="#991b1b" x="357">~</text>
  <text y="382" text-anchor="middle" font-size="9" fill="#991b1b" x="357">1-Stunden-Obergrenze</text>
  <g filter="url(#dsm)"><rect x="427" y="352" width="131" height="36" rx="4" fill="#fff7ed" stroke="#ea580c" stroke-width="1.1" /></g>
  <text y="369" text-anchor="middle" font-size="16" font-weight="700" fill="#991b1b" x="492">~</text>
  <text y="382" text-anchor="middle" font-size="9" fill="#991b1b" x="492">1-Stunden-Obergrenze</text>
  <g filter="url(#dsm)"><rect x="562" y="352" width="131" height="36" rx="4" fill="#f0fdf4" stroke="#166534" stroke-width="1.1" /></g>
  <text y="376" text-anchor="middle" font-size="18" font-weight="700" fill="#166534" x="627">✓</text>
  <g filter="url(#dsm)"><rect x="697" y="352" width="131" height="36" rx="4" fill="#fef2f2" stroke="#dc2626" stroke-width="1.1" /></g>
  <text y="376" text-anchor="middle" font-size="18" font-weight="700" fill="#991b1b" x="762">✗</text>
  <g filter="url(#dsm)"><rect x="832" y="352" width="131" height="36" rx="4" fill="#f0fdf4" stroke="#166534" stroke-width="1.1" /></g>
  <text y="369" text-anchor="middle" font-size="16" font-weight="700" fill="#166534" x="897">✓</text>
  <text y="382" text-anchor="middle" font-size="9" fill="#166534" x="897">über Sandbox</text>
  <g filter="url(#dsm)"><rect x="967" y="352" width="131" height="36" rx="4" fill="#f0fdf4" stroke="#166534" stroke-width="1.1" /></g>
  <text y="376" text-anchor="middle" font-size="18" font-weight="700" fill="#166534" x="1032">✓</text>

  <!-- ===================== Row 8: Lowest lock-in (y=392) ===================== -->
  <text y="415" font-size="12" font-weight="600" fill="#0f172a" x="30">Minimale Vendor-Lock-in-Effekte</text>
  <g filter="url(#dsm)"><rect x="292" y="392" width="131" height="36" rx="4" fill="#fff7ed" stroke="#ea580c" stroke-width="1.1" /></g>
  <text y="416" text-anchor="middle" font-size="18" font-weight="700" fill="#991b1b" x="357">~</text>
  <g filter="url(#dsm)"><rect x="427" y="392" width="131" height="36" rx="4" fill="#fff7ed" stroke="#ea580c" stroke-width="1.1" /></g>
  <text y="416" text-anchor="middle" font-size="18" font-weight="700" fill="#991b1b" x="492">~</text>
  <g filter="url(#dsm)"><rect x="562" y="392" width="131" height="36" rx="4" fill="#f0fdf4" stroke="#166534" stroke-width="1.1" /></g>
  <text y="416" text-anchor="middle" font-size="18" font-weight="700" fill="#166534" x="627">✓</text>
  <g filter="url(#dsm)"><rect x="697" y="392" width="131" height="36" rx="4" fill="#fef2f2" stroke="#dc2626" stroke-width="1.1" /></g>
  <text y="416" text-anchor="middle" font-size="18" font-weight="700" fill="#991b1b" x="762">✗</text>
  <g filter="url(#dsm)"><rect x="832" y="392" width="131" height="36" rx="4" fill="#f0fdf4" stroke="#166534" stroke-width="1.1" /></g>
  <text y="409" text-anchor="middle" font-size="16" font-weight="700" fill="#166534" x="897">✓</text>
  <text y="422" text-anchor="middle" font-size="9" fill="#166534" x="897">MIT</text>
  <g filter="url(#dsm)"><rect x="967" y="392" width="131" height="36" rx="4" fill="#f0fdf4" stroke="#166534" stroke-width="1.1" /></g>
  <text y="416" text-anchor="middle" font-size="18" font-weight="700" fill="#166534" x="1032">✓</text>

  <!-- Legend -->
  <g font-size="11" fill="#334155">
    <rect x="290" y="468" width="22" height="22" rx="4" fill="#f0fdf4" stroke="#166534" stroke-width="1.1" />
    <text y="484" text-anchor="middle" font-size="14" font-weight="700" fill="#166534" x="301">✓</text>
    <text y="484" x="322">unterstützt</text>

    <rect x="440" y="468" width="22" height="22" rx="4" fill="#fff7ed" stroke="#ea580c" stroke-width="1.1" />
    <text y="484" text-anchor="middle" font-size="14" font-weight="700" fill="#991b1b" x="451">~</text>
    <text y="484" x="472">mit Einschränkung unterstützt</text>

    <rect x="660" y="468" width="22" height="22" rx="4" fill="#fef2f2" stroke="#dc2626" stroke-width="1.1" />
    <text y="484" text-anchor="middle" font-size="14" font-weight="700" fill="#991b1b" x="671">✗</text>
    <text y="484" x="692">nicht geeignet</text>
  </g>

  <!-- Footer note -->
  <text y="520" text-anchor="middle" font-size="11" fill="#334155" font-style="italic" x="570">Einschränkungen und Hinweise stammen aus den Beschreibungen der jeweiligen Formen in Abschnitt Elf Deployment Formen.</text>
</svg>
