<svg xmlns="http://www.w3.org/2000/svg" viewBox="0 0 1140 540" font-family="Roboto, Helvetica, Arial, sans-serif">
  <defs>
    <filter id="dsm" x="-10%" y="-10%" width="120%" height="120%">
      <feDropShadow dx="0" dy="1" stdDeviation="1.2" flood-color="#000" flood-opacity="0.10" />
    </filter>
  </defs>

  <rect width="1140" height="540" fill="#f8f9fa" />

  <!-- Title -->
  <text x="570" y="32" text-anchor="middle" font-size="20" font-weight="700" fill="#263238">Adéquation de la plateforme en fonction du cas d’usage</text>
  <text x="570" y="54" text-anchor="middle" font-size="12" fill="#546e7a">Vert = pris en charge. Jaune = pris en charge avec réserves. Rouge = non adapté.</text>

  <!-- Column headers -->
  <g font-size="11" font-weight="700" fill="#37474f" text-anchor="middle">
    <text x="357" y="84">Cloud Run</text>
    <text x="357" y="98">service</text>
    <text x="492" y="84">Cloud Run</text>
    <text x="492" y="98">tâche</text>
    <text x="627" y="84">Fargate</text>
    <text x="627" y="98">tâche</text>
    <text x="762" y="84">Géré</text>
    <text x="762" y="98">Agents</text>
    <text x="897" y="84">Agents profonds</text>
    <text x="897" y="98">Déployer</text>
    <text x="1032" y="84">Kubernetes</text>
    <text x="1032" y="98">Tâche</text>
  </g>
  <line x1="290" y1="106" x2="1098" y2="106" stroke="#cfd8dc" stroke-width="1" />

  <!-- ===================== Row 1: Sub-60-min synchronous (y=112) ===================== -->
  <text x="30" y="135" font-size="12" font-weight="600" fill="#263238">Synchrone sous 60 minutes</text>
  <!-- Cloud Run service: yes (60-min cap) -->
  <g filter="url(#dsm)"><rect x="292" y="112" width="131" height="36" rx="4" fill="#c8e6c9" stroke="#2e7d32" stroke-width="1.1" /></g>
  <text x="357" y="129" text-anchor="middle" font-size="16" font-weight="700" fill="#1b5e20">✓</text>
  <text x="357" y="142" text-anchor="middle" font-size="9" fill="#1b5e20">Limite de 60 minutes</text>
  <!-- Cloud Run job: partial -->
  <g filter="url(#dsm)"><rect x="427" y="112" width="131" height="36" rx="4" fill="#fff3e0" stroke="#ef6c00" stroke-width="1.1" /></g>
  <text x="492" y="129" text-anchor="middle" font-size="16" font-weight="700" fill="#bf360c">~</text>
  <text x="492" y="142" text-anchor="middle" font-size="9" fill="#bf360c">Uniquement asynchrone</text>
  <!-- Fargate: partial -->
  <g filter="url(#dsm)"><rect x="562" y="112" width="131" height="36" rx="4" fill="#fff3e0" stroke="#ef6c00" stroke-width="1.1" /></g>
  <text x="627" y="129" text-anchor="middle" font-size="16" font-weight="700" fill="#bf360c">~</text>
  <text x="627" y="142" text-anchor="middle" font-size="9" fill="#bf360c">Uniquement asynchrone</text>
  <!-- Managed Agents: yes -->
  <g filter="url(#dsm)"><rect x="697" y="112" width="131" height="36" rx="4" fill="#c8e6c9" stroke="#2e7d32" stroke-width="1.1" /></g>
  <text x="762" y="136" text-anchor="middle" font-size="18" font-weight="700" fill="#1b5e20">✓</text>
  <!-- Deep Agents Deploy: yes -->
  <g filter="url(#dsm)"><rect x="832" y="112" width="131" height="36" rx="4" fill="#c8e6c9" stroke="#2e7d32" stroke-width="1.1" /></g>
  <text x="897" y="136" text-anchor="middle" font-size="18" font-weight="700" fill="#1b5e20">✓</text>
  <!-- K8s Job: yes -->
  <g filter="url(#dsm)"><rect x="967" y="112" width="131" height="36" rx="4" fill="#c8e6c9" stroke="#2e7d32" stroke-width="1.1" /></g>
  <text x="1032" y="136" text-anchor="middle" font-size="18" font-weight="700" fill="#1b5e20">✓</text>

  <!-- ===================== Row 2: Multi-hour batch (y=152) ===================== -->
  <text x="30" y="175" font-size="12" font-weight="600" fill="#263238">Batch sur plusieurs heures (&gt;60 min)</text>
  <g filter="url(#dsm)"><rect x="292" y="152" width="131" height="36" rx="4" fill="#ffcdd2" stroke="#c62828" stroke-width="1.1" /></g>
  <text x="357" y="169" text-anchor="middle" font-size="16" font-weight="700" fill="#b71c1c">✗</text>
  <text x="357" y="182" text-anchor="middle" font-size="9" fill="#b71c1c">Limite de 60 minutes</text>
  <g filter="url(#dsm)"><rect x="427" y="152" width="131" height="36" rx="4" fill="#c8e6c9" stroke="#2e7d32" stroke-width="1.1" /></g>
  <text x="492" y="169" text-anchor="middle" font-size="16" font-weight="700" fill="#1b5e20">✓</text>
  <text x="492" y="182" text-anchor="middle" font-size="9" fill="#1b5e20">jusqu'à 7 jours</text>
  <g filter="url(#dsm)"><rect x="562" y="152" width="131" height="36" rx="4" fill="#c8e6c9" stroke="#2e7d32" stroke-width="1.1" /></g>
  <text x="627" y="176" text-anchor="middle" font-size="18" font-weight="700" fill="#1b5e20">✓</text>
  <g filter="url(#dsm)"><rect x="697" y="152" width="131" height="36" rx="4" fill="#c8e6c9" stroke="#2e7d32" stroke-width="1.1" /></g>
  <text x="762" y="169" text-anchor="middle" font-size="16" font-weight="700" fill="#1b5e20">✓</text>
  <text x="762" y="182" text-anchor="middle" font-size="9" fill="#1b5e20">0,08 $/h</text>
  <g filter="url(#dsm)"><rect x="832" y="152" width="131" height="36" rx="4" fill="#c8e6c9" stroke="#2e7d32" stroke-width="1.1" /></g>
  <text x="897" y="176" text-anchor="middle" font-size="18" font-weight="700" fill="#1b5e20">✓</text>
  <g filter="url(#dsm)"><rect x="967" y="152" width="131" height="36" rx="4" fill="#c8e6c9" stroke="#2e7d32" stroke-width="1.1" /></g>
  <text x="1032" y="176" text-anchor="middle" font-size="18" font-weight="700" fill="#1b5e20">✓</text>

  <!-- ===================== Row 3: Fork sandbox provider (y=192) ===================== -->
  <text x="30" y="215" font-size="12" font-weight="600" fill="#263238">Déployer l’agent dans un environnement sandbox différent</text>
  <g filter="url(#dsm)"><rect x="292" y="192" width="131" height="36" rx="4" fill="#ffcdd2" stroke="#c62828" stroke-width="1.1" /></g>
  <text x="357" y="216" text-anchor="middle" font-size="18" font-weight="700" fill="#b71c1c">✗</text>
  <g filter="url(#dsm)"><rect x="427" y="192" width="131" height="36" rx="4" fill="#ffcdd2" stroke="#c62828" stroke-width="1.1" /></g>
  <text x="492" y="216" text-anchor="middle" font-size="18" font-weight="700" fill="#b71c1c">✗</text>
  <g filter="url(#dsm)"><rect x="562" y="192" width="131" height="36" rx="4" fill="#ffcdd2" stroke="#c62828" stroke-width="1.1" /></g>
  <text x="627" y="216" text-anchor="middle" font-size="18" font-weight="700" fill="#b71c1c">✗</text>
  <g filter="url(#dsm)"><rect x="697" y="192" width="131" height="36" rx="4" fill="#fff3e0" stroke="#ef6c00" stroke-width="1.1" /></g>
  <text x="762" y="209" text-anchor="middle" font-size="16" font-weight="700" fill="#bf360c">~</text>
  <text x="762" y="222" text-anchor="middle" font-size="9" fill="#bf360c">un seul backend</text>
  <g filter="url(#dsm)"><rect x="832" y="192" width="131" height="36" rx="4" fill="#c8e6c9" stroke="#2e7d32" stroke-width="1.1" /></g>
  <text x="897" y="209" text-anchor="middle" font-size="16" font-weight="700" fill="#1b5e20">✓</text>
  <text x="897" y="222" text-anchor="middle" font-size="9" fill="#1b5e20">commutateur de configuration</text>
  <g filter="url(#dsm)"><rect x="967" y="192" width="131" height="36" rx="4" fill="#ffcdd2" stroke="#c62828" stroke-width="1.1" /></g>
  <text x="1032" y="216" text-anchor="middle" font-size="18" font-weight="700" fill="#b71c1c">✗</text>

  <!-- ===================== Row 4: On GCP (y=232) ===================== -->
  <text x="30" y="255" font-size="12" font-weight="600" fill="#263238">Déjà sur GCP, minimiser les opérations</text>
  <g filter="url(#dsm)"><rect x="292" y="232" width="131" height="36" rx="4" fill="#c8e6c9" stroke="#2e7d32" stroke-width="1.1" /></g>
  <text x="357" y="256" text-anchor="middle" font-size="18" font-weight="700" fill="#1b5e20">✓</text>
  <g filter="url(#dsm)"><rect x="427" y="232" width="131" height="36" rx="4" fill="#c8e6c9" stroke="#2e7d32" stroke-width="1.1" /></g>
  <text x="492" y="256" text-anchor="middle" font-size="18" font-weight="700" fill="#1b5e20">✓</text>
  <g filter="url(#dsm)"><rect x="562" y="232" width="131" height="36" rx="4" fill="#ffcdd2" stroke="#c62828" stroke-width="1.1" /></g>
  <text x="627" y="256" text-anchor="middle" font-size="18" font-weight="700" fill="#b71c1c">✗</text>
  <g filter="url(#dsm)"><rect x="697" y="232" width="131" height="36" rx="4" fill="#ffcdd2" stroke="#c62828" stroke-width="1.1" /></g>
  <text x="762" y="256" text-anchor="middle" font-size="18" font-weight="700" fill="#b71c1c">✗</text>
  <g filter="url(#dsm)"><rect x="832" y="232" width="131" height="36" rx="4" fill="#c8e6c9" stroke="#2e7d32" stroke-width="1.1" /></g>
  <text x="897" y="256" text-anchor="middle" font-size="18" font-weight="700" fill="#1b5e20">✓</text>
  <g filter="url(#dsm)"><rect x="967" y="232" width="131" height="36" rx="4" fill="#fff3e0" stroke="#ef6c00" stroke-width="1.1" /></g>
  <text x="1032" y="256" text-anchor="middle" font-size="18" font-weight="700" fill="#bf360c">~</text>

  <!-- ===================== Row 5: On AWS + VPC (y=272) ===================== -->
  <text x="30" y="295" font-size="12" font-weight="600" fill="#263238">Déjà sur AWS, souhaite une solution locale dans la VPC</text>
  <g filter="url(#dsm)"><rect x="292" y="272" width="131" height="36" rx="4" fill="#ffcdd2" stroke="#c62828" stroke-width="1.1" /></g>
  <text x="357" y="296" text-anchor="middle" font-size="18" font-weight="700" fill="#b71c1c">✗</text>
  <g filter="url(#dsm)"><rect x="427" y="272" width="131" height="36" rx="4" fill="#ffcdd2" stroke="#c62828" stroke-width="1.1" /></g>
  <text x="492" y="296" text-anchor="middle" font-size="18" font-weight="700" fill="#b71c1c">✗</text>
  <g filter="url(#dsm)"><rect x="562" y="272" width="131" height="36" rx="4" fill="#c8e6c9" stroke="#2e7d32" stroke-width="1.1" /></g>
  <text x="627" y="296" text-anchor="middle" font-size="18" font-weight="700" fill="#1b5e20">✓</text>
  <g filter="url(#dsm)"><rect x="697" y="272" width="131" height="36" rx="4" fill="#ffcdd2" stroke="#c62828" stroke-width="1.1" /></g>
  <text x="762" y="289" text-anchor="middle" font-size="16" font-weight="700" fill="#b71c1c">✗</text>
  <text x="762" y="302" text-anchor="middle" font-size="9" fill="#b71c1c">pas de Bedrock</text>
  <g filter="url(#dsm)"><rect x="832" y="272" width="131" height="36" rx="4" fill="#c8e6c9" stroke="#2e7d32" stroke-width="1.1" /></g>
  <text x="897" y="289" text-anchor="middle" font-size="16" font-weight="700" fill="#1b5e20">✓</text>
  <text x="897" y="302" text-anchor="middle" font-size="9" fill="#1b5e20">hybride</text>
  <g filter="url(#dsm)"><rect x="967" y="272" width="131" height="36" rx="4" fill="#c8e6c9" stroke="#2e7d32" stroke-width="1.1" /></g>
  <text x="1032" y="296" text-anchor="middle" font-size="18" font-weight="700" fill="#1b5e20">✓</text>

  <!-- ===================== Row 6: Zero-infra hosted (y=312) ===================== -->
  <text x="30" y="335" font-size="12" font-weight="600" fill="#263238">Plateforme d’hébergement sans infrastructure</text>
  <g filter="url(#dsm)"><rect x="292" y="312" width="131" height="36" rx="4" fill="#ffcdd2" stroke="#c62828" stroke-width="1.1" /></g>
  <text x="357" y="336" text-anchor="middle" font-size="18" font-weight="700" fill="#b71c1c">✗</text>
  <g filter="url(#dsm)"><rect x="427" y="312" width="131" height="36" rx="4" fill="#ffcdd2" stroke="#c62828" stroke-width="1.1" /></g>
  <text x="492" y="336" text-anchor="middle" font-size="18" font-weight="700" fill="#b71c1c">✗</text>
  <g filter="url(#dsm)"><rect x="562" y="312" width="131" height="36" rx="4" fill="#ffcdd2" stroke="#c62828" stroke-width="1.1" /></g>
  <text x="627" y="336" text-anchor="middle" font-size="18" font-weight="700" fill="#b71c1c">✗</text>
  <g filter="url(#dsm)"><rect x="697" y="312" width="131" height="36" rx="4" fill="#c8e6c9" stroke="#2e7d32" stroke-width="1.1" /></g>
  <text x="762" y="336" text-anchor="middle" font-size="18" font-weight="700" fill="#1b5e20">✓</text>
  <g filter="url(#dsm)"><rect x="832" y="312" width="131" height="36" rx="4" fill="#c8e6c9" stroke="#2e7d32" stroke-width="1.1" /></g>
  <text x="897" y="336" text-anchor="middle" font-size="18" font-weight="700" fill="#1b5e20">✓</text>
  <g filter="url(#dsm)"><rect x="967" y="312" width="131" height="36" rx="4" fill="#ffcdd2" stroke="#c62828" stroke-width="1.1" /></g>
  <text x="1032" y="336" text-anchor="middle" font-size="18" font-weight="700" fill="#b71c1c">✗</text>

  <!-- ===================== Row 7: Need GPU (y=352) ===================== -->
  <text x="30" y="375" font-size="12" font-weight="600" fill="#263238">Nécessite une GPU</text>
  <g filter="url(#dsm)"><rect x="292" y="352" width="131" height="36" rx="4" fill="#fff3e0" stroke="#ef6c00" stroke-width="1.1" /></g>
  <text x="357" y="369" text-anchor="middle" font-size="16" font-weight="700" fill="#bf360c">~</text>
  <text x="357" y="382" text-anchor="middle" font-size="9" fill="#bf360c">Limite de 1 heure</text>
  <g filter="url(#dsm)"><rect x="427" y="352" width="131" height="36" rx="4" fill="#fff3e0" stroke="#ef6c00" stroke-width="1.1" /></g>
  <text x="492" y="369" text-anchor="middle" font-size="16" font-weight="700" fill="#bf360c">~</text>
  <text x="492" y="382" text-anchor="middle" font-size="9" fill="#bf360c">Limite de 1 heure</text>
  <g filter="url(#dsm)"><rect x="562" y="352" width="131" height="36" rx="4" fill="#c8e6c9" stroke="#2e7d32" stroke-width="1.1" /></g>
  <text x="627" y="376" text-anchor="middle" font-size="18" font-weight="700" fill="#1b5e20">✓</text>
  <g filter="url(#dsm)"><rect x="697" y="352" width="131" height="36" rx="4" fill="#ffcdd2" stroke="#c62828" stroke-width="1.1" /></g>
  <text x="762" y="376" text-anchor="middle" font-size="18" font-weight="700" fill="#b71c1c">✗</text>
  <g filter="url(#dsm)"><rect x="832" y="352" width="131" height="36" rx="4" fill="#c8e6c9" stroke="#2e7d32" stroke-width="1.1" /></g>
  <text x="897" y="369" text-anchor="middle" font-size="16" font-weight="700" fill="#1b5e20">✓</text>
  <text x="897" y="382" text-anchor="middle" font-size="9" fill="#1b5e20">par le biais d’un environnement isolé</text>
  <g filter="url(#dsm)"><rect x="967" y="352" width="131" height="36" rx="4" fill="#c8e6c9" stroke="#2e7d32" stroke-width="1.1" /></g>
  <text x="1032" y="376" text-anchor="middle" font-size="18" font-weight="700" fill="#1b5e20">✓</text>

  <!-- ===================== Row 8: Lowest lock-in (y=392) ===================== -->
  <text x="30" y="415" font-size="12" font-weight="600" fill="#263238">Moins de verrouillage par le fournisseur</text>
  <g filter="url(#dsm)"><rect x="292" y="392" width="131" height="36" rx="4" fill="#fff3e0" stroke="#ef6c00" stroke-width="1.1" /></g>
  <text x="357" y="416" text-anchor="middle" font-size="18" font-weight="700" fill="#bf360c">~</text>
  <g filter="url(#dsm)"><rect x="427" y="392" width="131" height="36" rx="4" fill="#fff3e0" stroke="#ef6c00" stroke-width="1.1" /></g>
  <text x="492" y="416" text-anchor="middle" font-size="18" font-weight="700" fill="#bf360c">~</text>
  <g filter="url(#dsm)"><rect x="562" y="392" width="131" height="36" rx="4" fill="#c8e6c9" stroke="#2e7d32" stroke-width="1.1" /></g>
  <text x="627" y="416" text-anchor="middle" font-size="18" font-weight="700" fill="#1b5e20">✓</text>
  <g filter="url(#dsm)"><rect x="697" y="392" width="131" height="36" rx="4" fill="#ffcdd2" stroke="#c62828" stroke-width="1.1" /></g>
  <text x="762" y="416" text-anchor="middle" font-size="18" font-weight="700" fill="#b71c1c">✗</text>
  <g filter="url(#dsm)"><rect x="832" y="392" width="131" height="36" rx="4" fill="#c8e6c9" stroke="#2e7d32" stroke-width="1.1" /></g>
  <text x="897" y="409" text-anchor="middle" font-size="16" font-weight="700" fill="#1b5e20">✓</text>
  <text x="897" y="422" text-anchor="middle" font-size="9" fill="#1b5e20">MIT</text>
  <g filter="url(#dsm)"><rect x="967" y="392" width="131" height="36" rx="4" fill="#c8e6c9" stroke="#2e7d32" stroke-width="1.1" /></g>
  <text x="1032" y="416" text-anchor="middle" font-size="18" font-weight="700" fill="#1b5e20">✓</text>

  <!-- Legend -->
  <g font-size="11" fill="#37474f">
    <rect x="290" y="468" width="22" height="22" rx="4" fill="#c8e6c9" stroke="#2e7d32" stroke-width="1.1" />
    <text x="301" y="484" text-anchor="middle" font-size="14" font-weight="700" fill="#1b5e20">✓</text>
    <text x="322" y="484">pris en charge</text>

    <rect x="440" y="468" width="22" height="22" rx="4" fill="#fff3e0" stroke="#ef6c00" stroke-width="1.1" />
    <text x="451" y="484" text-anchor="middle" font-size="14" font-weight="700" fill="#bf360c">~</text>
    <text x="472" y="484">supporté avec réserves</text>

    <rect x="660" y="468" width="22" height="22" rx="4" fill="#ffcdd2" stroke="#c62828" stroke-width="1.1" />
    <text x="671" y="484" text-anchor="middle" font-size="14" font-weight="700" fill="#b71c1c">✗</text>
    <text x="692" y="484">pas de correspondance</text>
  </g>

  <!-- Footer note -->
  <text x="570" y="520" text-anchor="middle" font-size="11" fill="#546e7a" font-style="italic">Les mentions et réserves proviennent de la description de chaque forme dans la section 11 : Formes de déploiement.</text>
</svg>
