<svg xmlns="http://www.w3.org/2000/svg" viewBox="0 0 1140 640" font-family="Inter, system-ui, sans-serif" data-visual-system="evidence-plate-v1" role="img" preserveAspectRatio="xMidYMid meet" shape-rendering="geometricPrecision" text-rendering="geometricPrecision" aria-labelledby="artifact-title artifact-desc">
  <title id="artifact-title">Où se trouve chaque primitive dans chaque forme de déploiement</title>
  <desc id="artifact-desc">Où se trouve chaque primitive dans chaque forme de déploiement.</desc>
  <defs>
    <filter id="ds4" x="-10%" y="-10%" width="120%" height="120%">
      <feDropShadow dx="0" dy="2" stdDeviation="2" flood-color="#334155" flood-opacity="0.08" />
    </filter>
  </defs>
  <style data-visual-system="evidence-plate-v1">
    * { animation: none !important; }
    .anim-box, .bar, .bar-text, .seq-item, .t-box, .flow { opacity: 1 !important; transform: none !important; }
    path, line, polyline { stroke-linecap: round; stroke-linejoin: round; }
  </style>

  <rect width="1140" height="640" fill="#f8fafc" />

  <!-- Title -->
  <text y="32" text-anchor="middle" font-size="20" font-weight="700" fill="#0f172a" x="570">Où se trouve chaque primitive dans chaque forme de déploiement</text>
  <text y="54" text-anchor="middle" font-size="12" fill="#334155" x="570">Vert = la forme fournit cette primitive. Gris = elle est connectée externement. Rouge = non applicable.</text>

  <!-- Column headers -->
  <g font-size="11" font-weight="700" letter-spacing="0.6" fill="#334155" text-anchor="middle">
    <text y="96" x="140">Forme</text>
    <text y="96" x="370">Ensemble de connexion</text>
    <text y="96" x="585">Boîte à sable</text>
    <text y="96" x="800">SÉANCE + POINT DE VÉRIFICATION</text>
    <text y="96" x="1015">Tracé</text>
  </g>
  <line x1="20" y1="106" x2="1120" y2="106" stroke="#2563eb" stroke-width="1" />

  <!-- Row 1: SDK in app server (y_rect=118, y_text=140) -->
  <text y="140" font-size="13" font-weight="600" fill="#0f172a" x="30">1. SDK dans le serveur d’application</text>
  <g filter="url(#ds4)">
    <rect x="265" y="118" width="210" height="34" rx="6" fill="#f0fdf4" stroke="#166534" stroke-width="1.2" />
    <rect x="480" y="118" width="210" height="34" rx="6" fill="#f0fdf4" stroke="#166534" stroke-width="1.2" />
    <rect x="695" y="118" width="210" height="34" rx="6" fill="#f0fdf4" stroke="#166534" stroke-width="1.2" />
    <rect x="910" y="118" width="210" height="34" rx="6" fill="#eff6ff" stroke="#2563eb" stroke-width="1.2" />
  </g>
  <g font-size="12" text-anchor="middle">
    <text y="140" fill="#166534" x="370">processus web</text>
    <text y="140" fill="#166534" x="585">processus web</text>
    <text y="140" fill="#166534" x="800">mémoire de traitement</text>
    <text y="140" fill="#1d4ed8" x="1015">journalisation web</text>
  </g>

  <!-- Row 2: Queue + worker + DB (y_rect=162, y_text=184) -->
  <text y="184" font-size="13" font-weight="600" fill="#0f172a" x="30">2. File d’attente + travailleur + base de données</text>
  <g filter="url(#ds4)">
    <rect x="265" y="162" width="210" height="34" rx="6" fill="#f0fdf4" stroke="#166534" stroke-width="1.2" />
    <rect x="480" y="162" width="210" height="34" rx="6" fill="#f0fdf4" stroke="#166534" stroke-width="1.2" />
    <rect x="695" y="162" width="210" height="34" rx="6" fill="#f0fdf4" stroke="#166534" stroke-width="1.2" />
    <rect x="910" y="162" width="210" height="34" rx="6" fill="#eff6ff" stroke="#2563eb" stroke-width="1.2" />
  </g>
  <g font-size="12" text-anchor="middle">
    <text y="184" fill="#166534" x="370">agent</text>
    <text y="184" fill="#166534" x="585">conteneur + montage</text>
    <text y="184" fill="#166534" x="800">PostgreSQL</text>
    <text y="184" fill="#1d4ed8" x="1015">Stack OTel</text>
  </g>

  <!-- Row 3: Durable workflow (y_rect=206, y_text=228) -->
  <text y="228" font-size="13" font-weight="600" fill="#0f172a" x="30">3. Flux de travail durable</text>
  <g filter="url(#ds4)">
    <rect x="265" y="206" width="210" height="34" rx="6" fill="#f0fdf4" stroke="#166534" stroke-width="1.2" />
    <rect x="480" y="206" width="210" height="34" rx="6" fill="#eff6ff" stroke="#2563eb" stroke-width="1.2" />
    <rect x="695" y="206" width="210" height="34" rx="6" fill="#f0fdf4" stroke="#166534" stroke-width="1.2" />
    <rect x="910" y="206" width="210" height="34" rx="6" fill="#f0fdf4" stroke="#166534" stroke-width="1.2" />
  </g>
  <g font-size="12" text-anchor="middle">
    <text y="228" fill="#166534" x="370">Code de flux de travail</text>
    <text y="228" fill="#1d4ed8" x="585">externe (Activité)</text>
    <text y="228" fill="#166534" x="800">Journal des événements temporels</text>
    <text y="228" fill="#166534" x="1015">UI temporelle + OTel</text>
  </g>

  <!-- Row 4: Sandbox provider per session (y_rect=250, y_text=272) -->
  <text y="272" font-size="13" font-weight="600" fill="#0f172a" x="30">4. Fournisseur de sandbox par session</text>
  <g filter="url(#ds4)">
    <rect x="265" y="250" width="210" height="34" rx="6" fill="#eff6ff" stroke="#2563eb" stroke-width="1.2" />
    <rect x="480" y="250" width="210" height="34" rx="6" fill="#f0fdf4" stroke="#166534" stroke-width="1.2" />
    <rect x="695" y="250" width="210" height="34" rx="6" fill="#eff6ff" stroke="#2563eb" stroke-width="1.2" />
    <rect x="910" y="250" width="210" height="34" rx="6" fill="#eff6ff" stroke="#2563eb" stroke-width="1.2" />
  </g>
  <g font-size="12" text-anchor="middle">
    <text y="272" fill="#1d4ed8" x="370">votre</text>
    <text y="272" fill="#166534" font-weight="700" x="585">fournisseur</text>
    <text y="272" fill="#1d4ed8" x="800">votre</text>
    <text y="272" fill="#1d4ed8" x="1015">votre</text>
  </g>

  <!-- Row 5: Managed Agents (y_rect=294, y_text=316) -->
  <text y="316" font-size="13" font-weight="600" fill="#0f172a" x="30">5. Agents gérés par Anthropic</text>
  <g filter="url(#ds4)">
    <rect x="265" y="294" width="210" height="34" rx="6" fill="#f0fdf4" stroke="#166534" stroke-width="1.2" />
    <rect x="480" y="294" width="210" height="34" rx="6" fill="#f0fdf4" stroke="#166534" stroke-width="1.2" />
    <rect x="695" y="294" width="210" height="34" rx="6" fill="#f0fdf4" stroke="#166534" stroke-width="1.2" />
    <rect x="910" y="294" width="210" height="34" rx="6" fill="#f0fdf4" stroke="#166534" stroke-width="1.2" />
  </g>
  <g font-size="12" text-anchor="middle" font-weight="700">
    <text y="316" fill="#166534" x="370">Anthropic</text>
    <text y="316" fill="#166534" x="585">Anthropic</text>
    <text y="316" fill="#166534" x="800">Anthropic</text>
    <text y="316" fill="#166534" x="1015">Anthropic</text>
  </g>

  <!-- Row 6: Deep Agents Deploy (y_rect=338, y_text=360) -->
  <text y="360" font-size="13" font-weight="600" fill="#0f172a" x="30">6. Déploiement d’agents profonds</text>
  <g filter="url(#ds4)">
    <rect x="265" y="338" width="210" height="34" rx="6" fill="#f0fdf4" stroke="#166534" stroke-width="1.2" />
    <rect x="480" y="338" width="210" height="34" rx="6" fill="#f0fdf4" stroke="#166534" stroke-width="1.2" />
    <rect x="695" y="338" width="210" height="34" rx="6" fill="#f0fdf4" stroke="#166534" stroke-width="1.2" />
    <rect x="910" y="338" width="210" height="34" rx="6" fill="#f0fdf4" stroke="#166534" stroke-width="1.2" />
  </g>
  <g font-size="12" text-anchor="middle">
    <text y="360" fill="#166534" x="370">hébergé (remplaçable)</text>
    <text y="360" fill="#166534" x="585">hébergé (remplaçable)</text>
    <text y="360" fill="#166534" x="800">hébergé (remplaçable)</text>
    <text y="360" fill="#166534" x="1015">LangSmith</text>
  </g>

  <!-- Row 7: Cloud Run (y_rect=382, y_text=404) -->
  <text y="404" font-size="13" font-weight="600" fill="#0f172a" x="30">7. Cloud Run</text>
  <g filter="url(#ds4)">
    <rect x="265" y="382" width="210" height="34" rx="6" fill="#f0fdf4" stroke="#166534" stroke-width="1.2" />
    <rect x="480" y="382" width="210" height="34" rx="6" fill="#eff6ff" stroke="#2563eb" stroke-width="1.2" />
    <rect x="695" y="382" width="210" height="34" rx="6" fill="#eff6ff" stroke="#2563eb" stroke-width="1.2" />
    <rect x="910" y="382" width="210" height="34" rx="6" fill="#eff6ff" stroke="#2563eb" stroke-width="1.2" />
  </g>
  <g font-size="12" text-anchor="middle">
    <text y="404" fill="#166534" x="370">Cloud Run</text>
    <text y="404" fill="#1d4ed8" x="585">conteneur</text>
    <text y="404" fill="#1d4ed8" x="800">BDD externe</text>
    <text y="404" fill="#1d4ed8" x="1015">journalisation + OTel</text>
  </g>

  <!-- Row 8: Lambda (y_rect=426, y_text=448) -->
  <text y="448" font-size="13" font-weight="600" fill="#0f172a" x="30">8. Lambda</text>
  <g filter="url(#ds4)">
    <rect x="265" y="426" width="210" height="34" rx="6" fill="#fef2f2" stroke="#dc2626" stroke-width="1.2" />
    <rect x="480" y="426" width="210" height="34" rx="6" fill="#f0fdf4" stroke="#166534" stroke-width="1.2" />
    <rect x="695" y="426" width="210" height="34" rx="6" fill="#eff6ff" stroke="#2563eb" stroke-width="1.2" />
    <rect x="910" y="426" width="210" height="34" rx="6" fill="#eff6ff" stroke="#2563eb" stroke-width="1.2" />
  </g>
  <g font-size="12" text-anchor="middle">
    <text y="448" fill="#991b1b" font-weight="700" x="370">n/d (plafond de 15 min)</text>
    <text y="448" fill="#166534" x="585">fonction</text>
    <text y="448" fill="#1d4ed8" x="800">externe</text>
    <text y="448" fill="#1d4ed8" x="1015">CloudWatch</text>
  </g>

  <!-- Row 9: Fargate (y_rect=470, y_text=492) -->
  <text y="492" font-size="13" font-weight="600" fill="#0f172a" x="30">9. Fargate</text>
  <g filter="url(#ds4)">
    <rect x="265" y="470" width="210" height="34" rx="6" fill="#f0fdf4" stroke="#166534" stroke-width="1.2" />
    <rect x="480" y="470" width="210" height="34" rx="6" fill="#f0fdf4" stroke="#166534" stroke-width="1.2" />
    <rect x="695" y="470" width="210" height="34" rx="6" fill="#eff6ff" stroke="#2563eb" stroke-width="1.2" />
    <rect x="910" y="470" width="210" height="34" rx="6" fill="#eff6ff" stroke="#2563eb" stroke-width="1.2" />
  </g>
  <g font-size="12" text-anchor="middle">
    <text y="492" fill="#166534" x="370">Tâche Fargate</text>
    <text y="492" fill="#166534" x="585">Tâche Fargate</text>
    <text y="492" fill="#1d4ed8" x="800">BDD externe</text>
    <text y="492" fill="#1d4ed8" x="1015">CloudWatch + OTel</text>
  </g>

  <!-- Row 10: K8s Job (y_rect=514, y_text=536) -->
  <text y="536" font-size="13" font-weight="600" fill="#0f172a" x="30">10. Tâche K8s</text>
  <g filter="url(#ds4)">
    <rect x="265" y="514" width="210" height="34" rx="6" fill="#f0fdf4" stroke="#166534" stroke-width="1.2" />
    <rect x="480" y="514" width="210" height="34" rx="6" fill="#f0fdf4" stroke="#166534" stroke-width="1.2" />
    <rect x="695" y="514" width="210" height="34" rx="6" fill="#eff6ff" stroke="#2563eb" stroke-width="1.2" />
    <rect x="910" y="514" width="210" height="34" rx="6" fill="#eff6ff" stroke="#2563eb" stroke-width="1.2" />
  </g>
  <g font-size="12" text-anchor="middle">
    <text y="536" fill="#166534" x="370">conteneur</text>
    <text y="536" fill="#166534" x="585">conteneur</text>
    <text y="536" fill="#1d4ed8" x="800">BDD externe ou PVC</text>
    <text y="536" fill="#1d4ed8" x="1015">dans le cluster</text>
  </g>

  <!-- Row 11: Docker Compose (dev) (y_rect=558, y_text=580) -->
  <text y="580" font-size="13" font-weight="600" fill="#0f172a" x="30">11. Docker Compose (développement)</text>
  <g filter="url(#ds4)">
    <rect x="265" y="558" width="210" height="34" rx="6" fill="#f0fdf4" stroke="#166534" stroke-width="1.2" />
    <rect x="480" y="558" width="210" height="34" rx="6" fill="#f0fdf4" stroke="#166534" stroke-width="1.2" />
    <rect x="695" y="558" width="210" height="34" rx="6" fill="#f0fdf4" stroke="#166534" stroke-width="1.2" />
    <rect x="910" y="558" width="210" height="34" rx="6" fill="#eff6ff" stroke="#2563eb" stroke-width="1.2" />
  </g>
  <g font-size="12" text-anchor="middle">
    <text y="580" fill="#166534" x="370">conteneur d’ouvrier</text>
    <text y="580" fill="#166534" x="585">montage dans l’espace de travail</text>
    <text y="580" fill="#166534" x="800">PostgreSQL</text>
    <text y="580" fill="#1d4ed8" x="1015">Stack OTel</text>
  </g>

  <!-- Legend -->
  <g font-size="11" fill="#334155">
    <rect x="280" y="612" width="18" height="14" rx="3" fill="#f0fdf4" stroke="#166534" stroke-width="1" />
    <text y="623" x="305">la forme fournit</text>
    <rect x="450" y="612" width="18" height="14" rx="3" fill="#eff6ff" stroke="#2563eb" stroke-width="1" />
    <text y="623" x="475">Vous effectuez le câblage en externe.</text>
    <rect x="635" y="612" width="18" height="14" rx="3" fill="#fef2f2" stroke="#dc2626" stroke-width="1" />
    <text y="623" x="660">pas applicable</text>
  </g>
</svg>
