<svg xmlns="http://www.w3.org/2000/svg" width="940" height="610" viewBox="0 0 940 610" role="img" aria-labelledby="title desc">
  <title id="title">Model Quantization Decision Flowchart</title>
  <desc id="desc">A flowchart guiding practitioners from deployment goals to GGUF, NF4, W4A16, INT8, FP8, or NVFP4 serving.</desc>
  <defs>
    <filter id="shadow" x="-10%" y="-10%" width="120%" height="120%">
      <feDropShadow dx="0" dy="4" stdDeviation="3" flood-color="#0f172a" flood-opacity="0.12"/>
    </filter>
    <marker id="arrow-blue" markerWidth="10" markerHeight="10" refX="8" refY="5" orient="auto">
      <path d="M2,2 L8,5 L2,8 Z" fill="#1565c0"/>
    </marker>
    <marker id="arrow-green" markerWidth="10" markerHeight="10" refX="8" refY="5" orient="auto">
      <path d="M2,2 L8,5 L2,8 Z" fill="#2e7d32"/>
    </marker>
    <linearGradient id="blue-grad" x1="0%" y1="0%" x2="100%" y2="100%">
      <stop offset="0%" stop-color="#e3f2fd" />
      <stop offset="100%" stop-color="#bbdefb" />
    </linearGradient>
    <linearGradient id="orange-grad" x1="0%" y1="0%" x2="100%" y2="100%">
      <stop offset="0%" stop-color="#fff3e0" />
      <stop offset="100%" stop-color="#ffe082" />
    </linearGradient>
    <linearGradient id="green-grad" x1="0%" y1="0%" x2="100%" y2="100%">
      <stop offset="0%" stop-color="#e8f5e9" />
      <stop offset="100%" stop-color="#c8e6c9" />
    </linearGradient>
    <linearGradient id="purple-grad" x1="0%" y1="0%" x2="100%" y2="100%">
      <stop offset="0%" stop-color="#f3e5f5" />
      <stop offset="100%" stop-color="#e1bee7" />
    </linearGradient>
    <linearGradient id="red-grad" x1="0%" y1="0%" x2="100%" y2="100%">
      <stop offset="0%" stop-color="#fce4ec" />
      <stop offset="100%" stop-color="#f8bbd0" />
    </linearGradient>
    <style>
      .bg { fill: #f8f9fa; }
      .card { filter: url(#shadow); }
      .blue { fill: url(#blue-grad); stroke: #1565c0; stroke-width: 1.2; }
      .orange { fill: url(#orange-grad); stroke: #e65100; stroke-width: 1.2; }
      .green { fill: url(#green-grad); stroke: #2e7d32; stroke-width: 1.2; }
      .purple { fill: url(#purple-grad); stroke: #6a1b9a; stroke-width: 1.2; }
      .red { fill: url(#red-grad); stroke: #c62828; stroke-width: 1.2; }
      .title { font: 700 13px Arial, sans-serif; fill: #0f172a; text-anchor: middle; }
      .text { font: 11px Arial, sans-serif; fill: #334155; text-anchor: middle; }
      .tag { font: 700 11px Arial, sans-serif; fill: #64748b; text-anchor: middle; }
      .arrow { stroke: #1565c0; stroke-width: 2.2; fill: none; marker-end: url(#arrow-blue); }
      .arrow-success { stroke: #2e7d32; stroke-width: 2.2; fill: none; marker-end: url(#arrow-green); }
    </style>
  </defs>

  <rect class="bg" width="940" height="610"/>

  <!-- Row 1: Start -->
  <rect class="card blue" x="370" y="25" width="200" height="45" rx="6" />
  <text class="title" x="470" y="51">1. Define Serving Goal</text>

  <!-- Arrow Start -> Q1 -->
  <path class="arrow" d="M470 70 L470 102" />

  <!-- Row 2: Q1 -->
  <rect class="card blue" x="330" y="105" width="280" height="55" rx="6" />
  <text class="title" x="470" y="127">Need fine-tuning or training?</text>
  <text class="text" x="470" y="144">(e.g., adapters / QLoRA / PEFT)</text>

  <!-- Q1 Yes -> QLoRA -->
  <path class="arrow" d="M610 132.5 C680 132.5 700 142.5 742 142.5" />
  <text class="tag" x="660" y="125">Yes</text>

  <rect class="card orange" x="750" y="117.5" width="160" height="50" rx="6" />
  <text class="title" x="830" y="139" fill="#e65100">bitsandbytes NF4</text>
  <text class="text" x="830" y="153">QLoRA / PEFT default</text>

  <!-- Q1 No -> Q2 -->
  <path class="arrow" d="M470 160 L470 202" />
  <text class="tag" x="486" y="185">No</text>

  <!-- Row 3: Q2 (Constraint) -->
  <rect class="card blue" x="330" y="205" width="280" height="55" rx="6" />
  <text class="title" x="470" y="227">What is your primary constraint?</text>
  <text class="text" x="470" y="244">(VRAM limit vs serving throughput)</text>

  <!-- Q2 Left -> Edge HW -->
  <path class="arrow" d="M330 232.5 C210 232.5 210 270 190 292.5" />
  <text class="tag" x="250" y="225">VRAM Limit / Edge</text>

  <!-- Q2 Right -> Server HW -->
  <path class="arrow" d="M610 232.5 C730 232.5 730 270 750 292.5" />
  <text class="tag" x="690" y="225">High Throughput</text>

  <!-- Row 4: HW Deciders -->
  <!-- Left HW -->
  <rect class="card blue" x="50" y="295" width="280" height="55" rx="6" />
  <text class="title" x="190" y="317">What is the edge architecture?</text>
  <text class="text" x="190" y="334">(CPU, Apple Silicon vs GPU)</text>

  <!-- Right HW -->
  <rect class="card blue" x="610" y="295" width="280" height="55" rx="6" />
  <text class="title" x="750" y="317">What is the server GPU generation?</text>
  <text class="text" x="750" y="334">(Ampere vs Hopper/Ada vs Blackwell)</text>

  <!-- Q3a CPU -> GGUF -->
  <path class="arrow" d="M130 350 C130 375 110 375 110 392" />
  <rect x="90" y="362" width="60" height="16" fill="#f8f9fa" rx="3" />
  <text class="tag" x="120" y="374">CPU / Mac</text>

  <!-- Q3a GPU -> W4A16 -->
  <path class="arrow" d="M250 350 C250 375 290 375 290 392" />
  <rect x="250" y="362" width="40" height="16" fill="#f8f9fa" rx="3" />
  <text class="tag" x="270" y="374">GPU</text>

  <!-- Q3b Ampere -> INT8 -->
  <path class="arrow" d="M680 350 C680 375 470 375 470 392" />
  <rect x="545" y="362" width="60" height="16" fill="#f8f9fa" rx="3" />
  <text class="tag" x="575" y="374">Ampere</text>

  <!-- Q3b Hopper -> FP8 -->
  <path class="arrow" d="M750 350 C750 375 650 375 650 392" />
  <rect x="660" y="362" width="80" height="16" fill="#f8f9fa" rx="3" />
  <text class="tag" x="700" y="374">Hopper / Ada</text>

  <!-- Q3b Blackwell -> NVFP4 -->
  <path class="arrow" d="M820 350 C820 375 830 375 830 392" />
  <rect x="795" y="362" width="60" height="16" fill="#f8f9fa" rx="3" />
  <text class="tag" x="825" y="374">Blackwell</text>

  <!-- Row 5: Outputs -->
  <!-- GGUF (Red) -->
  <rect class="card red" x="30" y="395" width="160" height="55" rx="6" />
  <text class="title" x="110" y="417" fill="#c62828">GGUF Format</text>
  <text class="text" x="110" y="433">llama.cpp / Ollama</text>

  <!-- W4A16 (Green) -->
  <rect class="card green" x="210" y="395" width="160" height="55" rx="6" />
  <text class="title" x="290" y="417" fill="#2e7d32">W4A16 GPTQ / AWQ</text>
  <text class="text" x="290" y="433">Memory-fit default</text>

  <!-- INT8 W8A8 (Green) -->
  <rect class="card green" x="390" y="395" width="160" height="55" rx="6" />
  <text class="title" x="470" y="417" fill="#2e7d32">INT8 SmoothQuant</text>
  <text class="text" x="470" y="433">W8A8 on Ampere</text>

  <!-- FP8 W8A8 (Green) -->
  <rect class="card green" x="570" y="395" width="160" height="55" rx="6" />
  <text class="title" x="650" y="417" fill="#2e7d32">FP8 W8A8</text>
  <text class="text" x="650" y="433">Add FP8 KV cache if needed</text>

  <!-- NVFP4 (Purple) -->
  <rect class="card purple" x="750" y="395" width="160" height="55" rx="6" />
  <text class="title" x="830" y="417" fill="#6a1b9a">NVFP4 / MXFP8</text>
  <text class="text" x="830" y="433">Microscaled 4-bit</text>

  <!-- Arrows to Serving engine -->
  <path class="arrow-success" d="M290 450 L290 512" />
  <path class="arrow-success" d="M470 450 L470 512" />
  <path class="arrow-success" d="M650 450 L650 512" />
  <path class="arrow-success" d="M830 450 L830 512" />

  <!-- Row 6: Server serving Engine -->
  <rect class="card green" x="210" y="515" width="700" height="55" rx="6" />
  <text class="title" x="560" y="537" fill="#2e7d32">vLLM Serving Engine</text>
  <text class="text" x="560" y="553">(Native execution utilizing optimized Marlin, Machete, or OCP FP8/FP4 kernels)</text>

</svg>
