<svg xmlns="http://www.w3.org/2000/svg" viewBox="0 0 1140 540" font-family="Inter, system-ui, sans-serif" data-visual-system="evidence-plate-v1" role="img" preserveAspectRatio="xMidYMid meet" shape-rendering="geometricPrecision" text-rendering="geometricPrecision" aria-labelledby="artifact-title artifact-desc">
  <title id="artifact-title">Adequação da plataforma por caso de uso</title>
  <desc id="artifact-desc">Adequação da plataforma por caso de uso.</desc>
  <defs>
    <filter id="dsm" x="-10%" y="-10%" width="120%" height="120%">
      <feDropShadow dx="0" dy="2" stdDeviation="2" flood-color="#334155" flood-opacity="0.08" />
    </filter>
  </defs>
  <style data-visual-system="evidence-plate-v1">
    * { animation: none !important; }
    .anim-box, .bar, .bar-text, .seq-item, .t-box, .flow { opacity: 1 !important; transform: none !important; }
    path, line, polyline { stroke-linecap: round; stroke-linejoin: round; }
  </style>

  <rect width="1140" height="540" fill="#f8fafc" />

  <!-- Title -->
  <text y="32" text-anchor="middle" font-size="20" font-weight="700" fill="#0f172a" x="570">Adequação da plataforma por caso de uso</text>
  <text y="54" text-anchor="middle" font-size="12" fill="#334155" x="570">Verde = suportado. Amarelo = suportado com restrições. Vermelho = não é adequado.</text>

  <!-- Column headers -->
  <g font-size="11" font-weight="700" fill="#334155" text-anchor="middle">
    <text y="84" x="357">Cloud Run</text>
    <text y="98" x="357">serviço</text>
    <text y="84" x="492">Cloud Run</text>
    <text y="98" x="492">tarefa</text>
    <text y="84" x="627">Fargate</text>
    <text y="98" x="627">tarefa</text>
    <text y="84" x="762">Gerido</text>
    <text y="98" x="762">Agentes</text>
    <text y="84" x="897">Agentes Avançados</text>
    <text y="98" x="897">Implantar</text>
    <text y="84" x="1032">Kubernetes</text>
    <text y="98" x="1032">Tarefa</text>
  </g>
  <line x1="290" y1="106" x2="1098" y2="106" stroke="#2563eb" stroke-width="1" />

  <!-- ===================== Row 1: Sub-60-min synchronous (y=112) ===================== -->
  <text y="135" font-size="12" font-weight="600" fill="#0f172a" x="30">Síncrono em menos de 60 minutos</text>
  <!-- Cloud Run service: yes (60-min cap) -->
  <g filter="url(#dsm)"><rect x="292" y="112" width="131" height="36" rx="4" fill="#f0fdf4" stroke="#166534" stroke-width="1.1" /></g>
  <text y="129" text-anchor="middle" font-size="16" font-weight="700" fill="#166534" x="357">✓</text>
  <text y="142" text-anchor="middle" font-size="9" fill="#166534" x="357">Limite de 60 minutos</text>
  <!-- Cloud Run job: partial -->
  <g filter="url(#dsm)"><rect x="427" y="112" width="131" height="36" rx="4" fill="#fff7ed" stroke="#ea580c" stroke-width="1.1" /></g>
  <text y="129" text-anchor="middle" font-size="16" font-weight="700" fill="#991b1b" x="492">~</text>
  <text y="142" text-anchor="middle" font-size="9" fill="#991b1b" x="492">Apenas assíncrono</text>
  <!-- Fargate: partial -->
  <g filter="url(#dsm)"><rect x="562" y="112" width="131" height="36" rx="4" fill="#fff7ed" stroke="#ea580c" stroke-width="1.1" /></g>
  <text y="129" text-anchor="middle" font-size="16" font-weight="700" fill="#991b1b" x="627">~</text>
  <text y="142" text-anchor="middle" font-size="9" fill="#991b1b" x="627">Apenas assíncrono</text>
  <!-- Managed Agents: yes -->
  <g filter="url(#dsm)"><rect x="697" y="112" width="131" height="36" rx="4" fill="#f0fdf4" stroke="#166534" stroke-width="1.1" /></g>
  <text y="136" text-anchor="middle" font-size="18" font-weight="700" fill="#166534" x="762">✓</text>
  <!-- Deep Agents Deploy: yes -->
  <g filter="url(#dsm)"><rect x="832" y="112" width="131" height="36" rx="4" fill="#f0fdf4" stroke="#166534" stroke-width="1.1" /></g>
  <text y="136" text-anchor="middle" font-size="18" font-weight="700" fill="#166534" x="897">✓</text>
  <!-- K8s Job: yes -->
  <g filter="url(#dsm)"><rect x="967" y="112" width="131" height="36" rx="4" fill="#f0fdf4" stroke="#166534" stroke-width="1.1" /></g>
  <text y="136" text-anchor="middle" font-size="18" font-weight="700" fill="#166534" x="1032">✓</text>

  <!-- ===================== Row 2: Multi-hour batch (y=152) ===================== -->
  <text y="175" font-size="12" font-weight="600" fill="#0f172a" x="30">Lote de várias horas (&gt;60 min)</text>
  <g filter="url(#dsm)"><rect x="292" y="152" width="131" height="36" rx="4" fill="#fef2f2" stroke="#dc2626" stroke-width="1.1" /></g>
  <text y="169" text-anchor="middle" font-size="16" font-weight="700" fill="#991b1b" x="357">✗</text>
  <text y="182" text-anchor="middle" font-size="9" fill="#991b1b" x="357">Limite de 60 minutos</text>
  <g filter="url(#dsm)"><rect x="427" y="152" width="131" height="36" rx="4" fill="#f0fdf4" stroke="#166534" stroke-width="1.1" /></g>
  <text y="169" text-anchor="middle" font-size="16" font-weight="700" fill="#166534" x="492">✓</text>
  <text y="182" text-anchor="middle" font-size="9" fill="#166534" x="492">até 7 dias</text>
  <g filter="url(#dsm)"><rect x="562" y="152" width="131" height="36" rx="4" fill="#f0fdf4" stroke="#166534" stroke-width="1.1" /></g>
  <text y="176" text-anchor="middle" font-size="18" font-weight="700" fill="#166534" x="627">✓</text>
  <g filter="url(#dsm)"><rect x="697" y="152" width="131" height="36" rx="4" fill="#f0fdf4" stroke="#166534" stroke-width="1.1" /></g>
  <text y="169" text-anchor="middle" font-size="16" font-weight="700" fill="#166534" x="762">✓</text>
  <text y="182" text-anchor="middle" font-size="9" fill="#166534" x="762">0,08 $/h</text>
  <g filter="url(#dsm)"><rect x="832" y="152" width="131" height="36" rx="4" fill="#f0fdf4" stroke="#166534" stroke-width="1.1" /></g>
  <text y="176" text-anchor="middle" font-size="18" font-weight="700" fill="#166534" x="897">✓</text>
  <g filter="url(#dsm)"><rect x="967" y="152" width="131" height="36" rx="4" fill="#f0fdf4" stroke="#166534" stroke-width="1.1" /></g>
  <text y="176" text-anchor="middle" font-size="18" font-weight="700" fill="#166534" x="1032">✓</text>

  <!-- ===================== Row 3: Fork sandbox provider (y=192) ===================== -->
  <text y="215" font-size="12" font-weight="600" fill="#0f172a" x="30">Forkar o agente para uma sandbox diferente</text>
  <g filter="url(#dsm)"><rect x="292" y="192" width="131" height="36" rx="4" fill="#fef2f2" stroke="#dc2626" stroke-width="1.1" /></g>
  <text y="216" text-anchor="middle" font-size="18" font-weight="700" fill="#991b1b" x="357">✗</text>
  <g filter="url(#dsm)"><rect x="427" y="192" width="131" height="36" rx="4" fill="#fef2f2" stroke="#dc2626" stroke-width="1.1" /></g>
  <text y="216" text-anchor="middle" font-size="18" font-weight="700" fill="#991b1b" x="492">✗</text>
  <g filter="url(#dsm)"><rect x="562" y="192" width="131" height="36" rx="4" fill="#fef2f2" stroke="#dc2626" stroke-width="1.1" /></g>
  <text y="216" text-anchor="middle" font-size="18" font-weight="700" fill="#991b1b" x="627">✗</text>
  <g filter="url(#dsm)"><rect x="697" y="192" width="131" height="36" rx="4" fill="#fff7ed" stroke="#ea580c" stroke-width="1.1" /></g>
  <text y="209" text-anchor="middle" font-size="16" font-weight="700" fill="#991b1b" x="762">~</text>
  <text y="222" text-anchor="middle" font-size="9" fill="#991b1b" x="762">backend único</text>
  <g filter="url(#dsm)"><rect x="832" y="192" width="131" height="36" rx="4" fill="#f0fdf4" stroke="#166534" stroke-width="1.1" /></g>
  <text y="209" text-anchor="middle" font-size="16" font-weight="700" fill="#166534" x="897">✓</text>
  <text y="222" text-anchor="middle" font-size="9" fill="#166534" x="897">comutador de configuração</text>
  <g filter="url(#dsm)"><rect x="967" y="192" width="131" height="36" rx="4" fill="#fef2f2" stroke="#dc2626" stroke-width="1.1" /></g>
  <text y="216" text-anchor="middle" font-size="18" font-weight="700" fill="#991b1b" x="1032">✗</text>

  <!-- ===================== Row 4: On GCP (y=232) ===================== -->
  <text y="255" font-size="12" font-weight="600" fill="#0f172a" x="30">Já no GCP, minimizar operações</text>
  <g filter="url(#dsm)"><rect x="292" y="232" width="131" height="36" rx="4" fill="#f0fdf4" stroke="#166534" stroke-width="1.1" /></g>
  <text y="256" text-anchor="middle" font-size="18" font-weight="700" fill="#166534" x="357">✓</text>
  <g filter="url(#dsm)"><rect x="427" y="232" width="131" height="36" rx="4" fill="#f0fdf4" stroke="#166534" stroke-width="1.1" /></g>
  <text y="256" text-anchor="middle" font-size="18" font-weight="700" fill="#166534" x="492">✓</text>
  <g filter="url(#dsm)"><rect x="562" y="232" width="131" height="36" rx="4" fill="#fef2f2" stroke="#dc2626" stroke-width="1.1" /></g>
  <text y="256" text-anchor="middle" font-size="18" font-weight="700" fill="#991b1b" x="627">✗</text>
  <g filter="url(#dsm)"><rect x="697" y="232" width="131" height="36" rx="4" fill="#fef2f2" stroke="#dc2626" stroke-width="1.1" /></g>
  <text y="256" text-anchor="middle" font-size="18" font-weight="700" fill="#991b1b" x="762">✗</text>
  <g filter="url(#dsm)"><rect x="832" y="232" width="131" height="36" rx="4" fill="#f0fdf4" stroke="#166534" stroke-width="1.1" /></g>
  <text y="256" text-anchor="middle" font-size="18" font-weight="700" fill="#166534" x="897">✓</text>
  <g filter="url(#dsm)"><rect x="967" y="232" width="131" height="36" rx="4" fill="#fff7ed" stroke="#ea580c" stroke-width="1.1" /></g>
  <text y="256" text-anchor="middle" font-size="18" font-weight="700" fill="#991b1b" x="1032">~</text>

  <!-- ===================== Row 5: On AWS + VPC (y=272) ===================== -->
  <text y="295" font-size="12" font-weight="600" fill="#0f172a" x="30">Já está na AWS, quer algo localizado na VPC?</text>
  <g filter="url(#dsm)"><rect x="292" y="272" width="131" height="36" rx="4" fill="#fef2f2" stroke="#dc2626" stroke-width="1.1" /></g>
  <text y="296" text-anchor="middle" font-size="18" font-weight="700" fill="#991b1b" x="357">✗</text>
  <g filter="url(#dsm)"><rect x="427" y="272" width="131" height="36" rx="4" fill="#fef2f2" stroke="#dc2626" stroke-width="1.1" /></g>
  <text y="296" text-anchor="middle" font-size="18" font-weight="700" fill="#991b1b" x="492">✗</text>
  <g filter="url(#dsm)"><rect x="562" y="272" width="131" height="36" rx="4" fill="#f0fdf4" stroke="#166534" stroke-width="1.1" /></g>
  <text y="296" text-anchor="middle" font-size="18" font-weight="700" fill="#166534" x="627">✓</text>
  <g filter="url(#dsm)"><rect x="697" y="272" width="131" height="36" rx="4" fill="#fef2f2" stroke="#dc2626" stroke-width="1.1" /></g>
  <text y="289" text-anchor="middle" font-size="16" font-weight="700" fill="#991b1b" x="762">✗</text>
  <text y="302" text-anchor="middle" font-size="9" fill="#991b1b" x="762">não no Bedrock</text>
  <g filter="url(#dsm)"><rect x="832" y="272" width="131" height="36" rx="4" fill="#f0fdf4" stroke="#166534" stroke-width="1.1" /></g>
  <text y="289" text-anchor="middle" font-size="16" font-weight="700" fill="#166534" x="897">✓</text>
  <text y="302" text-anchor="middle" font-size="9" fill="#166534" x="897">híbrido</text>
  <g filter="url(#dsm)"><rect x="967" y="272" width="131" height="36" rx="4" fill="#f0fdf4" stroke="#166534" stroke-width="1.1" /></g>
  <text y="296" text-anchor="middle" font-size="18" font-weight="700" fill="#166534" x="1032">✓</text>

  <!-- ===================== Row 6: Zero-infra hosted (y=312) ===================== -->
  <text y="335" font-size="12" font-weight="600" fill="#0f172a" x="30">Plataforma hospedada sem infraestrutura</text>
  <g filter="url(#dsm)"><rect x="292" y="312" width="131" height="36" rx="4" fill="#fef2f2" stroke="#dc2626" stroke-width="1.1" /></g>
  <text y="336" text-anchor="middle" font-size="18" font-weight="700" fill="#991b1b" x="357">✗</text>
  <g filter="url(#dsm)"><rect x="427" y="312" width="131" height="36" rx="4" fill="#fef2f2" stroke="#dc2626" stroke-width="1.1" /></g>
  <text y="336" text-anchor="middle" font-size="18" font-weight="700" fill="#991b1b" x="492">✗</text>
  <g filter="url(#dsm)"><rect x="562" y="312" width="131" height="36" rx="4" fill="#fef2f2" stroke="#dc2626" stroke-width="1.1" /></g>
  <text y="336" text-anchor="middle" font-size="18" font-weight="700" fill="#991b1b" x="627">✗</text>
  <g filter="url(#dsm)"><rect x="697" y="312" width="131" height="36" rx="4" fill="#f0fdf4" stroke="#166534" stroke-width="1.1" /></g>
  <text y="336" text-anchor="middle" font-size="18" font-weight="700" fill="#166534" x="762">✓</text>
  <g filter="url(#dsm)"><rect x="832" y="312" width="131" height="36" rx="4" fill="#f0fdf4" stroke="#166534" stroke-width="1.1" /></g>
  <text y="336" text-anchor="middle" font-size="18" font-weight="700" fill="#166534" x="897">✓</text>
  <g filter="url(#dsm)"><rect x="967" y="312" width="131" height="36" rx="4" fill="#fef2f2" stroke="#dc2626" stroke-width="1.1" /></g>
  <text y="336" text-anchor="middle" font-size="18" font-weight="700" fill="#991b1b" x="1032">✗</text>

  <!-- ===================== Row 7: Need GPU (y=352) ===================== -->
  <text y="375" font-size="12" font-weight="600" fill="#0f172a" x="30">Necessário GPU</text>
  <g filter="url(#dsm)"><rect x="292" y="352" width="131" height="36" rx="4" fill="#fff7ed" stroke="#ea580c" stroke-width="1.1" /></g>
  <text y="369" text-anchor="middle" font-size="16" font-weight="700" fill="#991b1b" x="357">~</text>
  <text y="382" text-anchor="middle" font-size="9" fill="#991b1b" x="357">Limite de 1 hora</text>
  <g filter="url(#dsm)"><rect x="427" y="352" width="131" height="36" rx="4" fill="#fff7ed" stroke="#ea580c" stroke-width="1.1" /></g>
  <text y="369" text-anchor="middle" font-size="16" font-weight="700" fill="#991b1b" x="492">~</text>
  <text y="382" text-anchor="middle" font-size="9" fill="#991b1b" x="492">Limite de 1 hora</text>
  <g filter="url(#dsm)"><rect x="562" y="352" width="131" height="36" rx="4" fill="#f0fdf4" stroke="#166534" stroke-width="1.1" /></g>
  <text y="376" text-anchor="middle" font-size="18" font-weight="700" fill="#166534" x="627">✓</text>
  <g filter="url(#dsm)"><rect x="697" y="352" width="131" height="36" rx="4" fill="#fef2f2" stroke="#dc2626" stroke-width="1.1" /></g>
  <text y="376" text-anchor="middle" font-size="18" font-weight="700" fill="#991b1b" x="762">✗</text>
  <g filter="url(#dsm)"><rect x="832" y="352" width="131" height="36" rx="4" fill="#f0fdf4" stroke="#166534" stroke-width="1.1" /></g>
  <text y="369" text-anchor="middle" font-size="16" font-weight="700" fill="#166534" x="897">✓</text>
  <text y="382" text-anchor="middle" font-size="9" fill="#166534" x="897">via sandbox</text>
  <g filter="url(#dsm)"><rect x="967" y="352" width="131" height="36" rx="4" fill="#f0fdf4" stroke="#166534" stroke-width="1.1" /></g>
  <text y="376" text-anchor="middle" font-size="18" font-weight="700" fill="#166534" x="1032">✓</text>

  <!-- ===================== Row 8: Lowest lock-in (y=392) ===================== -->
  <text y="415" font-size="12" font-weight="600" fill="#0f172a" x="30">Mínimo grau de dependência em relação ao fornecedor</text>
  <g filter="url(#dsm)"><rect x="292" y="392" width="131" height="36" rx="4" fill="#fff7ed" stroke="#ea580c" stroke-width="1.1" /></g>
  <text y="416" text-anchor="middle" font-size="18" font-weight="700" fill="#991b1b" x="357">~</text>
  <g filter="url(#dsm)"><rect x="427" y="392" width="131" height="36" rx="4" fill="#fff7ed" stroke="#ea580c" stroke-width="1.1" /></g>
  <text y="416" text-anchor="middle" font-size="18" font-weight="700" fill="#991b1b" x="492">~</text>
  <g filter="url(#dsm)"><rect x="562" y="392" width="131" height="36" rx="4" fill="#f0fdf4" stroke="#166534" stroke-width="1.1" /></g>
  <text y="416" text-anchor="middle" font-size="18" font-weight="700" fill="#166534" x="627">✓</text>
  <g filter="url(#dsm)"><rect x="697" y="392" width="131" height="36" rx="4" fill="#fef2f2" stroke="#dc2626" stroke-width="1.1" /></g>
  <text y="416" text-anchor="middle" font-size="18" font-weight="700" fill="#991b1b" x="762">✗</text>
  <g filter="url(#dsm)"><rect x="832" y="392" width="131" height="36" rx="4" fill="#f0fdf4" stroke="#166534" stroke-width="1.1" /></g>
  <text y="409" text-anchor="middle" font-size="16" font-weight="700" fill="#166534" x="897">✓</text>
  <text y="422" text-anchor="middle" font-size="9" fill="#166534" x="897">MIT</text>
  <g filter="url(#dsm)"><rect x="967" y="392" width="131" height="36" rx="4" fill="#f0fdf4" stroke="#166534" stroke-width="1.1" /></g>
  <text y="416" text-anchor="middle" font-size="18" font-weight="700" fill="#166534" x="1032">✓</text>

  <!-- Legend -->
  <g font-size="11" fill="#334155">
    <rect x="290" y="468" width="22" height="22" rx="4" fill="#f0fdf4" stroke="#166534" stroke-width="1.1" />
    <text y="484" text-anchor="middle" font-size="14" font-weight="700" fill="#166534" x="301">✓</text>
    <text y="484" x="322">suportado</text>

    <rect x="440" y="468" width="22" height="22" rx="4" fill="#fff7ed" stroke="#ea580c" stroke-width="1.1" />
    <text y="484" text-anchor="middle" font-size="14" font-weight="700" fill="#991b1b" x="451">~</text>
    <text y="484" x="472">suportado com ressalvas</text>

    <rect x="660" y="468" width="22" height="22" rx="4" fill="#fef2f2" stroke="#dc2626" stroke-width="1.1" />
    <text y="484" text-anchor="middle" font-size="14" font-weight="700" fill="#991b1b" x="671">✗</text>
    <text y="484" x="692">não é adequado</text>
  </g>

  <!-- Footer note -->
  <text y="520" text-anchor="middle" font-size="11" fill="#334155" font-style="italic" x="570">As restrições e observações provêm da descrição de cada forma em § Onze Formatos de Implementação.</text>
</svg>
