<svg xmlns="http://www.w3.org/2000/svg" viewBox="0 0 1140 540" font-family="Roboto, Helvetica, Arial, sans-serif">
  <defs>
    <filter id="dsm" x="-10%" y="-10%" width="120%" height="120%">
      <feDropShadow dx="0" dy="1" stdDeviation="1.2" flood-color="#000" flood-opacity="0.10" />
    </filter>
  </defs>

  <rect width="1140" height="540" fill="#f8f9fa" />

  <!-- Title -->
  <text x="570" y="32" text-anchor="middle" font-size="20" font-weight="700" fill="#263238">Подбор платформы в зависимости от сценария использования</text>
  <text x="570" y="54" text-anchor="middle" font-size="12" fill="#546e7a">Зеленый цвет — поддерживается. Желтый цвет — поддерживается с оговорками. Красный цвет — не подходит.</text>

  <!-- Column headers -->
  <g font-size="11" font-weight="700" fill="#37474f" text-anchor="middle">
    <text x="357" y="84">Cloud Run</text>
    <text x="357" y="98">сервис</text>
    <text x="492" y="84">Cloud Run</text>
    <text x="492" y="98">задача</text>
    <text x="627" y="84">Fargate</text>
    <text x="627" y="98">задача</text>
    <text x="762" y="84">Управляемый</text>
    <text x="762" y="98">Агенты</text>
    <text x="897" y="84">Глубокие агенты</text>
    <text x="897" y="98">Развертывание</text>
    <text x="1032" y="84">Kubernetes</text>
    <text x="1032" y="98">Задача</text>
  </g>
  <line x1="290" y1="106" x2="1098" y2="106" stroke="#cfd8dc" stroke-width="1" />

  <!-- ===================== Row 1: Sub-60-min synchronous (y=112) ===================== -->
  <text x="30" y="135" font-size="12" font-weight="600" fill="#263238">Синхронный режим за 60 минут</text>
  <!-- Cloud Run service: yes (60-min cap) -->
  <g filter="url(#dsm)"><rect x="292" y="112" width="131" height="36" rx="4" fill="#c8e6c9" stroke="#2e7d32" stroke-width="1.1" /></g>
  <text x="357" y="129" text-anchor="middle" font-size="16" font-weight="700" fill="#1b5e20">✓</text>
  <text x="357" y="142" text-anchor="middle" font-size="9" fill="#1b5e20">Лимит в 60 минут</text>
  <!-- Cloud Run job: partial -->
  <g filter="url(#dsm)"><rect x="427" y="112" width="131" height="36" rx="4" fill="#fff3e0" stroke="#ef6c00" stroke-width="1.1" /></g>
  <text x="492" y="129" text-anchor="middle" font-size="16" font-weight="700" fill="#bf360c">~</text>
  <text x="492" y="142" text-anchor="middle" font-size="9" fill="#bf360c">только асинхронно</text>
  <!-- Fargate: partial -->
  <g filter="url(#dsm)"><rect x="562" y="112" width="131" height="36" rx="4" fill="#fff3e0" stroke="#ef6c00" stroke-width="1.1" /></g>
  <text x="627" y="129" text-anchor="middle" font-size="16" font-weight="700" fill="#bf360c">~</text>
  <text x="627" y="142" text-anchor="middle" font-size="9" fill="#bf360c">только асинхронно</text>
  <!-- Managed Agents: yes -->
  <g filter="url(#dsm)"><rect x="697" y="112" width="131" height="36" rx="4" fill="#c8e6c9" stroke="#2e7d32" stroke-width="1.1" /></g>
  <text x="762" y="136" text-anchor="middle" font-size="18" font-weight="700" fill="#1b5e20">✓</text>
  <!-- Deep Agents Deploy: yes -->
  <g filter="url(#dsm)"><rect x="832" y="112" width="131" height="36" rx="4" fill="#c8e6c9" stroke="#2e7d32" stroke-width="1.1" /></g>
  <text x="897" y="136" text-anchor="middle" font-size="18" font-weight="700" fill="#1b5e20">✓</text>
  <!-- K8s Job: yes -->
  <g filter="url(#dsm)"><rect x="967" y="112" width="131" height="36" rx="4" fill="#c8e6c9" stroke="#2e7d32" stroke-width="1.1" /></g>
  <text x="1032" y="136" text-anchor="middle" font-size="18" font-weight="700" fill="#1b5e20">✓</text>

  <!-- ===================== Row 2: Multi-hour batch (y=152) ===================== -->
  <text x="30" y="175" font-size="12" font-weight="600" fill="#263238">Пакетная обработка на несколько часов (&gt;60 минут)</text>
  <g filter="url(#dsm)"><rect x="292" y="152" width="131" height="36" rx="4" fill="#ffcdd2" stroke="#c62828" stroke-width="1.1" /></g>
  <text x="357" y="169" text-anchor="middle" font-size="16" font-weight="700" fill="#b71c1c">✗</text>
  <text x="357" y="182" text-anchor="middle" font-size="9" fill="#b71c1c">Лимит в 60 минут</text>
  <g filter="url(#dsm)"><rect x="427" y="152" width="131" height="36" rx="4" fill="#c8e6c9" stroke="#2e7d32" stroke-width="1.1" /></g>
  <text x="492" y="169" text-anchor="middle" font-size="16" font-weight="700" fill="#1b5e20">✓</text>
  <text x="492" y="182" text-anchor="middle" font-size="9" fill="#1b5e20">до 7 дней</text>
  <g filter="url(#dsm)"><rect x="562" y="152" width="131" height="36" rx="4" fill="#c8e6c9" stroke="#2e7d32" stroke-width="1.1" /></g>
  <text x="627" y="176" text-anchor="middle" font-size="18" font-weight="700" fill="#1b5e20">✓</text>
  <g filter="url(#dsm)"><rect x="697" y="152" width="131" height="36" rx="4" fill="#c8e6c9" stroke="#2e7d32" stroke-width="1.1" /></g>
  <text x="762" y="169" text-anchor="middle" font-size="16" font-weight="700" fill="#1b5e20">✓</text>
  <text x="762" y="182" text-anchor="middle" font-size="9" fill="#1b5e20">0,08 доллара/час</text>
  <g filter="url(#dsm)"><rect x="832" y="152" width="131" height="36" rx="4" fill="#c8e6c9" stroke="#2e7d32" stroke-width="1.1" /></g>
  <text x="897" y="176" text-anchor="middle" font-size="18" font-weight="700" fill="#1b5e20">✓</text>
  <g filter="url(#dsm)"><rect x="967" y="152" width="131" height="36" rx="4" fill="#c8e6c9" stroke="#2e7d32" stroke-width="1.1" /></g>
  <text x="1032" y="176" text-anchor="middle" font-size="18" font-weight="700" fill="#1b5e20">✓</text>

  <!-- ===================== Row 3: Fork sandbox provider (y=192) ===================== -->
  <text x="30" y="215" font-size="12" font-weight="600" fill="#263238">Перенести агента в другой песочницу</text>
  <g filter="url(#dsm)"><rect x="292" y="192" width="131" height="36" rx="4" fill="#ffcdd2" stroke="#c62828" stroke-width="1.1" /></g>
  <text x="357" y="216" text-anchor="middle" font-size="18" font-weight="700" fill="#b71c1c">✗</text>
  <g filter="url(#dsm)"><rect x="427" y="192" width="131" height="36" rx="4" fill="#ffcdd2" stroke="#c62828" stroke-width="1.1" /></g>
  <text x="492" y="216" text-anchor="middle" font-size="18" font-weight="700" fill="#b71c1c">✗</text>
  <g filter="url(#dsm)"><rect x="562" y="192" width="131" height="36" rx="4" fill="#ffcdd2" stroke="#c62828" stroke-width="1.1" /></g>
  <text x="627" y="216" text-anchor="middle" font-size="18" font-weight="700" fill="#b71c1c">✗</text>
  <g filter="url(#dsm)"><rect x="697" y="192" width="131" height="36" rx="4" fill="#fff3e0" stroke="#ef6c00" stroke-width="1.1" /></g>
  <text x="762" y="209" text-anchor="middle" font-size="16" font-weight="700" fill="#bf360c">~</text>
  <text x="762" y="222" text-anchor="middle" font-size="9" fill="#bf360c">один бэкенд</text>
  <g filter="url(#dsm)"><rect x="832" y="192" width="131" height="36" rx="4" fill="#c8e6c9" stroke="#2e7d32" stroke-width="1.1" /></g>
  <text x="897" y="209" text-anchor="middle" font-size="16" font-weight="700" fill="#1b5e20">✓</text>
  <text x="897" y="222" text-anchor="middle" font-size="9" fill="#1b5e20">переключатель конфигурации</text>
  <g filter="url(#dsm)"><rect x="967" y="192" width="131" height="36" rx="4" fill="#ffcdd2" stroke="#c62828" stroke-width="1.1" /></g>
  <text x="1032" y="216" text-anchor="middle" font-size="18" font-weight="700" fill="#b71c1c">✗</text>

  <!-- ===================== Row 4: On GCP (y=232) ===================== -->
  <text x="30" y="255" font-size="12" font-weight="600" fill="#263238">Уже на GCP: минимизация операционных затрат</text>
  <g filter="url(#dsm)"><rect x="292" y="232" width="131" height="36" rx="4" fill="#c8e6c9" stroke="#2e7d32" stroke-width="1.1" /></g>
  <text x="357" y="256" text-anchor="middle" font-size="18" font-weight="700" fill="#1b5e20">✓</text>
  <g filter="url(#dsm)"><rect x="427" y="232" width="131" height="36" rx="4" fill="#c8e6c9" stroke="#2e7d32" stroke-width="1.1" /></g>
  <text x="492" y="256" text-anchor="middle" font-size="18" font-weight="700" fill="#1b5e20">✓</text>
  <g filter="url(#dsm)"><rect x="562" y="232" width="131" height="36" rx="4" fill="#ffcdd2" stroke="#c62828" stroke-width="1.1" /></g>
  <text x="627" y="256" text-anchor="middle" font-size="18" font-weight="700" fill="#b71c1c">✗</text>
  <g filter="url(#dsm)"><rect x="697" y="232" width="131" height="36" rx="4" fill="#ffcdd2" stroke="#c62828" stroke-width="1.1" /></g>
  <text x="762" y="256" text-anchor="middle" font-size="18" font-weight="700" fill="#b71c1c">✗</text>
  <g filter="url(#dsm)"><rect x="832" y="232" width="131" height="36" rx="4" fill="#c8e6c9" stroke="#2e7d32" stroke-width="1.1" /></g>
  <text x="897" y="256" text-anchor="middle" font-size="18" font-weight="700" fill="#1b5e20">✓</text>
  <g filter="url(#dsm)"><rect x="967" y="232" width="131" height="36" rx="4" fill="#fff3e0" stroke="#ef6c00" stroke-width="1.1" /></g>
  <text x="1032" y="256" text-anchor="middle" font-size="18" font-weight="700" fill="#bf360c">~</text>

  <!-- ===================== Row 5: On AWS + VPC (y=272) ===================== -->
  <text x="30" y="295" font-size="12" font-weight="600" fill="#263238">Уже на AWS, нужно решение в рамках VPC</text>
  <g filter="url(#dsm)"><rect x="292" y="272" width="131" height="36" rx="4" fill="#ffcdd2" stroke="#c62828" stroke-width="1.1" /></g>
  <text x="357" y="296" text-anchor="middle" font-size="18" font-weight="700" fill="#b71c1c">✗</text>
  <g filter="url(#dsm)"><rect x="427" y="272" width="131" height="36" rx="4" fill="#ffcdd2" stroke="#c62828" stroke-width="1.1" /></g>
  <text x="492" y="296" text-anchor="middle" font-size="18" font-weight="700" fill="#b71c1c">✗</text>
  <g filter="url(#dsm)"><rect x="562" y="272" width="131" height="36" rx="4" fill="#c8e6c9" stroke="#2e7d32" stroke-width="1.1" /></g>
  <text x="627" y="296" text-anchor="middle" font-size="18" font-weight="700" fill="#1b5e20">✓</text>
  <g filter="url(#dsm)"><rect x="697" y="272" width="131" height="36" rx="4" fill="#ffcdd2" stroke="#c62828" stroke-width="1.1" /></g>
  <text x="762" y="289" text-anchor="middle" font-size="16" font-weight="700" fill="#b71c1c">✗</text>
  <text x="762" y="302" text-anchor="middle" font-size="9" fill="#b71c1c">без Bedrock</text>
  <g filter="url(#dsm)"><rect x="832" y="272" width="131" height="36" rx="4" fill="#c8e6c9" stroke="#2e7d32" stroke-width="1.1" /></g>
  <text x="897" y="289" text-anchor="middle" font-size="16" font-weight="700" fill="#1b5e20">✓</text>
  <text x="897" y="302" text-anchor="middle" font-size="9" fill="#1b5e20">гибридный</text>
  <g filter="url(#dsm)"><rect x="967" y="272" width="131" height="36" rx="4" fill="#c8e6c9" stroke="#2e7d32" stroke-width="1.1" /></g>
  <text x="1032" y="296" text-anchor="middle" font-size="18" font-weight="700" fill="#1b5e20">✓</text>

  <!-- ===================== Row 6: Zero-infra hosted (y=312) ===================== -->
  <text x="30" y="335" font-size="12" font-weight="600" fill="#263238">Система интеграции, развернутая на платформе Zero-infra</text>
  <g filter="url(#dsm)"><rect x="292" y="312" width="131" height="36" rx="4" fill="#ffcdd2" stroke="#c62828" stroke-width="1.1" /></g>
  <text x="357" y="336" text-anchor="middle" font-size="18" font-weight="700" fill="#b71c1c">✗</text>
  <g filter="url(#dsm)"><rect x="427" y="312" width="131" height="36" rx="4" fill="#ffcdd2" stroke="#c62828" stroke-width="1.1" /></g>
  <text x="492" y="336" text-anchor="middle" font-size="18" font-weight="700" fill="#b71c1c">✗</text>
  <g filter="url(#dsm)"><rect x="562" y="312" width="131" height="36" rx="4" fill="#ffcdd2" stroke="#c62828" stroke-width="1.1" /></g>
  <text x="627" y="336" text-anchor="middle" font-size="18" font-weight="700" fill="#b71c1c">✗</text>
  <g filter="url(#dsm)"><rect x="697" y="312" width="131" height="36" rx="4" fill="#c8e6c9" stroke="#2e7d32" stroke-width="1.1" /></g>
  <text x="762" y="336" text-anchor="middle" font-size="18" font-weight="700" fill="#1b5e20">✓</text>
  <g filter="url(#dsm)"><rect x="832" y="312" width="131" height="36" rx="4" fill="#c8e6c9" stroke="#2e7d32" stroke-width="1.1" /></g>
  <text x="897" y="336" text-anchor="middle" font-size="18" font-weight="700" fill="#1b5e20">✓</text>
  <g filter="url(#dsm)"><rect x="967" y="312" width="131" height="36" rx="4" fill="#ffcdd2" stroke="#c62828" stroke-width="1.1" /></g>
  <text x="1032" y="336" text-anchor="middle" font-size="18" font-weight="700" fill="#b71c1c">✗</text>

  <!-- ===================== Row 7: Need GPU (y=352) ===================== -->
  <text x="30" y="375" font-size="12" font-weight="600" fill="#263238">Требуется GPU</text>
  <g filter="url(#dsm)"><rect x="292" y="352" width="131" height="36" rx="4" fill="#fff3e0" stroke="#ef6c00" stroke-width="1.1" /></g>
  <text x="357" y="369" text-anchor="middle" font-size="16" font-weight="700" fill="#bf360c">~</text>
  <text x="357" y="382" text-anchor="middle" font-size="9" fill="#bf360c">Лимит в 1 час</text>
  <g filter="url(#dsm)"><rect x="427" y="352" width="131" height="36" rx="4" fill="#fff3e0" stroke="#ef6c00" stroke-width="1.1" /></g>
  <text x="492" y="369" text-anchor="middle" font-size="16" font-weight="700" fill="#bf360c">~</text>
  <text x="492" y="382" text-anchor="middle" font-size="9" fill="#bf360c">Лимит в 1 час</text>
  <g filter="url(#dsm)"><rect x="562" y="352" width="131" height="36" rx="4" fill="#c8e6c9" stroke="#2e7d32" stroke-width="1.1" /></g>
  <text x="627" y="376" text-anchor="middle" font-size="18" font-weight="700" fill="#1b5e20">✓</text>
  <g filter="url(#dsm)"><rect x="697" y="352" width="131" height="36" rx="4" fill="#ffcdd2" stroke="#c62828" stroke-width="1.1" /></g>
  <text x="762" y="376" text-anchor="middle" font-size="18" font-weight="700" fill="#b71c1c">✗</text>
  <g filter="url(#dsm)"><rect x="832" y="352" width="131" height="36" rx="4" fill="#c8e6c9" stroke="#2e7d32" stroke-width="1.1" /></g>
  <text x="897" y="369" text-anchor="middle" font-size="16" font-weight="700" fill="#1b5e20">✓</text>
  <text x="897" y="382" text-anchor="middle" font-size="9" fill="#1b5e20">через песочницу</text>
  <g filter="url(#dsm)"><rect x="967" y="352" width="131" height="36" rx="4" fill="#c8e6c9" stroke="#2e7d32" stroke-width="1.1" /></g>
  <text x="1032" y="376" text-anchor="middle" font-size="18" font-weight="700" fill="#1b5e20">✓</text>

  <!-- ===================== Row 8: Lowest lock-in (y=392) ===================== -->
  <text x="30" y="415" font-size="12" font-weight="600" fill="#263238">Минимальная зависимость от поставщика</text>
  <g filter="url(#dsm)"><rect x="292" y="392" width="131" height="36" rx="4" fill="#fff3e0" stroke="#ef6c00" stroke-width="1.1" /></g>
  <text x="357" y="416" text-anchor="middle" font-size="18" font-weight="700" fill="#bf360c">~</text>
  <g filter="url(#dsm)"><rect x="427" y="392" width="131" height="36" rx="4" fill="#fff3e0" stroke="#ef6c00" stroke-width="1.1" /></g>
  <text x="492" y="416" text-anchor="middle" font-size="18" font-weight="700" fill="#bf360c">~</text>
  <g filter="url(#dsm)"><rect x="562" y="392" width="131" height="36" rx="4" fill="#c8e6c9" stroke="#2e7d32" stroke-width="1.1" /></g>
  <text x="627" y="416" text-anchor="middle" font-size="18" font-weight="700" fill="#1b5e20">✓</text>
  <g filter="url(#dsm)"><rect x="697" y="392" width="131" height="36" rx="4" fill="#ffcdd2" stroke="#c62828" stroke-width="1.1" /></g>
  <text x="762" y="416" text-anchor="middle" font-size="18" font-weight="700" fill="#b71c1c">✗</text>
  <g filter="url(#dsm)"><rect x="832" y="392" width="131" height="36" rx="4" fill="#c8e6c9" stroke="#2e7d32" stroke-width="1.1" /></g>
  <text x="897" y="409" text-anchor="middle" font-size="16" font-weight="700" fill="#1b5e20">✓</text>
  <text x="897" y="422" text-anchor="middle" font-size="9" fill="#1b5e20">MIT</text>
  <g filter="url(#dsm)"><rect x="967" y="392" width="131" height="36" rx="4" fill="#c8e6c9" stroke="#2e7d32" stroke-width="1.1" /></g>
  <text x="1032" y="416" text-anchor="middle" font-size="18" font-weight="700" fill="#1b5e20">✓</text>

  <!-- Legend -->
  <g font-size="11" fill="#37474f">
    <rect x="290" y="468" width="22" height="22" rx="4" fill="#c8e6c9" stroke="#2e7d32" stroke-width="1.1" />
    <text x="301" y="484" text-anchor="middle" font-size="14" font-weight="700" fill="#1b5e20">✓</text>
    <text x="322" y="484">поддерживается</text>

    <rect x="440" y="468" width="22" height="22" rx="4" fill="#fff3e0" stroke="#ef6c00" stroke-width="1.1" />
    <text x="451" y="484" text-anchor="middle" font-size="14" font-weight="700" fill="#bf360c">~</text>
    <text x="472" y="484">поддерживается с оговорками</text>

    <rect x="660" y="468" width="22" height="22" rx="4" fill="#ffcdd2" stroke="#c62828" stroke-width="1.1" />
    <text x="671" y="484" text-anchor="middle" font-size="14" font-weight="700" fill="#b71c1c">✗</text>
    <text x="692" y="484">не подходит</text>
  </g>

  <!-- Footer note -->
  <text x="570" y="520" text-anchor="middle" font-size="11" fill="#546e7a" font-style="italic">Ограничения и замечания взяты из описания каждой формы в разделе «Одиннадцать форм развертывания».</text>
</svg>
