<svg xmlns="http://www.w3.org/2000/svg" viewBox="0 0 1140 640" font-family="Inter, system-ui, sans-serif" role="img" aria-label="Where each primitive lives in each deployment shape" data-visual-system="evidence-plate-v1" preserveAspectRatio="xMidYMid meet" shape-rendering="geometricPrecision" text-rendering="geometricPrecision">
  <title id="artifact-title">Местоположение каждой примитивной фигуры внутри соответствующей деплой формы</title>
  <defs>
    <filter id="ds4" x="-10%" y="-10%" width="120%" height="120%">
      <feDropShadow dx="0" dy="2" stdDeviation="2" flood-color="#334155" flood-opacity="0.08" />
    </filter>
  </defs>
  <style data-visual-system="evidence-plate-v1">
    * { animation: none !important; }
    .anim-box, .bar, .bar-text, .seq-item, .t-box, .flow { opacity: 1 !important; transform: none !important; }
    path, line, polyline { stroke-linecap: round; stroke-linejoin: round; }
  </style>

  <rect width="1140" height="640" fill="#f8fafc" />

  <!-- Title -->
  <text y="32" text-anchor="middle" font-size="20" font-weight="700" fill="#0f172a" x="570">Местоположение каждой примитивной фигуры внутри соответствующей деплой формы</text>
  <text y="54" text-anchor="middle" font-size="12" fill="#334155" x="570">Зеленый цвет — форма предоставляет этот примитив. Серый цвет — подключение осуществляется извне. Красный цвет — не применимо.</text>

  <!-- Column headers -->
  <g font-size="11" font-weight="700" letter-spacing="0.6" fill="#334155" text-anchor="middle">
    <text y="96" x="140">Форма</text>
    <text y="96" x="370">Харнесс</text>
    <text y="96" x="585">Сэндбокс</text>
    <text y="96" x="800">Сессия + Чекпоинт</text>
    <text y="96" x="1015">Трейс</text>
  </g>
  <line x1="20" y1="106" x2="1120" y2="106" stroke="#2563eb" stroke-width="1" />

  <!-- Row 1: SDK in app server (y_rect=118, y_text=140) -->
  <text y="140" font-size="13" font-weight="600" fill="#0f172a" x="30">1. SDK в сервере приложения</text>
  <g filter="url(#ds4)">
    <rect x="265" y="118" width="210" height="34" rx="6" fill="#f0fdf4" stroke="#166534" stroke-width="1.2" />
    <rect x="480" y="118" width="210" height="34" rx="6" fill="#f0fdf4" stroke="#166534" stroke-width="1.2" />
    <rect x="695" y="118" width="210" height="34" rx="6" fill="#f0fdf4" stroke="#166534" stroke-width="1.2" />
    <rect x="910" y="118" width="210" height="34" rx="6" fill="#eff6ff" stroke="#2563eb" stroke-width="1.2" />
  </g>
  <g font-size="12" text-anchor="middle">
    <text y="140" fill="#166534" x="370">веб-процесс</text>
    <text y="140" fill="#166534" x="585">веб-процесс</text>
    <text y="140" fill="#166534" x="800">память процесса</text>
    <text y="140" fill="#1d4ed8" x="1015">веб-логи</text>
  </g>

  <!-- Row 2: Queue + worker + DB (y_rect=162, y_text=184) -->
  <text y="184" font-size="13" font-weight="600" fill="#0f172a" x="30">2. Очередь + рабочий процесс + БД</text>
  <g filter="url(#ds4)">
    <rect x="265" y="162" width="210" height="34" rx="6" fill="#f0fdf4" stroke="#166534" stroke-width="1.2" />
    <rect x="480" y="162" width="210" height="34" rx="6" fill="#f0fdf4" stroke="#166534" stroke-width="1.2" />
    <rect x="695" y="162" width="210" height="34" rx="6" fill="#f0fdf4" stroke="#166534" stroke-width="1.2" />
    <rect x="910" y="162" width="210" height="34" rx="6" fill="#eff6ff" stroke="#2563eb" stroke-width="1.2" />
  </g>
  <g font-size="12" text-anchor="middle">
    <text y="184" fill="#166534" x="370">рабочий процесс</text>
    <text y="184" fill="#166534" x="585">контейнер + монтирование</text>
    <text y="184" fill="#166534" x="800">Postgres</text>
    <text y="184" fill="#1d4ed8" x="1015">стек OTel</text>
  </g>

  <!-- Row 3: Durable workflow (y_rect=206, y_text=228) -->
  <text y="228" font-size="13" font-weight="600" fill="#0f172a" x="30">3. Надежный рабочий процесс</text>
  <g filter="url(#ds4)">
    <rect x="265" y="206" width="210" height="34" rx="6" fill="#f0fdf4" stroke="#166534" stroke-width="1.2" />
    <rect x="480" y="206" width="210" height="34" rx="6" fill="#eff6ff" stroke="#2563eb" stroke-width="1.2" />
    <rect x="695" y="206" width="210" height="34" rx="6" fill="#f0fdf4" stroke="#166534" stroke-width="1.2" />
    <rect x="910" y="206" width="210" height="34" rx="6" fill="#f0fdf4" stroke="#166534" stroke-width="1.2" />
  </g>
  <g font-size="12" text-anchor="middle">
    <text y="228" fill="#166534" x="370">код рабочего процесса</text>
    <text y="228" fill="#1d4ed8" x="585">внешняя (активность)</text>
    <text y="228" fill="#166534" x="800">Журнал временных событий</text>
    <text y="228" fill="#166534" x="1015">Временной интерфейс пользователя + OTel</text>
  </g>

  <!-- Row 4: Sandbox provider per session (y_rect=250, y_text=272) -->
  <text y="272" font-size="13" font-weight="600" fill="#0f172a" x="30">4. Провайдер Сэндбокс в рамках сессия</text>
  <g filter="url(#ds4)">
    <rect x="265" y="250" width="210" height="34" rx="6" fill="#eff6ff" stroke="#2563eb" stroke-width="1.2" />
    <rect x="480" y="250" width="210" height="34" rx="6" fill="#f0fdf4" stroke="#166534" stroke-width="1.2" />
    <rect x="695" y="250" width="210" height="34" rx="6" fill="#eff6ff" stroke="#2563eb" stroke-width="1.2" />
    <rect x="910" y="250" width="210" height="34" rx="6" fill="#eff6ff" stroke="#2563eb" stroke-width="1.2" />
  </g>
  <g font-size="12" text-anchor="middle">
    <text y="272" fill="#1d4ed8" x="370">ваш</text>
    <text y="272" fill="#166534" font-weight="700" x="585">провайдер</text>
    <text y="272" fill="#1d4ed8" x="800">ваш</text>
    <text y="272" fill="#1d4ed8" x="1015">ваш</text>
  </g>

  <!-- Row 5: Managed Agents (y_rect=294, y_text=316) -->
  <text y="316" font-size="13" font-weight="600" fill="#0f172a" x="30">5. Управляемые агенты с антропоцентрическим подходом</text>
  <g filter="url(#ds4)">
    <rect x="265" y="294" width="210" height="34" rx="6" fill="#f0fdf4" stroke="#166534" stroke-width="1.2" />
    <rect x="480" y="294" width="210" height="34" rx="6" fill="#f0fdf4" stroke="#166534" stroke-width="1.2" />
    <rect x="695" y="294" width="210" height="34" rx="6" fill="#f0fdf4" stroke="#166534" stroke-width="1.2" />
    <rect x="910" y="294" width="210" height="34" rx="6" fill="#f0fdf4" stroke="#166534" stroke-width="1.2" />
  </g>
  <g font-size="12" text-anchor="middle" font-weight="700">
    <text y="316" fill="#166534" x="370">Anthropic</text>
    <text y="316" fill="#166534" x="585">Anthropic</text>
    <text y="316" fill="#166534" x="800">Anthropic</text>
    <text y="316" fill="#166534" x="1015">Anthropic</text>
  </g>

  <!-- Row 6: Deep Agents Deploy (y_rect=338, y_text=360) -->
  <text y="360" font-size="13" font-weight="600" fill="#0f172a" x="30">6. Развертывание глубоких агентов</text>
  <g filter="url(#ds4)">
    <rect x="265" y="338" width="210" height="34" rx="6" fill="#f0fdf4" stroke="#166534" stroke-width="1.2" />
    <rect x="480" y="338" width="210" height="34" rx="6" fill="#f0fdf4" stroke="#166534" stroke-width="1.2" />
    <rect x="695" y="338" width="210" height="34" rx="6" fill="#f0fdf4" stroke="#166534" stroke-width="1.2" />
    <rect x="910" y="338" width="210" height="34" rx="6" fill="#f0fdf4" stroke="#166534" stroke-width="1.2" />
  </g>
  <g font-size="12" text-anchor="middle">
    <text y="360" fill="#166534" x="370">размещаемый (заменяемый)</text>
    <text y="360" fill="#166534" x="585">размещаемый (заменяемый)</text>
    <text y="360" fill="#166534" x="800">размещаемый (заменяемый)</text>
    <text y="360" fill="#166534" x="1015">LangSmith</text>
  </g>

  <!-- Row 7: Cloud Run (y_rect=382, y_text=404) -->
  <text y="404" font-size="13" font-weight="600" fill="#0f172a" x="30">7. Cloud Run</text>
  <g filter="url(#ds4)">
    <rect x="265" y="382" width="210" height="34" rx="6" fill="#f0fdf4" stroke="#166534" stroke-width="1.2" />
    <rect x="480" y="382" width="210" height="34" rx="6" fill="#eff6ff" stroke="#2563eb" stroke-width="1.2" />
    <rect x="695" y="382" width="210" height="34" rx="6" fill="#eff6ff" stroke="#2563eb" stroke-width="1.2" />
    <rect x="910" y="382" width="210" height="34" rx="6" fill="#eff6ff" stroke="#2563eb" stroke-width="1.2" />
  </g>
  <g font-size="12" text-anchor="middle">
    <text y="404" fill="#166534" x="370">Cloud Run</text>
    <text y="404" fill="#1d4ed8" x="585">контейнер</text>
    <text y="404" fill="#1d4ed8" x="800">внешняя БД</text>
    <text y="404" fill="#1d4ed8" x="1015">логи + OTel</text>
  </g>

  <!-- Row 8: Lambda (y_rect=426, y_text=448) -->
  <text y="448" font-size="13" font-weight="600" fill="#0f172a" x="30">8. Lambda-функция</text>
  <g filter="url(#ds4)">
    <rect x="265" y="426" width="210" height="34" rx="6" fill="#fef2f2" stroke="#dc2626" stroke-width="1.2" />
    <rect x="480" y="426" width="210" height="34" rx="6" fill="#f0fdf4" stroke="#166534" stroke-width="1.2" />
    <rect x="695" y="426" width="210" height="34" rx="6" fill="#eff6ff" stroke="#2563eb" stroke-width="1.2" />
    <rect x="910" y="426" width="210" height="34" rx="6" fill="#eff6ff" stroke="#2563eb" stroke-width="1.2" />
  </g>
  <g font-size="12" text-anchor="middle">
    <text y="448" fill="#991b1b" font-weight="700" x="370">н/д (лимит 15 минут)</text>
    <text y="448" fill="#166534" x="585">функция</text>
    <text y="448" fill="#1d4ed8" x="800">внешний</text>
    <text y="448" fill="#1d4ed8" x="1015">CloudWatch</text>
  </g>

  <!-- Row 9: Fargate (y_rect=470, y_text=492) -->
  <text y="492" font-size="13" font-weight="600" fill="#0f172a" x="30">9. Fargate</text>
  <g filter="url(#ds4)">
    <rect x="265" y="470" width="210" height="34" rx="6" fill="#f0fdf4" stroke="#166534" stroke-width="1.2" />
    <rect x="480" y="470" width="210" height="34" rx="6" fill="#f0fdf4" stroke="#166534" stroke-width="1.2" />
    <rect x="695" y="470" width="210" height="34" rx="6" fill="#eff6ff" stroke="#2563eb" stroke-width="1.2" />
    <rect x="910" y="470" width="210" height="34" rx="6" fill="#eff6ff" stroke="#2563eb" stroke-width="1.2" />
  </g>
  <g font-size="12" text-anchor="middle">
    <text y="492" fill="#166534" x="370">задача Fargate</text>
    <text y="492" fill="#166534" x="585">задача Fargate</text>
    <text y="492" fill="#1d4ed8" x="800">внешняя БД</text>
    <text y="492" fill="#1d4ed8" x="1015">CloudWatch и OTel</text>
  </g>

  <!-- Row 10: K8s Job (y_rect=514, y_text=536) -->
  <text y="536" font-size="13" font-weight="600" fill="#0f172a" x="30">10. Задача K8s</text>
  <g filter="url(#ds4)">
    <rect x="265" y="514" width="210" height="34" rx="6" fill="#f0fdf4" stroke="#166534" stroke-width="1.2" />
    <rect x="480" y="514" width="210" height="34" rx="6" fill="#f0fdf4" stroke="#166534" stroke-width="1.2" />
    <rect x="695" y="514" width="210" height="34" rx="6" fill="#eff6ff" stroke="#2563eb" stroke-width="1.2" />
    <rect x="910" y="514" width="210" height="34" rx="6" fill="#eff6ff" stroke="#2563eb" stroke-width="1.2" />
  </g>
  <g font-size="12" text-anchor="middle">
    <text y="536" fill="#166534" x="370">контейнер</text>
    <text y="536" fill="#166534" x="585">контейнер</text>
    <text y="536" fill="#1d4ed8" x="800">внешняя БД или PVC</text>
    <text y="536" fill="#1d4ed8" x="1015">внутри кластера</text>
  </g>

  <!-- Row 11: Docker Compose (dev) (y_rect=558, y_text=580) -->
  <text y="580" font-size="13" font-weight="600" fill="#0f172a" x="30">11. Docker Compose (разработка)</text>
  <g filter="url(#ds4)">
    <rect x="265" y="558" width="210" height="34" rx="6" fill="#f0fdf4" stroke="#166534" stroke-width="1.2" />
    <rect x="480" y="558" width="210" height="34" rx="6" fill="#f0fdf4" stroke="#166534" stroke-width="1.2" />
    <rect x="695" y="558" width="210" height="34" rx="6" fill="#f0fdf4" stroke="#166534" stroke-width="1.2" />
    <rect x="910" y="558" width="210" height="34" rx="6" fill="#eff6ff" stroke="#2563eb" stroke-width="1.2" />
  </g>
  <g font-size="12" text-anchor="middle">
    <text y="580" fill="#166534" x="370">контейнер рабочего процесса</text>
    <text y="580" fill="#166534" x="585">монтирование рабочей среды</text>
    <text y="580" fill="#166534" x="800">Postgres</text>
    <text y="580" fill="#1d4ed8" x="1015">стек OTel</text>
  </g>

  <!-- Legend -->
  <g font-size="11" fill="#334155">
    <rect x="280" y="612" width="18" height="14" rx="3" fill="#f0fdf4" stroke="#166534" stroke-width="1" />
    <text y="623" x="305">форма предоставляет</text>
    <rect x="450" y="612" width="18" height="14" rx="3" fill="#eff6ff" stroke="#2563eb" stroke-width="1" />
    <text y="623" x="475">подключение осуществляется снаружи</text>
    <rect x="635" y="612" width="18" height="14" rx="3" fill="#fef2f2" stroke="#dc2626" stroke-width="1" />
    <text y="623" x="660">не применимо</text>
  </g>
</svg>
