<svg xmlns="http://www.w3.org/2000/svg" viewBox="0 0 720 860" role="img" preserveAspectRatio="xMidYMid meet" data-visual-system="byte-diagram-v2" data-direction="B" data-theme="dark" aria-labelledby="infstack-title infstack-desc" shape-rendering="geometricPrecision" text-rendering="geometricPrecision">
<title id="infstack-title">Las decisiones sobre kernels, memoria, scheduling, caching, speculation y paralelismo se seleccionan en función de un único cuello de botella de hardware medido.</title><desc id="infstack-desc">Cada capa de optimización aborda una restricción distinta: la fusión de kernels y la cuantización cambian lo que la GPU calcula y almacena; PagedAttention y el continuous batching cambian cómo se gestionan la memoria y el scheduling; el prefix caching y la speculative decoding cambian cuánto trabajo redundante se ejecuta; y el paralelismo cambia cómo se reparte el trabajo entre GPUs. Todas se evalúan frente al mismo cuello de botella de hardware medido y a los objetivos de calidad, latencia y coste de la aplicación.</desc>
<style data-visual-system="byte-diagram-v2">* { animation: none !important; }</style>
<defs><marker id="infstack-arrow-flow" viewBox="0 0 10 10" refX="8" refY="5" markerWidth="9" markerHeight="9" orient="auto-start-reverse"><path d="M0 0 10 5 0 10Z" fill="#EDF5F0" /></marker><marker id="infstack-arrow-fail" viewBox="0 0 10 10" refX="8" refY="5" markerWidth="9" markerHeight="9" orient="auto-start-reverse"><path d="M0 0 10 5 0 10Z" fill="#FF6FB6" /></marker></defs>
<rect width="720" height="860" rx="14" fill="#0C1210" />
<text x="32" y="56" font-family="Space Grotesk, IBM Plex Sans, ui-sans-serif, system-ui, sans-serif" font-size="20" font-weight="700" fill="#EDF5F0" style="font-size: 17.5px;">Las optimizaciones de inferencia se apilan sobre un único cuello de botella medido</text>
<text x="32" y="80" font-family="IBM Plex Sans, ui-sans-serif, system-ui, sans-serif" font-size="14" font-weight="400" fill="#A8B8AF" style="font-size: 12px;">Cada capa se puede seleccionar de forma independiente: elígela porque aborda la restricción que realmente has medido.</text>
<path d="M42 128h636a10 10 0 0 1 10 10v84a10 10 0 0 1 -10 10h-636a10 10 0 0 1 -10 -10v-84a10 10 0 0 1 10 -10Z" fill="#141D19" stroke="#EDF5F0" stroke-width="1.5" /><path d="M42 128h636a10 10 0 0 1 10 10v16a0 0 0 0 1 -0 0h-656a0 0 0 0 1 -0 -0v-16a10 10 0 0 1 10 -10Z" fill="#EDF5F0" /><text x="46" y="145.5" font-family="IBM Plex Mono, ui-monospace, SFMono-Regular, Menlo, monospace" font-size="12" font-weight="600" fill="#0C1210" letter-spacing="1.2">APLICACIÓN</text><text x="46" y="189" font-family="Space Grotesk, IBM Plex Sans, ui-sans-serif, system-ui, sans-serif" font-size="18" font-weight="600" fill="#EDF5F0">Routing, límites, monitorización</text><text x="46" y="211" font-family="IBM Plex Sans, ui-sans-serif, system-ui, sans-serif" font-size="14" font-weight="400" fill="#A8B8AF">Combina solo después de medir los efectos</text>
<path d="M42 256h188a10 10 0 0 1 10 10v84a10 10 0 0 1 -10 10h-188a10 10 0 0 1 -10 -10v-84a10 10 0 0 1 10 -10Z" fill="#141D19" stroke="#EDF5F0" stroke-width="1.5" /><path d="M42 256h188a10 10 0 0 1 10 10v16a0 0 0 0 1 -0 0h-208a0 0 0 0 1 -0 -0v-16a10 10 0 0 1 10 -10Z" fill="#EDF5F0" /><text x="46" y="273.5" font-family="IBM Plex Mono, ui-monospace, SFMono-Regular, Menlo, monospace" font-size="12" font-weight="600" fill="#0C1210" letter-spacing="1.2">CACHING</text><text x="46" y="317" font-family="Space Grotesk, IBM Plex Sans, ui-sans-serif, system-ui, sans-serif" font-size="18" font-weight="600" fill="#EDF5F0">Prefix cache</text><text x="46" y="339" font-family="IBM Plex Sans, ui-sans-serif, system-ui, sans-serif" font-size="14" font-weight="400" fill="#A8B8AF">Mide la tasa de aciertos</text>
<path d="M266 256h188a10 10 0 0 1 10 10v84a10 10 0 0 1 -10 10h-188a10 10 0 0 1 -10 -10v-84a10 10 0 0 1 10 -10Z" fill="#141D19" stroke="#EDF5F0" stroke-width="1.5" /><path d="M266 256h188a10 10 0 0 1 10 10v16a0 0 0 0 1 -0 0h-208a0 0 0 0 1 -0 -0v-16a10 10 0 0 1 10 -10Z" fill="#EDF5F0" /><text x="270" y="273.5" font-family="IBM Plex Mono, ui-monospace, SFMono-Regular, Menlo, monospace" font-size="12" font-weight="600" fill="#0C1210" letter-spacing="1.2">SPECULATION</text><text x="270" y="317" font-family="Space Grotesk, IBM Plex Sans, ui-sans-serif, system-ui, sans-serif" font-size="18" font-weight="600" fill="#EDF5F0">Draft + verify</text><text x="270" y="339" font-family="IBM Plex Sans, ui-sans-serif, system-ui, sans-serif" font-size="14" font-weight="400" fill="#A8B8AF">Requiere una aceptación alta</text>
<path d="M490 256h188a10 10 0 0 1 10 10v84a10 10 0 0 1 -10 10h-188a10 10 0 0 1 -10 -10v-84a10 10 0 0 1 10 -10Z" fill="#141D19" stroke="#EDF5F0" stroke-width="1.5" /><path d="M490 256h188a10 10 0 0 1 10 10v16a0 0 0 0 1 -0 0h-208a0 0 0 0 1 -0 -0v-16a10 10 0 0 1 10 -10Z" fill="#EDF5F0" /><text x="494" y="273.5" font-family="IBM Plex Mono, ui-monospace, SFMono-Regular, Menlo, monospace" font-size="12" font-weight="600" fill="#0C1210" letter-spacing="1.2">PARALELISMO</text><text x="494" y="317" font-family="Space Grotesk, IBM Plex Sans, ui-sans-serif, system-ui, sans-serif" font-size="18" font-weight="600" fill="#EDF5F0">TP / PP / DP / EP</text><text x="494" y="339" font-family="IBM Plex Sans, ui-sans-serif, system-ui, sans-serif" font-size="14" font-weight="400" fill="#A8B8AF">Elige el grado según el clúster</text>
<path d="M42 384h300a10 10 0 0 1 10 10v84a10 10 0 0 1 -10 10h-300a10 10 0 0 1 -10 -10v-84a10 10 0 0 1 10 -10Z" fill="#141D19" stroke="#EDF5F0" stroke-width="1.5" /><path d="M42 384h300a10 10 0 0 1 10 10v16a0 0 0 0 1 -0 0h-320a0 0 0 0 1 -0 -0v-16a10 10 0 0 1 10 -10Z" fill="#EDF5F0" /><text x="46" y="401.5" font-family="IBM Plex Mono, ui-monospace, SFMono-Regular, Menlo, monospace" font-size="12" font-weight="600" fill="#0C1210" letter-spacing="1.2">MEMORIA</text><text x="46" y="445" font-family="Space Grotesk, IBM Plex Sans, ui-sans-serif, system-ui, sans-serif" font-size="18" font-weight="600" fill="#EDF5F0">PagedAttention, GQA/MQA</text><text x="46" y="467" font-family="IBM Plex Sans, ui-sans-serif, system-ui, sans-serif" font-size="14" font-weight="400" fill="#A8B8AF"><tspan x="46">&lt;4 % de desperdicio frente a un 60–80 %</tspan><tspan x="46" dy="1.2em">fragmentado</tspan></text>
<path d="M378 384h300a10 10 0 0 1 10 10v84a10 10 0 0 1 -10 10h-300a10 10 0 0 1 -10 -10v-84a10 10 0 0 1 10 -10Z" fill="#141D19" stroke="#EDF5F0" stroke-width="1.5" /><path d="M378 384h300a10 10 0 0 1 10 10v16a0 0 0 0 1 -0 0h-320a0 0 0 0 1 -0 -0v-16a10 10 0 0 1 10 -10Z" fill="#EDF5F0" /><text x="382" y="401.5" font-family="IBM Plex Mono, ui-monospace, SFMono-Regular, Menlo, monospace" font-size="12" font-weight="600" fill="#0C1210" letter-spacing="1.2">SCHEDULING</text><text x="382" y="445" font-family="Space Grotesk, IBM Plex Sans, ui-sans-serif, system-ui, sans-serif" font-size="18" font-weight="600" fill="#EDF5F0">Continuous batching</text><text x="382" y="467" font-family="IBM Plex Sans, ui-sans-serif, system-ui, sans-serif" font-size="14" font-weight="400" fill="#A8B8AF"><tspan x="382">+ chunked prefill; ajusta para maximizar el</tspan><tspan x="382" dy="1.2em">goodput</tspan></text>
<path d="M42 512h300a10 10 0 0 1 10 10v84a10 10 0 0 1 -10 10h-300a10 10 0 0 1 -10 -10v-84a10 10 0 0 1 10 -10Z" fill="#141D19" stroke="#EDF5F0" stroke-width="1.5" /><path d="M42 512h300a10 10 0 0 1 10 10v16a0 0 0 0 1 -0 0h-320a0 0 0 0 1 -0 -0v-16a10 10 0 0 1 10 -10Z" fill="#EDF5F0" /><text x="46" y="529.5" font-family="IBM Plex Mono, ui-monospace, SFMono-Regular, Menlo, monospace" font-size="12" font-weight="600" fill="#0C1210" letter-spacing="1.2">KERNEL</text><text x="46" y="573" font-family="Space Grotesk, IBM Plex Sans, ui-sans-serif, system-ui, sans-serif" font-size="18" font-weight="600" fill="#EDF5F0">FlashAttention, kernels fusionados</text><text x="46" y="595" font-family="IBM Plex Sans, ui-sans-serif, system-ui, sans-serif" font-size="14" font-weight="400" fill="#A8B8AF">Perfila el grafo desplegado</text>
<path d="M378 512h300a10 10 0 0 1 10 10v84a10 10 0 0 1 -10 10h-300a10 10 0 0 1 -10 -10v-84a10 10 0 0 1 10 -10Z" fill="#141D19" stroke="#EDF5F0" stroke-width="1.5" /><path d="M378 512h300a10 10 0 0 1 10 10v16a0 0 0 0 1 -0 0h-320a0 0 0 0 1 -0 -0v-16a10 10 0 0 1 10 -10Z" fill="#EDF5F0" /><text x="382" y="529.5" font-family="IBM Plex Mono, ui-monospace, SFMono-Regular, Menlo, monospace" font-size="12" font-weight="600" fill="#0C1210" letter-spacing="1.2">CUANTIZACIÓN</text><text x="382" y="573" font-family="Space Grotesk, IBM Plex Sans, ui-sans-serif, system-ui, sans-serif" font-size="18" font-weight="600" fill="#EDF5F0">FP8 / INT8 / INT4</text><text x="382" y="595" font-family="IBM Plex Sans, ui-sans-serif, system-ui, sans-serif" font-size="14" font-weight="400" fill="#A8B8AF">La calidad del kernel puede importar tanto</text>
<path d="M42 640h636a10 10 0 0 1 10 10v84a10 10 0 0 1 -10 10h-636a10 10 0 0 1 -10 -10v-84a10 10 0 0 1 10 -10Z" fill="#2B1622" stroke="#FF6FB6" stroke-width="2.5" /><path d="M42 640h636a10 10 0 0 1 10 10v16a0 0 0 0 1 -0 0h-656a0 0 0 0 1 -0 -0v-16a10 10 0 0 1 10 -10Z" fill="#FF6FB6" /><text x="46" y="657.5" font-family="IBM Plex Mono, ui-monospace, SFMono-Regular, Menlo, monospace" font-size="12" font-weight="600" fill="#0C1210" letter-spacing="1.2">FOCO · HARDWARE</text><text x="46" y="701" font-family="Space Grotesk, IBM Plex Sans, ui-sans-serif, system-ui, sans-serif" font-size="18" font-weight="600" fill="#EDF5F0">Cuello de botella medido de cómputo, memoria o interconexión</text><text x="46" y="723" font-family="IBM Plex Sans, ui-sans-serif, system-ui, sans-serif" font-size="14" font-weight="400" fill="#A8B8AF">Cada capa superior se elige en función de esta medición</text>
<path d="M32 780h656" stroke="#2B3B33" stroke-width="1" />
<text x="32" y="806" font-family="IBM Plex Sans, ui-sans-serif, system-ui, sans-serif" font-size="14" font-weight="400" fill="#A8B8AF" style="font-size: 13px;">Combina técnicas solo después de confirmar que cada una modifica la métrica que realmente te estaba limitando.</text>
<text x="32" y="828" font-family="IBM Plex Sans, ui-sans-serif, system-ui, sans-serif" font-size="14" font-weight="400" fill="#A8B8AF"><tspan x="32">El cuello de botella de hardware —cómputo, ancho de banda de memoria o interconexión— es la referencia</tspan><tspan x="32" dy="1.2em">frente a la que se mide cada capa superior.</tspan></text>
</svg>
