<svg xmlns="http://www.w3.org/2000/svg" viewBox="0 0 900 520" font-family="system-ui, -apple-system, sans-serif">
  <defs>
    <marker id="arrow1" markerWidth="10" markerHeight="7" refX="9" refY="3.5" orient="auto">
      <polygon points="0 0, 10 3.5, 0 7" fill="#1565c0"/>
    </marker>
    <marker id="arrow2" markerWidth="10" markerHeight="7" refX="9" refY="3.5" orient="auto">
      <polygon points="0 0, 10 3.5, 0 7" fill="#2e7d32"/>
    </marker>
  </defs>

  <!-- Title -->
  <text x="450" y="30" text-anchor="middle" font-size="18" font-weight="bold" fill="#1a1a1a">GLiNER Architecture: Span-Entity Matching in Latent Space</text>

  <!-- Input tokens -->
  <rect x="30" y="55" width="840" height="50" rx="6" fill="#e3f2fd" stroke="#1565c0" stroke-width="1.5"/>
  <text x="450" y="72" text-anchor="middle" font-size="11" fill="#666">Input Sequence</text>

  <!-- Individual tokens -->
  <rect x="45" y="75" width="55" height="24" rx="4" fill="#9b59b6" stroke="#6a1b9a" stroke-width="1"/>
  <text x="72" y="91" text-anchor="middle" font-size="10" fill="white" font-weight="bold">[ENT]</text>

  <rect x="105" y="75" width="55" height="24" rx="4" fill="#f3e5f5" stroke="#6a1b9a" stroke-width="1"/>
  <text x="132" y="91" text-anchor="middle" font-size="10" fill="#4a148c">person</text>

  <rect x="165" y="75" width="55" height="24" rx="4" fill="#9b59b6" stroke="#6a1b9a" stroke-width="1"/>
  <text x="192" y="91" text-anchor="middle" font-size="10" fill="white" font-weight="bold">[ENT]</text>

  <rect x="225" y="75" width="55" height="24" rx="4" fill="#f3e5f5" stroke="#6a1b9a" stroke-width="1"/>
  <text x="252" y="91" text-anchor="middle" font-size="10" fill="#4a148c">org</text>

  <rect x="285" y="75" width="55" height="24" rx="4" fill="#9b59b6" stroke="#6a1b9a" stroke-width="1"/>
  <text x="312" y="91" text-anchor="middle" font-size="10" fill="white" font-weight="bold">[ENT]</text>

  <rect x="345" y="75" width="55" height="24" rx="4" fill="#f3e5f5" stroke="#6a1b9a" stroke-width="1"/>
  <text x="372" y="91" text-anchor="middle" font-size="10" fill="#4a148c">date</text>

  <rect x="405" y="75" width="55" height="24" rx="4" fill="#1565c0" stroke="#0d47a1" stroke-width="1"/>
  <text x="432" y="91" text-anchor="middle" font-size="10" fill="white" font-weight="bold">[SEP]</text>

  <rect x="465" y="75" width="45" height="24" rx="4" fill="#e3f2fd" stroke="#1565c0" stroke-width="1"/>
  <text x="487" y="91" text-anchor="middle" font-size="10" fill="#1565c0">Bill</text>

  <rect x="515" y="75" width="50" height="24" rx="4" fill="#e3f2fd" stroke="#1565c0" stroke-width="1"/>
  <text x="540" y="91" text-anchor="middle" font-size="10" fill="#1565c0">Gates</text>

  <rect x="570" y="75" width="65" height="24" rx="4" fill="#e3f2fd" stroke="#1565c0" stroke-width="1"/>
  <text x="602" y="91" text-anchor="middle" font-size="10" fill="#1565c0">founded</text>

  <rect x="640" y="75" width="70" height="24" rx="4" fill="#e3f2fd" stroke="#1565c0" stroke-width="1"/>
  <text x="675" y="91" text-anchor="middle" font-size="10" fill="#1565c0">Microsoft</text>

  <rect x="715" y="75" width="35" height="24" rx="4" fill="#e3f2fd" stroke="#1565c0" stroke-width="1"/>
  <text x="732" y="91" text-anchor="middle" font-size="10" fill="#1565c0">on</text>

  <rect x="755" y="75" width="100" height="24" rx="4" fill="#e3f2fd" stroke="#1565c0" stroke-width="1"/>
  <text x="805" y="91" text-anchor="middle" font-size="10" fill="#1565c0">April 4, 1975</text>

  <!-- Arrow down to encoder -->
  <line x1="450" y1="110" x2="450" y2="140" stroke="#1565c0" stroke-width="2" marker-end="url(#arrow1)"/>

  <!-- DeBERTa Encoder -->
  <rect x="150" y="145" width="600" height="55" rx="8" fill="#1565c0" stroke="#0d47a1" stroke-width="2"/>
  <text x="450" y="170" text-anchor="middle" font-size="15" fill="white" font-weight="bold">DeBERTa-v3 Bidirectional Transformer</text>
  <text x="450" y="188" text-anchor="middle" font-size="11" fill="#bbdefb">Joint encoding of entity types + text tokens</text>

  <!-- Split arrows -->
  <line x1="300" y1="200" x2="200" y2="240" stroke="#6a1b9a" stroke-width="2" marker-end="url(#arrow1)"/>
  <line x1="600" y1="200" x2="700" y2="240" stroke="#1565c0" stroke-width="2" marker-end="url(#arrow1)"/>

  <!-- Entity Type Representations -->
  <rect x="60" y="245" width="280" height="70" rx="8" fill="#f3e5f5" stroke="#6a1b9a" stroke-width="2"/>
  <text x="200" y="268" text-anchor="middle" font-size="13" font-weight="bold" fill="#4a148c">Entity Type Embeddings</text>
  <text x="200" y="286" text-anchor="middle" font-size="11" fill="#6a1b9a">q_person, q_org, q_date</text>
  <text x="200" y="302" text-anchor="middle" font-size="10" fill="#888">From [ENT] token positions</text>

  <!-- Span Representations -->
  <rect x="560" y="245" width="280" height="70" rx="8" fill="#e3f2fd" stroke="#1565c0" stroke-width="2"/>
  <text x="700" y="268" text-anchor="middle" font-size="13" font-weight="bold" fill="#0d47a1">Span Representations</text>
  <text x="700" y="286" text-anchor="middle" font-size="11" fill="#1565c0">S_ij = FFN(h_i ⊕ h_j)</text>
  <text x="700" y="302" text-anchor="middle" font-size="10" fill="#888">All spans up to width 12</text>

  <!-- Arrows to scoring -->
  <line x1="200" y1="315" x2="350" y2="370" stroke="#6a1b9a" stroke-width="2" marker-end="url(#arrow1)"/>
  <line x1="700" y1="315" x2="550" y2="370" stroke="#1565c0" stroke-width="2" marker-end="url(#arrow1)"/>

  <!-- Dot Product Scoring -->
  <rect x="300" y="370" width="300" height="55" rx="8" fill="#fff3e0" stroke="#e65100" stroke-width="2"/>
  <text x="450" y="393" text-anchor="middle" font-size="13" font-weight="bold" fill="#e65100">Dot-Product Scoring</text>
  <text x="450" y="411" text-anchor="middle" font-size="12" fill="#bf360c">ϕ(i,j,t) = σ(S_ij · q_t)</text>

  <!-- Arrow to output -->
  <line x1="450" y1="425" x2="450" y2="455" stroke="#2e7d32" stroke-width="2" marker-end="url(#arrow2)"/>

  <!-- Output -->
  <rect x="150" y="460" width="600" height="50" rx="8" fill="#e8f5e9" stroke="#2e7d32" stroke-width="2"/>
  <text x="250" y="483" text-anchor="middle" font-size="11" fill="#1b5e20" font-weight="bold">"Bill Gates" → person</text>
  <text x="450" y="483" text-anchor="middle" font-size="11" fill="#1b5e20" font-weight="bold">"Microsoft" → org</text>
  <text x="650" y="483" text-anchor="middle" font-size="11" fill="#1b5e20" font-weight="bold">"April 4, 1975" → date</text>
  <text x="450" y="500" text-anchor="middle" font-size="10" fill="#888">Spans exceeding threshold are output as entities</text>
</svg>
