<svg xmlns="http://www.w3.org/2000/svg" viewBox="0 0 880 520" font-family="system-ui, -apple-system, sans-serif" role="img" aria-label="Three-tier NER architecture that routes explicit spans to encoders, multi-task extraction to GLiNER 2, and reasoning-heavy cases to LLMs">
  <defs>
    <marker id="a1" markerWidth="10" markerHeight="7" refX="9" refY="3.5" orient="auto">
      <polygon points="0 0, 10 3.5, 0 7" fill="#1565c0"/>
    </marker>
    <marker id="a2" markerWidth="10" markerHeight="7" refX="9" refY="3.5" orient="auto">
      <polygon points="0 0, 10 3.5, 0 7" fill="#e65100"/>
    </marker>
    <marker id="a3" markerWidth="10" markerHeight="7" refX="9" refY="3.5" orient="auto">
      <polygon points="0 0, 10 3.5, 0 7" fill="#6a1b9a"/>
    </marker>
  </defs>

  <!-- Title -->
  <text x="440" y="28" text-anchor="middle" font-size="18" font-weight="bold" fill="#1a1a1a">Three-tier production NER architecture</text>

  <!-- Input -->
  <rect x="320" y="48" width="240" height="40" rx="8" fill="#f5f5f5" stroke="#999" stroke-width="1.5"/>
  <text x="440" y="73" text-anchor="middle" font-size="13" font-weight="bold" fill="#333">Incoming documents</text>

  <!-- Router -->
  <line x1="440" y1="88" x2="440" y2="115" stroke="#666" stroke-width="2" marker-end="url(#a1)"/>

  <rect x="330" y="118" width="220" height="40" rx="20" fill="#fff3e0" stroke="#e65100" stroke-width="2"/>
  <text x="440" y="143" text-anchor="middle" font-size="13" font-weight="bold" fill="#e65100">Complexity router</text>

  <!-- Three routing arrows -->
  <line x1="360" y1="158" x2="170" y2="200" stroke="#1565c0" stroke-width="2" marker-end="url(#a1)"/>
  <line x1="440" y1="158" x2="440" y2="200" stroke="#e65100" stroke-width="2" marker-end="url(#a2)"/>
  <line x1="520" y1="158" x2="710" y2="200" stroke="#6a1b9a" stroke-width="2" marker-end="url(#a3)"/>

  <!-- Routing labels -->
  <text x="240" y="182" text-anchor="middle" font-size="11" fill="#1565c0" font-weight="bold">Explicit spans</text>
  <text x="440" y="190" text-anchor="middle" font-size="11" fill="#e65100" font-weight="bold">Multi-task</text>
  <text x="640" y="182" text-anchor="middle" font-size="11" fill="#6a1b9a" font-weight="bold">Inference or mapping</text>

  <!-- Tier 1 -->
  <rect x="30" y="205" width="280" height="185" rx="10" fill="#e3f2fd" stroke="#1565c0" stroke-width="2"/>
  <text x="170" y="228" text-anchor="middle" font-size="14" font-weight="bold" fill="#1565c0">Tier 1: encoder models</text>

  <rect x="50" y="238" width="240" height="28" rx="4" fill="white" stroke="#1565c0" stroke-width="1"/>
  <text x="170" y="257" text-anchor="middle" font-size="11" fill="#1565c0">GLiNER cross-encoder (&lt;30 types)</text>

  <rect x="50" y="272" width="240" height="28" rx="4" fill="white" stroke="#1565c0" stroke-width="1"/>
  <text x="170" y="291" text-anchor="middle" font-size="11" fill="#1565c0">GLiNER bi-encoder (30+ types)</text>

  <rect x="50" y="306" width="240" height="28" rx="4" fill="white" stroke="#1565c0" stroke-width="1"/>
  <text x="170" y="325" text-anchor="middle" font-size="11" fill="#1565c0">ONNX + INT8 / gline-rs</text>

  <rect x="50" y="348" width="115" height="32" rx="4" fill="#e8f5e9" stroke="#2e7d32" stroke-width="1"/>
  <text x="107" y="362" text-anchor="middle" font-size="11" fill="#2e7d32" font-weight="bold">Low-latency path</text>
  <text x="107" y="374" text-anchor="middle" font-size="11" fill="#2e7d32">Benchmark locally</text>

  <rect x="175" y="348" width="115" height="32" rx="4" fill="#e8f5e9" stroke="#2e7d32" stroke-width="1"/>
  <text x="232" y="362" text-anchor="middle" font-size="11" fill="#2e7d32" font-weight="bold">Task-specific F1</text>
  <text x="232" y="374" text-anchor="middle" font-size="11" fill="#2e7d32">Human-labeled set</text>

  <!-- Tier 2 -->
  <rect x="330" y="205" width="220" height="185" rx="10" fill="#fff3e0" stroke="#e65100" stroke-width="2"/>
  <text x="440" y="228" text-anchor="middle" font-size="14" font-weight="bold" fill="#e65100">Tier 2: GLiNER 2</text>

  <rect x="345" y="238" width="190" height="28" rx="4" fill="white" stroke="#e65100" stroke-width="1"/>
  <text x="440" y="257" text-anchor="middle" font-size="11" fill="#e65100">NER</text>

  <rect x="345" y="272" width="190" height="28" rx="4" fill="white" stroke="#e65100" stroke-width="1"/>
  <text x="440" y="291" text-anchor="middle" font-size="11" fill="#e65100">Classification</text>

  <rect x="345" y="306" width="190" height="28" rx="4" fill="white" stroke="#e65100" stroke-width="1"/>
  <text x="440" y="325" text-anchor="middle" font-size="11" fill="#e65100">Relation extraction</text>

  <rect x="345" y="348" width="190" height="32" rx="4" fill="#e8f5e9" stroke="#2e7d32" stroke-width="1"/>
  <text x="440" y="362" text-anchor="middle" font-size="11" fill="#2e7d32" font-weight="bold">130-208 ms in paper</text>
  <text x="440" y="374" text-anchor="middle" font-size="11" fill="#2e7d32">205M params, CPU</text>

  <!-- Tier 3 -->
  <rect x="570" y="205" width="280" height="185" rx="10" fill="#f3e5f5" stroke="#6a1b9a" stroke-width="2"/>
  <text x="710" y="228" text-anchor="middle" font-size="14" font-weight="bold" fill="#6a1b9a">Tier 3: LLMs</text>

  <rect x="590" y="238" width="240" height="28" rx="4" fill="white" stroke="#6a1b9a" stroke-width="1"/>
  <text x="710" y="257" text-anchor="middle" font-size="11" fill="#6a1b9a">Instructor (cloud APIs)</text>

  <rect x="590" y="272" width="240" height="28" rx="4" fill="white" stroke="#6a1b9a" stroke-width="1"/>
  <text x="710" y="291" text-anchor="middle" font-size="11" fill="#6a1b9a">Outlines (local models)</text>

  <rect x="590" y="306" width="240" height="28" rx="4" fill="white" stroke="#6a1b9a" stroke-width="1"/>
  <text x="710" y="325" text-anchor="middle" font-size="11" fill="#6a1b9a">Implicit entities, reasoning</text>

  <rect x="590" y="348" width="115" height="32" rx="4" fill="#fce4ec" stroke="#c62828" stroke-width="1"/>
  <text x="647" y="362" text-anchor="middle" font-size="11" fill="#c62828" font-weight="bold">API or local model</text>
  <text x="647" y="374" text-anchor="middle" font-size="11" fill="#c62828">Higher latency</text>

  <rect x="715" y="348" width="115" height="32" rx="4" fill="#fce4ec" stroke="#c62828" stroke-width="1"/>
  <text x="772" y="362" text-anchor="middle" font-size="11" fill="#c62828" font-weight="bold">Reasoning path</text>
  <text x="772" y="374" text-anchor="middle" font-size="11" fill="#c62828">Needs quality eval</text>

  <!-- LLM-as-teacher feedback loop -->
  <path d="M 710 390 L 710 440 L 170 440 L 170 390" fill="none" stroke="#2e7d32" stroke-width="2" stroke-dasharray="6" marker-end="url(#a1)"/>
  <rect x="340" y="428" width="200" height="24" rx="4" fill="#e8f5e9" stroke="#2e7d32" stroke-width="1"/>
  <text x="440" y="444" text-anchor="middle" font-size="11" fill="#2e7d32" font-weight="bold">LLM-as-teacher pipeline</text>

  <!-- Bottom summary -->
  <rect x="130" y="470" width="620" height="40" rx="6" fill="#f5f5f5" stroke="#999" stroke-width="1"/>
  <text x="440" y="490" text-anchor="middle" font-size="11" fill="#333">LLMs label domain data → human review → fine-tune Tier 1 encoders</text>
  <text x="440" y="504" text-anchor="middle" font-size="11" fill="#888">Route by task requirements and measure the traffic split in production</text>
</svg>
