<svg xmlns="http://www.w3.org/2000/svg" width="1200" height="630" viewBox="0 0 1200 630">
  <defs>
    <linearGradient id="bg" x1="0%" y1="0%" x2="100%" y2="100%">
      <stop offset="0%" style="stop-color:#1a1a2e"/>
      <stop offset="100%" style="stop-color:#16213e"/>
    </linearGradient>
    <linearGradient id="accent" x1="0%" y1="0%" x2="100%" y2="0%">
      <stop offset="0%" style="stop-color:#6366f1"/>
      <stop offset="100%" style="stop-color:#8b5cf6"/>
    </linearGradient>
  </defs>
  <rect width="1200" height="630" fill="url(#bg)"/>
  <rect x="80" y="500" width="300" height="4" rx="2" fill="url(#accent)"/>
  <g transform="translate(80, 140)">
    <rect x="0" y="0" width="70" height="70" rx="12" fill="none" stroke="#6366f1" stroke-width="3"/>
    <line x1="52" y1="0" x2="52" y2="70" stroke="#6366f1" stroke-width="3"/>
    <circle cx="14" cy="18" r="4" fill="#8b5cf6"/>
    <circle cx="28" cy="18" r="4" fill="#8b5cf6"/>
    <circle cx="42" cy="18" r="4" fill="#8b5cf6"/>
    <circle cx="14" cy="34" r="4" fill="#8b5cf6"/>
    <circle cx="28" cy="34" r="4" fill="#8b5cf6"/>
    <circle cx="42" cy="34" r="4" fill="#8b5cf6"/>
    <circle cx="14" cy="50" r="4" fill="#8b5cf6"/>
    <circle cx="28" cy="50" r="4" fill="#8b5cf6"/>
    <circle cx="42" cy="50" r="4" fill="#8b5cf6"/>
    <circle cx="60" cy="18" r="3" fill="#6366f1" opacity="0.3"/>
    <circle cx="60" cy="34" r="3" fill="#6366f1" opacity="0.3"/>
    <circle cx="60" cy="50" r="3" fill="#6366f1" opacity="0.3"/>
  </g>
  <text x="170" y="185" font-family="'JetBrains Mono', 'Courier New', monospace" font-size="52" font-weight="bold" fill="#e0e0ff">Edge_of_Context</text>
  <text x="170" y="235" font-family="'Helvetica Neue', Arial, sans-serif" font-size="28" fill="#a0a0cc" font-weight="300">Practical AI Engineering</text>
  <text x="170" y="290" font-family="'Helvetica Neue', Arial, sans-serif" font-size="20" fill="#7070aa">Production AI agents • LLM infrastructure • RAG • search • fine-tuning</text>
</svg>
