<svg xmlns="http://www.w3.org/2000/svg" viewBox="0 0 720 640" role="img" preserveAspectRatio="xMidYMid meet" data-visual-system="byte-diagram-v2" data-direction="B" data-theme="light" aria-labelledby="rustarrow-title rustarrow-desc" shape-rendering="geometricPrecision" text-rendering="geometricPrecision">
<title id="rustarrow-title">Native execution en Arrow-compatibele uitwisseling</title><desc id="rustarrow-desc">Vier engines — Polars, DataFusion, Daft en Ray Data — zijn gebouwd op een gedeelde basis van Rust-native componenten en het kolomformaat van Apache Arrow. Samen zorgen die voor geen tracing garbage collector, goedkopere zero-copy-uitwisseling via de PyCapsule-interface en concurrency met compile-time checks. Het precieze runtime- en kopieergedrag verschilt per engine en operator.</desc>
<style data-visual-system="byte-diagram-v2">* { animation: none !important; }</style>
<defs><marker id="rustarrow-arrow-flow" viewBox="0 0 10 10" refX="8" refY="5" markerWidth="9" markerHeight="9" orient="auto-start-reverse"><path d="M0 0 10 5 0 10Z" fill="#17211B" /></marker><marker id="rustarrow-arrow-fail" viewBox="0 0 10 10" refX="8" refY="5" markerWidth="9" markerHeight="9" orient="auto-start-reverse"><path d="M0 0 10 5 0 10Z" fill="#F2148E" /></marker></defs>
<rect width="720" height="640" rx="14" fill="#F7F7F4" />
<text x="32" y="56" font-family="Space Grotesk, IBM Plex Sans, ui-sans-serif, system-ui, sans-serif" font-size="20" font-weight="700" fill="#17211B">Native execution en Arrow-compatibele uitwisseling</text>
<text x="32" y="80" font-family="IBM Plex Sans, ui-sans-serif, system-ui, sans-serif" font-size="14" font-weight="400" fill="#59645E">Het precieze runtime- en kopieergedrag verschilt per engine en operator.</text>
<path d="M42 96h136a10 10 0 0 1 10 10v52a10 10 0 0 1 -10 10h-136a10 10 0 0 1 -10 -10v-52a10 10 0 0 1 10 -10Z" fill="#FFFFFF" stroke="#17211B" stroke-width="1.5" /><path d="M42 96h136a10 10 0 0 1 10 10v16a0 0 0 0 1 -0 0h-156a0 0 0 0 1 -0 -0v-16a10 10 0 0 1 10 -10Z" fill="#17211B" /><text x="110" y="113.5" font-family="IBM Plex Mono, ui-monospace, SFMono-Regular, Menlo, monospace" font-size="12" font-weight="600" fill="#F7F7F4" text-anchor="middle" letter-spacing="1.2">ENGINE</text><text x="110" y="151" font-family="Space Grotesk, IBM Plex Sans, ui-sans-serif, system-ui, sans-serif" font-size="16" font-weight="600" fill="#17211B" text-anchor="middle">Polars</text>
<path d="M214 96h136a10 10 0 0 1 10 10v52a10 10 0 0 1 -10 10h-136a10 10 0 0 1 -10 -10v-52a10 10 0 0 1 10 -10Z" fill="#FFFFFF" stroke="#17211B" stroke-width="1.5" /><path d="M214 96h136a10 10 0 0 1 10 10v16a0 0 0 0 1 -0 0h-156a0 0 0 0 1 -0 -0v-16a10 10 0 0 1 10 -10Z" fill="#17211B" /><text x="282" y="113.5" font-family="IBM Plex Mono, ui-monospace, SFMono-Regular, Menlo, monospace" font-size="12" font-weight="600" fill="#F7F7F4" text-anchor="middle" letter-spacing="1.2">ENGINE</text><text x="282" y="151" font-family="Space Grotesk, IBM Plex Sans, ui-sans-serif, system-ui, sans-serif" font-size="16" font-weight="600" fill="#17211B" text-anchor="middle">DataFusion</text>
<path d="M386 96h136a10 10 0 0 1 10 10v52a10 10 0 0 1 -10 10h-136a10 10 0 0 1 -10 -10v-52a10 10 0 0 1 10 -10Z" fill="#FFFFFF" stroke="#17211B" stroke-width="1.5" /><path d="M386 96h136a10 10 0 0 1 10 10v16a0 0 0 0 1 -0 0h-156a0 0 0 0 1 -0 -0v-16a10 10 0 0 1 10 -10Z" fill="#17211B" /><text x="454" y="113.5" font-family="IBM Plex Mono, ui-monospace, SFMono-Regular, Menlo, monospace" font-size="12" font-weight="600" fill="#F7F7F4" text-anchor="middle" letter-spacing="1.2">ENGINE</text><text x="454" y="151" font-family="Space Grotesk, IBM Plex Sans, ui-sans-serif, system-ui, sans-serif" font-size="16" font-weight="600" fill="#17211B" text-anchor="middle">Daft</text>
<path d="M558 96h136a10 10 0 0 1 10 10v52a10 10 0 0 1 -10 10h-136a10 10 0 0 1 -10 -10v-52a10 10 0 0 1 10 -10Z" fill="#FFFFFF" stroke="#17211B" stroke-width="1.5" /><path d="M558 96h136a10 10 0 0 1 10 10v16a0 0 0 0 1 -0 0h-156a0 0 0 0 1 -0 -0v-16a10 10 0 0 1 10 -10Z" fill="#17211B" /><text x="626" y="113.5" font-family="IBM Plex Mono, ui-monospace, SFMono-Regular, Menlo, monospace" font-size="12" font-weight="600" fill="#F7F7F4" text-anchor="middle" letter-spacing="1.2">ENGINE</text><text x="626" y="151" font-family="Space Grotesk, IBM Plex Sans, ui-sans-serif, system-ui, sans-serif" font-size="16" font-weight="600" fill="#17211B" text-anchor="middle">Ray Data</text>
<path d="M110 168v24" fill="none" stroke="#17211B" stroke-width="2" stroke-linecap="round" stroke-linejoin="round" />
<path d="M282 168v24" fill="none" stroke="#17211B" stroke-width="2" stroke-linecap="round" stroke-linejoin="round" />
<path d="M454 168v24" fill="none" stroke="#17211B" stroke-width="2" stroke-linecap="round" stroke-linejoin="round" />
<path d="M626 168v24" fill="none" stroke="#17211B" stroke-width="2" stroke-linecap="round" stroke-linejoin="round" />
<path d="M42 192h636a10 10 0 0 1 10 10v76a10 10 0 0 1 -10 10h-636a10 10 0 0 1 -10 -10v-76a10 10 0 0 1 10 -10Z" fill="#FDECF5" stroke="#F2148E" stroke-width="2.5" /><path d="M42 192h636a10 10 0 0 1 10 10v16a0 0 0 0 1 -0 0h-656a0 0 0 0 1 -0 -0v-16a10 10 0 0 1 10 -10Z" fill="#F2148E" /><text x="46" y="209.5" font-family="IBM Plex Mono, ui-monospace, SFMono-Regular, Menlo, monospace" font-size="12" font-weight="600" fill="#FFFFFF" letter-spacing="1.2">FOCUS · GEDEELDE BASIS</text><text x="46" y="248" font-family="Space Grotesk, IBM Plex Sans, ui-sans-serif, system-ui, sans-serif" font-size="16" font-weight="600" fill="#17211B">Native componenten (vaak Rust)</text><text x="46" y="270" font-family="Space Grotesk, IBM Plex Sans, ui-sans-serif, system-ui, sans-serif" font-size="16" font-weight="600" fill="#17211B">Kolomformaat van Apache Arrow</text>
<path d="M223 288v32" fill="none" stroke="#17211B" stroke-width="2" stroke-linecap="round" stroke-linejoin="round" marker-end="url(#rustarrow-arrow-flow)" />
<path d="M360 288v32" fill="none" stroke="#17211B" stroke-width="2" stroke-linecap="round" stroke-linejoin="round" marker-end="url(#rustarrow-arrow-flow)" />
<path d="M497 288v32" fill="none" stroke="#17211B" stroke-width="2" stroke-linecap="round" stroke-linejoin="round" marker-end="url(#rustarrow-arrow-flow)" />
<path d="M42 336h180a10 10 0 0 1 10 10v84a10 10 0 0 1 -10 10h-180a10 10 0 0 1 -10 -10v-84a10 10 0 0 1 10 -10Z" fill="#FFFFFF" stroke="#17211B" stroke-width="1.5" /><path d="M42 336h180a10 10 0 0 1 10 10v16a0 0 0 0 1 -0 0h-200a0 0 0 0 1 -0 -0v-16a10 10 0 0 1 10 -10Z" fill="#F2F2F5" /><text x="46" y="353.5" font-family="IBM Plex Mono, ui-monospace, SFMono-Regular, Menlo, monospace" font-size="12" font-weight="600" fill="#59645E" letter-spacing="1.2">RESULTAAT</text><text x="46" y="387" font-family="Space Grotesk, IBM Plex Sans, ui-sans-serif, system-ui, sans-serif" font-size="18" font-weight="600" fill="#17211B">Geen tracing GC</text><text x="46" y="409" font-family="IBM Plex Sans, ui-sans-serif, system-ui, sans-serif" font-size="14" font-weight="400" fill="#59645E">ownership + borrowing</text><text x="46" y="429" font-family="IBM Plex Sans, ui-sans-serif, system-ui, sans-serif" font-size="14" font-weight="400" fill="#59645E">GC-pauses vermijden</text>
<path d="M270 336h180a10 10 0 0 1 10 10v84a10 10 0 0 1 -10 10h-180a10 10 0 0 1 -10 -10v-84a10 10 0 0 1 10 -10Z" fill="#FFFFFF" stroke="#17211B" stroke-width="1.5" /><path d="M270 336h180a10 10 0 0 1 10 10v16a0 0 0 0 1 -0 0h-200a0 0 0 0 1 -0 -0v-16a10 10 0 0 1 10 -10Z" fill="#F2F2F5" /><text x="274" y="353.5" font-family="IBM Plex Mono, ui-monospace, SFMono-Regular, Menlo, monospace" font-size="12" font-weight="600" fill="#59645E" letter-spacing="1.2">RESULTAAT</text><text x="274" y="387" font-family="Space Grotesk, IBM Plex Sans, ui-sans-serif, system-ui, sans-serif" font-size="18" font-weight="600" fill="#17211B" style="font-size: 16px;">Goedkopere uitwisseling</text><text x="274" y="409" font-family="IBM Plex Sans, ui-sans-serif, system-ui, sans-serif" font-size="14" font-weight="400" fill="#59645E">PyCapsule hergebruikt</text><text x="274" y="429" font-family="IBM Plex Sans, ui-sans-serif, system-ui, sans-serif" font-size="14" font-weight="400" fill="#59645E">compatibele buffers</text>
<path d="M498 336h180a10 10 0 0 1 10 10v84a10 10 0 0 1 -10 10h-180a10 10 0 0 1 -10 -10v-84a10 10 0 0 1 10 -10Z" fill="#FFFFFF" stroke="#17211B" stroke-width="1.5" /><path d="M498 336h180a10 10 0 0 1 10 10v16a0 0 0 0 1 -0 0h-200a0 0 0 0 1 -0 -0v-16a10 10 0 0 1 10 -10Z" fill="#F2F2F5" /><text x="502" y="353.5" font-family="IBM Plex Mono, ui-monospace, SFMono-Regular, Menlo, monospace" font-size="12" font-weight="600" fill="#59645E" letter-spacing="1.2">RESULTAAT</text><text x="502" y="387" font-family="Space Grotesk, IBM Plex Sans, ui-sans-serif, system-ui, sans-serif" font-size="18" font-weight="600" fill="#17211B">Veiligere concurrency</text><text x="502" y="409" font-family="IBM Plex Sans, ui-sans-serif, system-ui, sans-serif" font-size="14" font-weight="400" fill="#59645E">compile-time checks</text><text x="502" y="429" font-family="IBM Plex Sans, ui-sans-serif, system-ui, sans-serif" font-size="14" font-weight="400" fill="#59645E">data races afwijzen</text>
</svg>
