<svg xmlns="http://www.w3.org/2000/svg" viewBox="0 0 720 450" role="img" preserveAspectRatio="xMidYMid meet" data-visual-system="byte-diagram-v2" data-direction="B" data-theme="dark" aria-labelledby="mlopsloop-title mlopsloop-desc" shape-rendering="geometricPrecision" text-rendering="geometricPrecision">
<title id="mlopsloop-title">La boucle de contrôle MLOps dont les systèmes de foundation models ont toujours besoin</title><desc id="mlopsloop-desc">La traçabilité alimente un build reproductible, une release gate hors ligne, un déploiement progressif et l’observabilité. Les éléments probants des incidents reviennent à la release gate, tandis que l’identité immuable, la gouvernance et le rollback couvrent toute la boucle.</desc>
<style data-visual-system="byte-diagram-v2">* { animation: none !important; }</style>
<defs><marker id="mlopsloop-arrow-flow" viewBox="0 0 10 10" refX="8" refY="5" markerWidth="9" markerHeight="9" orient="auto-start-reverse"><path d="M0 0 10 5 0 10Z" fill="#EDF5F0" /></marker><marker id="mlopsloop-arrow-fail" viewBox="0 0 10 10" refX="8" refY="5" markerWidth="9" markerHeight="9" orient="auto-start-reverse"><path d="M0 0 10 5 0 10Z" fill="#FF6FB6" /></marker></defs>
<rect width="720" height="450" rx="14" fill="#0C1210" />
<text x="32" y="56" font-family="Space Grotesk, IBM Plex Sans, ui-sans-serif, system-ui, sans-serif" font-size="20" font-weight="700" fill="#EDF5F0">La boucle de contrôle MLOps reste applicable</text>
<text x="32" y="80" font-family="IBM Plex Sans, ui-sans-serif, system-ui, sans-serif" font-size="14" font-weight="400" fill="#A8B8AF">Le comportement change ; la discipline qui l’encadre, elle, ne change pas.</text>
<path d="M42 112h180a10 10 0 0 1 10 10v52a10 10 0 0 1 -10 10h-180a10 10 0 0 1 -10 -10v-52a10 10 0 0 1 10 -10Z" fill="#141D19" stroke="#EDF5F0" stroke-width="1.5" /><path d="M42 112h180a10 10 0 0 1 10 10v16a0 0 0 0 1 -0 0h-200a0 0 0 0 1 -0 -0v-16a10 10 0 0 1 10 -10Z" fill="#EDF5F0" /><text x="46" y="129.5" font-family="IBM Plex Mono, ui-monospace, SFMono-Regular, Menlo, monospace" font-size="12" font-weight="600" fill="#0C1210" letter-spacing="1.2">TRAÇABILITÉ</text><text x="46" y="167" font-family="Space Grotesk, IBM Plex Sans, ui-sans-serif, system-ui, sans-serif" font-size="18" font-weight="600" fill="#EDF5F0">Identifier les entrées</text><circle cx="32" cy="112" r="13" fill="#EDF5F0" stroke="#0C1210" stroke-width="2" /><text x="32" y="116.5" font-family="IBM Plex Mono, ui-monospace, SFMono-Regular, Menlo, monospace" font-size="13" font-weight="600" fill="#0C1210" text-anchor="middle">1</text>
<path d="M258 112h180a10 10 0 0 1 10 10v52a10 10 0 0 1 -10 10h-180a10 10 0 0 1 -10 -10v-52a10 10 0 0 1 10 -10Z" fill="#141D19" stroke="#EDF5F0" stroke-width="1.5" /><path d="M258 112h180a10 10 0 0 1 10 10v16a0 0 0 0 1 -0 0h-200a0 0 0 0 1 -0 -0v-16a10 10 0 0 1 10 -10Z" fill="#EDF5F0" /><text x="262" y="129.5" font-family="IBM Plex Mono, ui-monospace, SFMono-Regular, Menlo, monospace" font-size="12" font-weight="600" fill="#0C1210" letter-spacing="1.2">BUILD</text><text x="262" y="167" font-family="Space Grotesk, IBM Plex Sans, ui-sans-serif, system-ui, sans-serif" font-size="18" font-weight="600" fill="#EDF5F0">Reproduire</text><circle cx="248" cy="112" r="13" fill="#EDF5F0" stroke="#0C1210" stroke-width="2" /><text x="248" y="116.5" font-family="IBM Plex Mono, ui-monospace, SFMono-Regular, Menlo, monospace" font-size="13" font-weight="600" fill="#0C1210" text-anchor="middle">2</text>
<path d="M474 112h180a10 10 0 0 1 10 10v52a10 10 0 0 1 -10 10h-180a10 10 0 0 1 -10 -10v-52a10 10 0 0 1 10 -10Z" fill="#2B1622" stroke="#FF6FB6" stroke-width="2.5" /><path d="M474 112h180a10 10 0 0 1 10 10v16a0 0 0 0 1 -0 0h-200a0 0 0 0 1 -0 -0v-16a10 10 0 0 1 10 -10Z" fill="#FF6FB6" /><text x="478" y="129.5" font-family="IBM Plex Mono, ui-monospace, SFMono-Regular, Menlo, monospace" font-size="12" font-weight="600" fill="#0C1210" letter-spacing="1.2">RELEASE GATE</text><text x="478" y="167" font-family="Space Grotesk, IBM Plex Sans, ui-sans-serif, system-ui, sans-serif" font-size="18" font-weight="600" fill="#EDF5F0">Valider hors ligne</text><circle cx="464" cy="112" r="13" fill="#EDF5F0" stroke="#0C1210" stroke-width="2" /><text x="464" y="116.5" font-family="IBM Plex Mono, ui-monospace, SFMono-Regular, Menlo, monospace" font-size="13" font-weight="600" fill="#0C1210" text-anchor="middle">3</text>
<path d="M232 148h16" fill="none" stroke="#EDF5F0" stroke-width="2" stroke-linecap="round" stroke-linejoin="round" marker-end="url(#mlopsloop-arrow-flow)" />
<path d="M448 148h16" fill="none" stroke="#EDF5F0" stroke-width="2" stroke-linecap="round" stroke-linejoin="round" marker-end="url(#mlopsloop-arrow-flow)" />
<path d="M564 184v32H132v32" fill="none" stroke="#EDF5F0" stroke-width="2" stroke-linecap="round" stroke-linejoin="round" marker-end="url(#mlopsloop-arrow-flow)" />
<path d="M42 248h180a10 10 0 0 1 10 10v52a10 10 0 0 1 -10 10h-180a10 10 0 0 1 -10 -10v-52a10 10 0 0 1 10 -10Z" fill="#141D19" stroke="#EDF5F0" stroke-width="1.5" /><path d="M42 248h180a10 10 0 0 1 10 10v16a0 0 0 0 1 -0 0h-200a0 0 0 0 1 -0 -0v-16a10 10 0 0 1 10 -10Z" fill="#EDF5F0" /><text x="46" y="265.5" font-family="IBM Plex Mono, ui-monospace, SFMono-Regular, Menlo, monospace" font-size="12" font-weight="600" fill="#0C1210" letter-spacing="1.2">DÉPLOIEMENT</text><text x="46" y="303" font-family="Space Grotesk, IBM Plex Sans, ui-sans-serif, system-ui, sans-serif" font-size="18" font-weight="600" fill="#EDF5F0" style="font-size: 14.5px;">Déployer progressivement</text><circle cx="32" cy="248" r="13" fill="#EDF5F0" stroke="#0C1210" stroke-width="2" /><text x="32" y="252.5" font-family="IBM Plex Mono, ui-monospace, SFMono-Regular, Menlo, monospace" font-size="13" font-weight="600" fill="#0C1210" text-anchor="middle">4</text>
<path d="M258 248h180a10 10 0 0 1 10 10v52a10 10 0 0 1 -10 10h-180a10 10 0 0 1 -10 -10v-52a10 10 0 0 1 10 -10Z" fill="#141D19" stroke="#EDF5F0" stroke-width="1.5" /><path d="M258 248h180a10 10 0 0 1 10 10v16a0 0 0 0 1 -0 0h-200a0 0 0 0 1 -0 -0v-16a10 10 0 0 1 10 -10Z" fill="#EDF5F0" /><text x="262" y="265.5" font-family="IBM Plex Mono, ui-monospace, SFMono-Regular, Menlo, monospace" font-size="12" font-weight="600" fill="#0C1210" letter-spacing="1.2">OPÉRATIONS</text><text x="262" y="303" font-family="Space Grotesk, IBM Plex Sans, ui-sans-serif, system-ui, sans-serif" font-size="18" font-weight="600" fill="#EDF5F0">Observer les SLOs</text><circle cx="248" cy="248" r="13" fill="#EDF5F0" stroke="#0C1210" stroke-width="2" /><text x="248" y="252.5" font-family="IBM Plex Mono, ui-monospace, SFMono-Regular, Menlo, monospace" font-size="13" font-weight="600" fill="#0C1210" text-anchor="middle">5</text>
<path d="M232 284h16" fill="none" stroke="#EDF5F0" stroke-width="2" stroke-linecap="round" stroke-linejoin="round" marker-end="url(#mlopsloop-arrow-flow)" />
<path d="M448 284h186v-100" fill="none" stroke="#EDF5F0" stroke-width="2" stroke-linecap="round" stroke-linejoin="round" stroke-dasharray="8 6" marker-end="url(#mlopsloop-arrow-flow)" /><rect x="439.5" y="272" width="203" height="24" rx="6" fill="#0C1210" stroke="#2B3B33" stroke-width="1" /><text x="541" y="288.5" font-family="IBM Plex Sans, ui-sans-serif, system-ui, sans-serif" font-size="13" font-weight="600" fill="#A8B8AF" text-anchor="middle">Preuves d’incident</text>
<path d="M32 356h656" stroke="#2B3B33" stroke-width="1" />
<text x="32" y="382" font-family="IBM Plex Sans, ui-sans-serif, system-ui, sans-serif" font-size="14" font-weight="400" fill="#A8B8AF">L’identité immuable, la gouvernance et le rollback couvrent toute la boucle.</text>
<text x="32" y="404" font-family="IBM Plex Sans, ui-sans-serif, system-ui, sans-serif" font-size="14" font-weight="400" fill="#A8B8AF">Les éléments probants de l’incident reviennent à la release gate avant la prochaine promotion.</text>
</svg>
