<svg xmlns="http://www.w3.org/2000/svg" viewBox="0 0 720 500" role="img" preserveAspectRatio="xMidYMid meet" data-visual-system="byte-diagram-v2" data-direction="B" data-theme="dark" aria-labelledby="rag-title rag-desc" shape-rendering="geometricPrecision" text-rendering="geometricPrecision">
<title id="rag-title">RAG rozdziela ścieżkę offline pozyskiwania danych od ścieżki online obejmującej wyszukiwanie, reranking i generowanie.</title><desc id="rag-desc">Potok offline analizuje surowe dokumenty, przekształca je w czysty tekst, dzieli na fragmenty, tworzy embedding każdego fragmentu i zapisuje wektory. W czasie zapytania ten sam embedder — po opcjonalnej transformacji zapytania, takiej jak HyDE lub rozszerzenie multi-query — zasila hybrydowe wyszukiwanie dense-plus-BM25 w tym magazynie wektorów; reranker ocenia pobranych kandydatów względem zapytania, a model generatywny odpowiada, korzystając z kontekstu po rerankingu.</desc>
<style data-visual-system="byte-diagram-v2">* { animation: none !important; }</style>
<defs><marker id="rag-arrow-flow" viewBox="0 0 10 10" refX="8" refY="5" markerWidth="9" markerHeight="9" orient="auto-start-reverse"><path d="M0 0 10 5 0 10Z" fill="#EDF5F0" /></marker><marker id="rag-arrow-fail" viewBox="0 0 10 10" refX="8" refY="5" markerWidth="9" markerHeight="9" orient="auto-start-reverse"><path d="M0 0 10 5 0 10Z" fill="#FF6FB6" /></marker></defs>
<rect width="720" height="500" rx="14" fill="#0C1210" />
<text x="32" y="56" font-family="Space Grotesk, IBM Plex Sans, ui-sans-serif, system-ui, sans-serif" font-size="20" font-weight="700" fill="#EDF5F0">Ingestia offline; wyszukiwanie i generowanie na żądanie</text>
<text x="32" y="80" font-family="IBM Plex Sans, ui-sans-serif, system-ui, sans-serif" font-size="14" font-weight="400" fill="#A8B8AF">Ten sam embedder tworzy embedding zapytania, chyba że je przekształcisz.</text>
<path d="M42 128h132a10 10 0 0 1 10 10v84a10 10 0 0 1 -10 10h-132a10 10 0 0 1 -10 -10v-84a10 10 0 0 1 10 -10Z" fill="#0C1210" stroke="#A8B8AF" stroke-width="1.5" stroke-dasharray="6 5" /><path d="M42 128h132a10 10 0 0 1 10 10v16a0 0 0 0 1 -0 0h-152a0 0 0 0 1 -0 -0v-16a10 10 0 0 1 10 -10Z" fill="#2B3B33" /><text x="46" y="145.5" font-family="IBM Plex Mono, ui-monospace, SFMono-Regular, Menlo, monospace" font-size="12" font-weight="600" fill="#A8B8AF" letter-spacing="1.2">DOKUMENTY</text><text x="46" y="189" font-family="Space Grotesk, IBM Plex Sans, ui-sans-serif, system-ui, sans-serif" font-size="18" font-weight="600" fill="#A8B8AF" style="font-size: 15px;">Surowe dokumenty</text><text x="46" y="211" font-family="IBM Plex Sans, ui-sans-serif, system-ui, sans-serif" font-size="14" font-weight="400" fill="#A8B8AF"><tspan x="46">Przeanalizowane</tspan><tspan x="46" dy="1.2em">offline</tspan></text>
<path d="M184 180h16" fill="none" stroke="#EDF5F0" stroke-width="2" stroke-linecap="round" stroke-linejoin="round" marker-end="url(#rag-arrow-flow)" />
<path d="M210 128h132a10 10 0 0 1 10 10v84a10 10 0 0 1 -10 10h-132a10 10 0 0 1 -10 -10v-84a10 10 0 0 1 10 -10Z" fill="#141D19" stroke="#EDF5F0" stroke-width="1.5" /><path d="M210 128h132a10 10 0 0 1 10 10v16a0 0 0 0 1 -0 0h-152a0 0 0 0 1 -0 -0v-16a10 10 0 0 1 10 -10Z" fill="#EDF5F0" /><text x="214" y="145.5" font-family="IBM Plex Mono, ui-monospace, SFMono-Regular, Menlo, monospace" font-size="12" font-weight="600" fill="#0C1210" letter-spacing="1.2" style="font-size: 11.5px;">ANALIZA + PODZIAŁ</text><text x="214" y="189" font-family="Space Grotesk, IBM Plex Sans, ui-sans-serif, system-ui, sans-serif" font-size="18" font-weight="600" fill="#EDF5F0" style="font-size: 13.5px;">Czysty tekst, podział</text><text x="214" y="211" font-family="IBM Plex Sans, ui-sans-serif, system-ui, sans-serif" font-size="14" font-weight="400" fill="#A8B8AF">Według struktury</text>
<path d="M352 180h16" fill="none" stroke="#EDF5F0" stroke-width="2" stroke-linecap="round" stroke-linejoin="round" marker-end="url(#rag-arrow-flow)" />
<path d="M378 128h132a10 10 0 0 1 10 10v84a10 10 0 0 1 -10 10h-132a10 10 0 0 1 -10 -10v-84a10 10 0 0 1 10 -10Z" fill="#141D19" stroke="#EDF5F0" stroke-width="1.5" /><path d="M378 128h132a10 10 0 0 1 10 10v16a0 0 0 0 1 -0 0h-152a0 0 0 0 1 -0 -0v-16a10 10 0 0 1 10 -10Z" fill="#EDF5F0" /><text x="382" y="145.5" font-family="IBM Plex Mono, ui-monospace, SFMono-Regular, Menlo, monospace" font-size="12" font-weight="600" fill="#0C1210" letter-spacing="1.2">EMBEDDING</text><text x="382" y="189" font-family="Space Grotesk, IBM Plex Sans, ui-sans-serif, system-ui, sans-serif" font-size="18" font-weight="600" fill="#EDF5F0" style="font-size: 11.5px;">Embedding fragmentów</text><text x="382" y="211" font-family="IBM Plex Sans, ui-sans-serif, system-ui, sans-serif" font-size="14" font-weight="400" fill="#A8B8AF">Gęste wektory</text>
<path d="M520 180h16" fill="none" stroke="#EDF5F0" stroke-width="2" stroke-linecap="round" stroke-linejoin="round" marker-end="url(#rag-arrow-flow)" />
<path d="M546 128h132a10 10 0 0 1 10 10v84a10 10 0 0 1 -10 10h-132a10 10 0 0 1 -10 -10v-84a10 10 0 0 1 10 -10Z" fill="#141D19" stroke="#71D6A8" stroke-width="1.5" /><path d="M546 128h132a10 10 0 0 1 10 10v16a0 0 0 0 1 -0 0h-152a0 0 0 0 1 -0 -0v-16a10 10 0 0 1 10 -10Z" fill="#71D6A8" /><text x="550" y="145.5" font-family="IBM Plex Mono, ui-monospace, SFMono-Regular, Menlo, monospace" font-size="12" font-weight="600" fill="#0C1210" letter-spacing="1.2">ZAPIS</text><text x="550" y="189" font-family="Space Grotesk, IBM Plex Sans, ui-sans-serif, system-ui, sans-serif" font-size="18" font-weight="600" fill="#EDF5F0">Baza wektorowa</text><text x="550" y="211" font-family="IBM Plex Sans, ui-sans-serif, system-ui, sans-serif" font-size="14" font-weight="400" fill="#A8B8AF">Pinecone, Qdrant…</text>
<path d="M612 232v24H276v24" fill="none" stroke="#EDF5F0" stroke-width="2" stroke-linecap="round" stroke-linejoin="round" stroke-dasharray="8 6" marker-end="url(#rag-arrow-flow)" /><rect x="393.5" y="244" width="101" height="24" rx="6" fill="#0C1210" stroke="#2B3B33" stroke-width="1" /><text x="444" y="260.5" font-family="IBM Plex Sans, ui-sans-serif, system-ui, sans-serif" font-size="13" font-weight="600" fill="#A8B8AF" text-anchor="middle" style="font-size: 12px;">odczytuje indeks</text>
<path d="M42 280h132a10 10 0 0 1 10 10v84a10 10 0 0 1 -10 10h-132a10 10 0 0 1 -10 -10v-84a10 10 0 0 1 10 -10Z" fill="#0C1210" stroke="#A8B8AF" stroke-width="1.5" stroke-dasharray="6 5" /><path d="M42 280h132a10 10 0 0 1 10 10v16a0 0 0 0 1 -0 0h-152a0 0 0 0 1 -0 -0v-16a10 10 0 0 1 10 -10Z" fill="#2B3B33" /><text x="46" y="297.5" font-family="IBM Plex Mono, ui-monospace, SFMono-Regular, Menlo, monospace" font-size="12" font-weight="600" fill="#A8B8AF" letter-spacing="1.2">ZAPYTANIE</text><text x="46" y="341" font-family="Space Grotesk, IBM Plex Sans, ui-sans-serif, system-ui, sans-serif" font-size="18" font-weight="600" fill="#A8B8AF" style="font-size: 12px;">Zapytanie użytkownika</text><text x="46" y="363" font-family="IBM Plex Sans, ui-sans-serif, system-ui, sans-serif" font-size="14" font-weight="400" fill="#A8B8AF"><tspan x="46">Możliwa</tspan><tspan x="46" dy="1.2em">transformacja</tspan></text>
<path d="M184 332h16" fill="none" stroke="#EDF5F0" stroke-width="2" stroke-linecap="round" stroke-linejoin="round" marker-end="url(#rag-arrow-flow)" />
<path d="M210 280h132a10 10 0 0 1 10 10v84a10 10 0 0 1 -10 10h-132a10 10 0 0 1 -10 -10v-84a10 10 0 0 1 10 -10Z" fill="#141D19" stroke="#EDF5F0" stroke-width="1.5" /><path d="M210 280h132a10 10 0 0 1 10 10v16a0 0 0 0 1 -0 0h-152a0 0 0 0 1 -0 -0v-16a10 10 0 0 1 10 -10Z" fill="#EDF5F0" /><text x="214" y="297.5" font-family="IBM Plex Mono, ui-monospace, SFMono-Regular, Menlo, monospace" font-size="12" font-weight="600" fill="#0C1210" letter-spacing="1.2">WYSZUKIWANIE</text><text x="214" y="341" font-family="Space Grotesk, IBM Plex Sans, ui-sans-serif, system-ui, sans-serif" font-size="18" font-weight="600" fill="#EDF5F0" style="font-size: 11.5px;">Przeszukiwanie indeksu</text><text x="214" y="363" font-family="IBM Plex Sans, ui-sans-serif, system-ui, sans-serif" font-size="14" font-weight="400" fill="#A8B8AF">Dense + BM25</text>
<path d="M352 332h16" fill="none" stroke="#EDF5F0" stroke-width="2" stroke-linecap="round" stroke-linejoin="round" marker-end="url(#rag-arrow-flow)" />
<path d="M378 280h132a10 10 0 0 1 10 10v84a10 10 0 0 1 -10 10h-132a10 10 0 0 1 -10 -10v-84a10 10 0 0 1 10 -10Z" fill="#141D19" stroke="#EDF5F0" stroke-width="1.5" /><path d="M378 280h132a10 10 0 0 1 10 10v16a0 0 0 0 1 -0 0h-152a0 0 0 0 1 -0 -0v-16a10 10 0 0 1 10 -10Z" fill="#EDF5F0" /><text x="382" y="297.5" font-family="IBM Plex Mono, ui-monospace, SFMono-Regular, Menlo, monospace" font-size="12" font-weight="600" fill="#0C1210" letter-spacing="1.2">RERANKING</text><text x="382" y="341" font-family="Space Grotesk, IBM Plex Sans, ui-sans-serif, system-ui, sans-serif" font-size="18" font-weight="600" fill="#EDF5F0">Reranking top-K</text><text x="382" y="363" font-family="IBM Plex Sans, ui-sans-serif, system-ui, sans-serif" font-size="14" font-weight="400" fill="#A8B8AF">Cross-encoder</text>
<path d="M520 332h16" fill="none" stroke="#EDF5F0" stroke-width="2" stroke-linecap="round" stroke-linejoin="round" marker-end="url(#rag-arrow-flow)" />
<path d="M546 280h132a10 10 0 0 1 10 10v84a10 10 0 0 1 -10 10h-132a10 10 0 0 1 -10 -10v-84a10 10 0 0 1 10 -10Z" fill="#2B1622" stroke="#FF6FB6" stroke-width="2.5" /><path d="M546 280h132a10 10 0 0 1 10 10v16a0 0 0 0 1 -0 0h-152a0 0 0 0 1 -0 -0v-16a10 10 0 0 1 10 -10Z" fill="#FF6FB6" /><text x="550" y="297.5" font-family="IBM Plex Mono, ui-monospace, SFMono-Regular, Menlo, monospace" font-size="12" font-weight="600" fill="#0C1210" letter-spacing="1.2" style="font-size: 11px;">KONTEKST · GENEROWANIE</text><text x="550" y="341" font-family="Space Grotesk, IBM Plex Sans, ui-sans-serif, system-ui, sans-serif" font-size="18" font-weight="600" fill="#EDF5F0">LLM odpowiada</text><text x="550" y="363" font-family="IBM Plex Sans, ui-sans-serif, system-ui, sans-serif" font-size="14" font-weight="400" fill="#A8B8AF">Korzysta z kontekstu</text>
<path d="M32 420h656" stroke="#2B3B33" stroke-width="1" />
<text x="32" y="446" font-family="IBM Plex Sans, ui-sans-serif, system-ui, sans-serif" font-size="14" font-weight="400" fill="#A8B8AF">Lepszy generator nie odzyska pominiętych dowodów — oceniaj etapy osobno.</text>
<text x="32" y="468" font-family="IBM Plex Sans, ui-sans-serif, system-ui, sans-serif" font-size="14" font-weight="400" fill="#A8B8AF">Dodaj reranking lub transformację zapytania po analizie realnych braków.</text>
</svg>
