<svg xmlns="http://www.w3.org/2000/svg" viewBox="0 0 720 712" role="img" preserveAspectRatio="xMidYMid meet" data-visual-system="byte-diagram-v2" data-direction="B" data-theme="light" aria-labelledby="readermap-title readermap-desc" shape-rendering="geometricPrecision" text-rendering="geometricPrecision">
<title id="readermap-title">Sechs Serving-Bottlenecks führen zu sechs unterschiedlichen Quantization-Ausgangspunkten</title><desc id="readermap-desc">Weight-Memory-Druck beginnt mit W4A16 Weight-only Quantization, Compute-bound Throughput mit FP8 oder INT8 W8A8, Long Context oder hohe Concurrency mit KV-cache Quantization, lokale oder Edge-Inference mit GGUF, Adapter Fine-Tuning mit NF4 und QLoRA, und Diffusion Pipelines benötigen Diffusion-spezifische INT4- oder FP8-Methoden. Jeder Pfad benötigt vor dem Deployment weiterhin Calibration und Evaluation auf dem Ziel-Runtime.</desc>
<style data-visual-system="byte-diagram-v2">* { animation: none !important; }</style>
<defs><marker id="readermap-arrow-flow" viewBox="0 0 10 10" refX="8" refY="5" markerWidth="9" markerHeight="9" orient="auto-start-reverse"><path d="M0 0 10 5 0 10Z" fill="#17211B" /></marker><marker id="readermap-arrow-fail" viewBox="0 0 10 10" refX="8" refY="5" markerWidth="9" markerHeight="9" orient="auto-start-reverse"><path d="M0 0 10 5 0 10Z" fill="#F2148E" /></marker></defs>
<rect width="720" height="712" rx="14" fill="#F7F7F4" />
<text x="32" y="56" font-family="Space Grotesk, IBM Plex Sans, ui-sans-serif, system-ui, sans-serif" font-size="20" font-weight="700" fill="#17211B">Mit dem Bottleneck starten</text>
<text x="32" y="80" font-family="IBM Plex Sans, ui-sans-serif, system-ui, sans-serif" font-size="14" font-weight="400" fill="#59645E">Dieselbe Bitbreite kann je nach Hardware, Runtime, Cache und Evaluation richtig oder falsch sein.</text>
<path d="M42 128h308a10 10 0 0 1 10 10v84a10 10 0 0 1 -10 10h-308a10 10 0 0 1 -10 -10v-84a10 10 0 0 1 10 -10Z" fill="#FFFFFF" stroke="#17211B" stroke-width="1.5" /><path d="M42 128h308a10 10 0 0 1 10 10v16a0 0 0 0 1 -0 0h-328a0 0 0 0 1 -0 -0v-16a10 10 0 0 1 10 -10Z" fill="#F2F2F5" /><text x="46" y="145.5" font-family="IBM Plex Mono, ui-monospace, SFMono-Regular, Menlo, monospace" font-size="12" font-weight="600" fill="#59645E" letter-spacing="1.2">WEIGHT MEMORY</text><text x="46" y="189" font-family="Space Grotesk, IBM Plex Sans, ui-sans-serif, system-ui, sans-serif" font-size="18" font-weight="600" fill="#17211B">W4A16 GPTQ / AWQ</text><text x="46" y="211" font-family="IBM Plex Sans, ui-sans-serif, system-ui, sans-serif" font-size="14" font-weight="400" fill="#59645E">Decode-bound — siehe §1, §4</text>
<path d="M386 128h308a10 10 0 0 1 10 10v84a10 10 0 0 1 -10 10h-308a10 10 0 0 1 -10 -10v-84a10 10 0 0 1 10 -10Z" fill="#FFFFFF" stroke="#17211B" stroke-width="1.5" /><path d="M386 128h308a10 10 0 0 1 10 10v16a0 0 0 0 1 -0 0h-328a0 0 0 0 1 -0 -0v-16a10 10 0 0 1 10 -10Z" fill="#F2F2F5" /><text x="390" y="145.5" font-family="IBM Plex Mono, ui-monospace, SFMono-Regular, Menlo, monospace" font-size="12" font-weight="600" fill="#59645E" letter-spacing="1.2">THROUGHPUT</text><text x="390" y="189" font-family="Space Grotesk, IBM Plex Sans, ui-sans-serif, system-ui, sans-serif" font-size="18" font-weight="600" fill="#17211B">FP8 oder INT8 W8A8</text><text x="390" y="211" font-family="IBM Plex Sans, ui-sans-serif, system-ui, sans-serif" font-size="14" font-weight="400" fill="#59645E">Compute-bound — siehe §3, §4</text>
<path d="M42 248h308a10 10 0 0 1 10 10v84a10 10 0 0 1 -10 10h-308a10 10 0 0 1 -10 -10v-84a10 10 0 0 1 10 -10Z" fill="#FFFFFF" stroke="#17211B" stroke-width="1.5" /><path d="M42 248h308a10 10 0 0 1 10 10v16a0 0 0 0 1 -0 0h-328a0 0 0 0 1 -0 -0v-16a10 10 0 0 1 10 -10Z" fill="#F2F2F5" /><text x="46" y="265.5" font-family="IBM Plex Mono, ui-monospace, SFMono-Regular, Menlo, monospace" font-size="12" font-weight="600" fill="#59645E" letter-spacing="1.2">LONG CONTEXT</text><text x="46" y="309" font-family="Space Grotesk, IBM Plex Sans, ui-sans-serif, system-ui, sans-serif" font-size="18" font-weight="600" fill="#17211B">KV-cache Quantization</text><text x="46" y="331" font-family="IBM Plex Sans, ui-sans-serif, system-ui, sans-serif" font-size="14" font-weight="400" fill="#59645E">Cache dominiert VRAM — §6</text>
<path d="M386 248h308a10 10 0 0 1 10 10v84a10 10 0 0 1 -10 10h-308a10 10 0 0 1 -10 -10v-84a10 10 0 0 1 10 -10Z" fill="#FFFFFF" stroke="#17211B" stroke-width="1.5" /><path d="M386 248h308a10 10 0 0 1 10 10v16a0 0 0 0 1 -0 0h-328a0 0 0 0 1 -0 -0v-16a10 10 0 0 1 10 -10Z" fill="#F2F2F5" /><text x="390" y="265.5" font-family="IBM Plex Mono, ui-monospace, SFMono-Regular, Menlo, monospace" font-size="12" font-weight="600" fill="#59645E" letter-spacing="1.2">LOKAL / EDGE</text><text x="390" y="309" font-family="Space Grotesk, IBM Plex Sans, ui-sans-serif, system-ui, sans-serif" font-size="18" font-weight="600" fill="#17211B">GGUF Q4_K_M / Q5_K_M</text><text x="390" y="331" font-family="IBM Plex Sans, ui-sans-serif, system-ui, sans-serif" font-size="14" font-weight="400" fill="#59645E">CPU, Apple, Desktop — §7</text>
<path d="M42 368h308a10 10 0 0 1 10 10v84a10 10 0 0 1 -10 10h-308a10 10 0 0 1 -10 -10v-84a10 10 0 0 1 10 -10Z" fill="#FFFFFF" stroke="#17211B" stroke-width="1.5" /><path d="M42 368h308a10 10 0 0 1 10 10v16a0 0 0 0 1 -0 0h-328a0 0 0 0 1 -0 -0v-16a10 10 0 0 1 10 -10Z" fill="#F2F2F5" /><text x="46" y="385.5" font-family="IBM Plex Mono, ui-monospace, SFMono-Regular, Menlo, monospace" font-size="12" font-weight="600" fill="#59645E" letter-spacing="1.2">FINE-TUNING</text><text x="46" y="429" font-family="Space Grotesk, IBM Plex Sans, ui-sans-serif, system-ui, sans-serif" font-size="18" font-weight="600" fill="#17211B">NF4 mit QLoRA</text><text x="46" y="451" font-family="IBM Plex Sans, ui-sans-serif, system-ui, sans-serif" font-size="14" font-weight="400" fill="#59645E">Adapter-Training, eine GPU — §2</text>
<path d="M386 368h308a10 10 0 0 1 10 10v84a10 10 0 0 1 -10 10h-308a10 10 0 0 1 -10 -10v-84a10 10 0 0 1 10 -10Z" fill="#FFFFFF" stroke="#17211B" stroke-width="1.5" /><path d="M386 368h308a10 10 0 0 1 10 10v16a0 0 0 0 1 -0 0h-328a0 0 0 0 1 -0 -0v-16a10 10 0 0 1 10 -10Z" fill="#F2F2F5" /><text x="390" y="385.5" font-family="IBM Plex Mono, ui-monospace, SFMono-Regular, Menlo, monospace" font-size="12" font-weight="600" fill="#59645E" letter-spacing="1.2">DIFFUSION</text><text x="390" y="429" font-family="Space Grotesk, IBM Plex Sans, ui-sans-serif, system-ui, sans-serif" font-size="18" font-weight="600" fill="#17211B">INT4 / FP8 für Diffusion</text><text x="390" y="451" font-family="IBM Plex Sans, ui-sans-serif, system-ui, sans-serif" font-size="14" font-weight="400" fill="#59645E">Separates Activation-Verhalten — §10</text>
<path d="M42 504h636a10 10 0 0 1 10 10v84a10 10 0 0 1 -10 10h-636a10 10 0 0 1 -10 -10v-84a10 10 0 0 1 10 -10Z" fill="#FDECF5" stroke="#F2148E" stroke-width="2.5" /><path d="M42 504h636a10 10 0 0 1 10 10v16a0 0 0 0 1 -0 0h-656a0 0 0 0 1 -0 -0v-16a10 10 0 0 1 10 -10Z" fill="#F2148E" /><text x="46" y="521.5" font-family="IBM Plex Mono, ui-monospace, SFMono-Regular, Menlo, monospace" font-size="12" font-weight="600" fill="#FFFFFF" letter-spacing="1.2">FOKUS · VOR DEM DEPLOYMENT</text><text x="46" y="565" font-family="Space Grotesk, IBM Plex Sans, ui-sans-serif, system-ui, sans-serif" font-size="18" font-weight="600" fill="#17211B">Danach auf deiner Ziel-Runtime validieren</text><text x="46" y="587" font-family="IBM Plex Sans, ui-sans-serif, system-ui, sans-serif" font-size="14" font-weight="400" fill="#59645E">Perplexity, Task Accuracy, Long-Context-Probes, Load Tests — §8</text>
<path d="M32 632h656" stroke="#D8DDD9" stroke-width="1" />
<text x="32" y="658" font-family="IBM Plex Sans, ui-sans-serif, system-ui, sans-serif" font-size="14" font-weight="400" fill="#59645E">Diese Map ist ein Ausgangspunkt — Hardware, Runtime und Calibration Data können die Wahl verändern.</text>
<text x="32" y="680" font-family="IBM Plex Sans, ui-sans-serif, system-ui, sans-serif" font-size="14" font-weight="400" fill="#59645E">Jeder Pfad endet weiterhin am selben Deploy-Gate.</text>
</svg>
