<svg xmlns="http://www.w3.org/2000/svg" width="1120" height="620" viewBox="0 0 1120 620" role="img" aria-labelledby="title desc">
  <title id="title">How quantization maps high precision values into low precision buckets</title>
  <desc id="desc">A left to right diagram showing full precision values, scale selection, integer buckets, dequantized values, and the error budget.</desc>
  <defs>
    <filter id="shadow" x="-20%" y="-20%" width="140%" height="140%">
      <feDropShadow dx="0" dy="6" stdDeviation="5" flood-color="#1f2937" flood-opacity="0.15"/>
    </filter>
    <marker id="arrow" markerWidth="12" markerHeight="12" refX="10" refY="6" orient="auto">
      <path d="M2,2 L10,6 L2,10 Z" fill="#1565c0"/>
    </marker>
    <style>
      .bg { fill: #f8f9fa; }
      .card { fill: #ffffff; stroke: #d7dee8; stroke-width: 1.4; filter: url(#shadow); }
      .title { font: 700 24px Arial, sans-serif; fill: #111827; }
      .label { font: 700 16px Arial, sans-serif; fill: #111827; }
      .text { font: 14px Arial, sans-serif; fill: #374151; }
      .small { font: 12px Arial, sans-serif; fill: #4b5563; }
      .mono { font: 13px "SFMono-Regular", Consolas, monospace; fill: #111827; }
      .blue { fill: #e3f2fd; stroke: #1565c0; }
      .orange { fill: #fff3e0; stroke: #e67e22; }
      .green { fill: #e8f5e9; stroke: #27ae60; }
      .purple { fill: #f3e5f5; stroke: #6a1b9a; }
      .red { fill: #fce4ec; stroke: #c62828; }
      .arrow { stroke: #1565c0; stroke-width: 3; fill: none; marker-end: url(#arrow); }
      .tick { stroke: #6b7280; stroke-width: 1; }
    </style>
  </defs>

  <rect class="bg" width="1120" height="620"/>
  <text class="title" x="48" y="56">The quantization loop</text>
  <text class="text" x="48" y="86">You choose a scale, round values into fewer buckets, then dequantize during inference. The lost detail is the error you must measure.</text>

  <rect class="card blue" x="48" y="135" width="210" height="250" rx="8"/>
  <text class="label" x="70" y="170">1. Full precision</text>
  <text class="text" x="70" y="202">Weights start as BF16,</text>
  <text class="text" x="70" y="224">FP16, or FP32 values.</text>
  <g transform="translate(70 255)">
    <line class="tick" x1="0" y1="60" x2="160" y2="60"/>
    <circle cx="8" cy="18" r="5" fill="#1565c0"/>
    <circle cx="32" cy="38" r="5" fill="#1565c0"/>
    <circle cx="58" cy="12" r="5" fill="#1565c0"/>
    <circle cx="86" cy="44" r="5" fill="#1565c0"/>
    <circle cx="118" cy="26" r="5" fill="#1565c0"/>
    <circle cx="150" cy="52" r="5" fill="#1565c0"/>
  </g>
  <text class="mono" x="70" y="352">0.13, -0.42, 1.91...</text>

  <path class="arrow" d="M270 260 C300 260 315 260 342 260"/>

  <rect class="card orange" x="354" y="135" width="220" height="250" rx="8"/>
  <text class="label" x="376" y="170">2. Pick a scale</text>
  <text class="text" x="376" y="202">Map the tensor range</text>
  <text class="text" x="376" y="224">onto a smaller number</text>
  <text class="text" x="376" y="246">of representable values.</text>
  <rect x="383" y="282" width="162" height="42" rx="6" fill="#ffffff" stroke="#e67e22"/>
  <text class="mono" x="398" y="309">scale = max / 7</text>
  <text class="small" x="376" y="352">Per-tensor is simple.</text>
  <text class="small" x="376" y="370">Per-channel or group is safer.</text>

  <path class="arrow" d="M586 260 C616 260 631 260 658 260"/>

  <rect class="card purple" x="670" y="135" width="190" height="250" rx="8"/>
  <text class="label" x="692" y="170">3. Round</text>
  <text class="text" x="692" y="202">Values snap into</text>
  <text class="text" x="692" y="224">INT4, INT8, FP8,</text>
  <text class="text" x="692" y="246">or FP4 buckets.</text>
  <g transform="translate(694 282)">
    <rect x="0" y="0" width="24" height="42" rx="4" fill="#6a1b9a"/>
    <rect x="31" y="10" width="24" height="32" rx="4" fill="#9b59b6"/>
    <rect x="62" y="18" width="24" height="24" rx="4" fill="#9b59b6"/>
    <rect x="93" y="6" width="24" height="36" rx="4" fill="#6a1b9a"/>
    <rect x="124" y="24" width="24" height="18" rx="4" fill="#9b59b6"/>
  </g>
  <text class="mono" x="692" y="352">[-7, -3, 0, 5, 7]</text>

  <path class="arrow" d="M872 260 C902 260 917 260 944 260"/>

  <rect class="card green" x="946" y="135" width="126" height="250" rx="8"/>
  <text class="label" x="964" y="170">4. Use it</text>
  <text class="text" x="964" y="202">Runtime</text>
  <text class="text" x="964" y="224">dequantizes</text>
  <text class="text" x="964" y="246">or runs</text>
  <text class="text" x="964" y="268">low-bit</text>
  <text class="text" x="964" y="290">kernels.</text>
  <circle cx="1009" cy="334" r="28" fill="#27ae60"/>
  <text class="mono" x="987" y="340" fill="#ffffff">GEMM</text>

  <rect class="card red" x="220" y="450" width="680" height="120" rx="8"/>
  <text class="label" x="250" y="486">The error budget</text>
  <text class="text" x="250" y="514">The model is smaller because many nearby values now share one bucket.</text>
  <text class="text" x="250" y="534">Good quantization spends that error where the model can tolerate it.</text>
  <text class="mono" x="250" y="558">approx_value = scale * (quantized_value - zero_point)</text>
</svg>
