<svg xmlns="http://www.w3.org/2000/svg" width="1120" height="640" viewBox="0 0 1120 640" role="img" aria-labelledby="title desc">
  <title id="title">Offline quantization memory is different from serving memory</title>
  <desc id="desc">A two-column comparison showing layer-by-layer offline quantization versus serving with all weights and KV cache resident.</desc>
  <defs>
    <filter id="shadow" x="-20%" y="-20%" width="140%" height="140%">
      <feDropShadow dx="0" dy="6" stdDeviation="5" flood-color="#1f2937" flood-opacity="0.14"/>
    </filter>
    <style>
      .bg { fill: #f8f9fa; }
      .panel { fill: #ffffff; stroke: #d7dee8; stroke-width: 1.4; filter: url(#shadow); }
      .gpu { fill: #e3f2fd; stroke: #1565c0; stroke-width: 1.5; }
      .cpu { fill: #fff3e0; stroke: #e67e22; stroke-width: 1.5; }
      .kv { fill: #f3e5f5; stroke: #6a1b9a; stroke-width: 1.5; }
      .ok { fill: #e8f5e9; stroke: #27ae60; stroke-width: 1.5; }
      .warn { fill: #fce4ec; stroke: #c62828; stroke-width: 1.5; }
      .title { font: 700 24px Arial, sans-serif; fill: #111827; }
      .h { font: 700 18px Arial, sans-serif; fill: #111827; }
      .label { font: 700 14px Arial, sans-serif; fill: #111827; }
      .text { font: 14px Arial, sans-serif; fill: #374151; }
      .small { font: 12px Arial, sans-serif; fill: #4b5563; }
      .mono { font: 13px "SFMono-Regular", Consolas, monospace; fill: #111827; }
      .line { stroke: #6b7280; stroke-width: 2; stroke-dasharray: 5 5; }
    </style>
  </defs>

  <rect class="bg" width="1120" height="640"/>
  <text class="title" x="48" y="58">Two memory questions, two different answers</text>
  <text class="text" x="48" y="88">Producing a quantized checkpoint can be layer-bounded. Serving holds the checkpoint and the live KV cache.</text>

  <rect class="panel" x="58" y="130" width="480" height="430" rx="8"/>
  <text class="h" x="88" y="170">Offline quantization job</text>
  <text class="text" x="88" y="200">LLM Compressor can process text decoder layers one at a time.</text>

  <rect class="cpu" x="88" y="240" width="390" height="70" rx="8"/>
  <text class="label" x="112" y="268">CPU or disk</text>
  <text class="small" x="112" y="292">source model, dataset, offloaded layers</text>

  <rect class="gpu" x="88" y="340" width="390" height="92" rx="8"/>
  <text class="label" x="112" y="368">GPU</text>
  <text class="small" x="112" y="392">one active layer + activations + GPTQ hessian buffer</text>
  <g transform="translate(112 412)">
    <rect x="0" y="0" width="38" height="14" fill="#1565c0"/>
    <rect x="44" y="0" width="38" height="14" fill="#e5e7eb" stroke="#9ca3af"/>
    <rect x="88" y="0" width="38" height="14" fill="#e5e7eb" stroke="#9ca3af"/>
    <rect x="132" y="0" width="38" height="14" fill="#e5e7eb" stroke="#9ca3af"/>
    <rect x="176" y="0" width="38" height="14" fill="#e5e7eb" stroke="#9ca3af"/>
    <rect x="220" y="0" width="38" height="14" fill="#e5e7eb" stroke="#9ca3af"/>
  </g>

  <rect class="ok" x="88" y="470" width="390" height="54" rx="8"/>
  <text class="mono" x="112" y="502">Peak GPU ~= active block, not whole model</text>

  <line class="line" x1="560" y1="130" x2="560" y2="560"/>

  <rect class="panel" x="582" y="130" width="480" height="430" rx="8"/>
  <text class="h" x="612" y="170">Serving endpoint</text>
  <text class="text" x="612" y="200">The runtime needs the weights plus live request memory.</text>

  <rect class="gpu" x="612" y="240" width="390" height="70" rx="8"/>
  <text class="label" x="636" y="268">Quantized weights</text>
  <text class="small" x="636" y="292">all layers resident or sharded for tensor parallel serving</text>

  <rect class="kv" x="612" y="335" width="390" height="70" rx="8"/>
  <text class="label" x="636" y="363">KV cache</text>
  <text class="small" x="636" y="387">scales with context length, batch size, and layer count</text>

  <rect class="warn" x="612" y="430" width="390" height="70" rx="8"/>
  <text class="label" x="636" y="458">Runtime overhead and safety buffer</text>
  <text class="small" x="636" y="482">allocator, kernels, fragmentation, CUDA graphs, scheduler</text>

  <rect class="ok" x="612" y="520" width="390" height="40" rx="8"/>
  <text class="mono" x="636" y="546">Total ~= weights + KV + overhead + buffer</text>
</svg>
