<svg xmlns="http://www.w3.org/2000/svg" viewBox="0 0 1140 640" font-family="Roboto, Helvetica, Arial, sans-serif">
  <defs>
    <filter id="ds4" x="-10%" y="-10%" width="120%" height="120%">
      <feDropShadow dx="0" dy="1" stdDeviation="1.5" flood-color="#000" flood-opacity="0.10" />
    </filter>
  </defs>

  <rect width="1140" height="640" fill="#f8f9fa" />

  <!-- Title -->
  <text x="570" y="32" text-anchor="middle" font-size="20" font-weight="700" fill="#263238">Dónde vive cada primitiva en cada modelo de despliegue</text>
  <text x="570" y="54" text-anchor="middle" font-size="12" fill="#546e7a">Verde = el modelo proporciona esta primitiva. Gris = la conectas externamente. Rojo = no aplica.</text>

  <!-- Column headers -->
  <g font-size="11" font-weight="700" letter-spacing="0.6" fill="#37474f" text-anchor="middle">
    <text x="140" y="96">MODELO</text>
    <text x="370" y="96">HARNESS</text>
    <text x="585" y="96">SANDBOX</text>
    <text x="800" y="96">SESIÓN + CHECKPOINT</text>
    <text x="1015" y="96">TRAZA</text>
  </g>
  <line x1="20" y1="106" x2="1120" y2="106" stroke="#cfd8dc" stroke-width="1" />

  <!-- Row 1: SDK in app server (y_rect=118, y_text=140) -->
  <text x="30" y="140" font-size="13" font-weight="600" fill="#263238">1. SDK en el servidor de la app</text>
  <g filter="url(#ds4)">
    <rect x="265" y="118" width="210" height="34" rx="6" fill="#c8e6c9" stroke="#2e7d32" stroke-width="1.2" />
    <rect x="480" y="118" width="210" height="34" rx="6" fill="#c8e6c9" stroke="#2e7d32" stroke-width="1.2" />
    <rect x="695" y="118" width="210" height="34" rx="6" fill="#c8e6c9" stroke="#2e7d32" stroke-width="1.2" />
    <rect x="910" y="118" width="210" height="34" rx="6" fill="#eceff1" stroke="#b0bec5" stroke-width="1.2" />
  </g>
  <g font-size="12" text-anchor="middle">
    <text x="370" y="140" fill="#1b5e20">proceso web</text>
    <text x="585" y="140" fill="#1b5e20">proceso web</text>
    <text x="800" y="140" fill="#1b5e20">memoria del proceso</text>
    <text x="1015" y="140" fill="#455a64">logs web</text>
  </g>

  <!-- Row 2: Queue + worker + DB (y_rect=162, y_text=184) -->
  <text x="30" y="184" font-size="13" font-weight="600" fill="#263238">2. Cola + worker + BD</text>
  <g filter="url(#ds4)">
    <rect x="265" y="162" width="210" height="34" rx="6" fill="#c8e6c9" stroke="#2e7d32" stroke-width="1.2" />
    <rect x="480" y="162" width="210" height="34" rx="6" fill="#c8e6c9" stroke="#2e7d32" stroke-width="1.2" />
    <rect x="695" y="162" width="210" height="34" rx="6" fill="#c8e6c9" stroke="#2e7d32" stroke-width="1.2" />
    <rect x="910" y="162" width="210" height="34" rx="6" fill="#eceff1" stroke="#b0bec5" stroke-width="1.2" />
  </g>
  <g font-size="12" text-anchor="middle">
    <text x="370" y="184" fill="#1b5e20">worker</text>
    <text x="585" y="184" fill="#1b5e20">contenedor + montaje</text>
    <text x="800" y="184" fill="#1b5e20">Postgres</text>
    <text x="1015" y="184" fill="#455a64">stack OTel</text>
  </g>

  <!-- Row 3: Durable workflow (y_rect=206, y_text=228) -->
  <text x="30" y="228" font-size="13" font-weight="600" fill="#263238">3. Flujo de trabajo duradero</text>
  <g filter="url(#ds4)">
    <rect x="265" y="206" width="210" height="34" rx="6" fill="#c8e6c9" stroke="#2e7d32" stroke-width="1.2" />
    <rect x="480" y="206" width="210" height="34" rx="6" fill="#eceff1" stroke="#b0bec5" stroke-width="1.2" />
    <rect x="695" y="206" width="210" height="34" rx="6" fill="#c8e6c9" stroke="#2e7d32" stroke-width="1.2" />
    <rect x="910" y="206" width="210" height="34" rx="6" fill="#c8e6c9" stroke="#2e7d32" stroke-width="1.2" />
  </g>
  <g font-size="12" text-anchor="middle">
    <text x="370" y="228" fill="#1b5e20">Código del workflow</text>
    <text x="585" y="228" fill="#455a64">externo (Activity)</text>
    <text x="800" y="228" fill="#1b5e20">registro de eventos de Temporal</text>
    <text x="1015" y="228" fill="#1b5e20">UI de Temporal + OTel</text>
  </g>

  <!-- Row 4: Sandbox provider per session (y_rect=250, y_text=272) -->
  <text x="30" y="272" font-size="13" font-weight="600" fill="#263238">4. Proveedor de Sandbox por sesión</text>
  <g filter="url(#ds4)">
    <rect x="265" y="250" width="210" height="34" rx="6" fill="#eceff1" stroke="#b0bec5" stroke-width="1.2" />
    <rect x="480" y="250" width="210" height="34" rx="6" fill="#c8e6c9" stroke="#2e7d32" stroke-width="1.2" />
    <rect x="695" y="250" width="210" height="34" rx="6" fill="#eceff1" stroke="#b0bec5" stroke-width="1.2" />
    <rect x="910" y="250" width="210" height="34" rx="6" fill="#eceff1" stroke="#b0bec5" stroke-width="1.2" />
  </g>
  <g font-size="12" text-anchor="middle">
    <text x="370" y="272" fill="#455a64">tuyo</text>
    <text x="585" y="272" fill="#1b5e20" font-weight="700">proveedor</text>
    <text x="800" y="272" fill="#455a64">tuyo</text>
    <text x="1015" y="272" fill="#455a64">tuyo</text>
  </g>

  <!-- Row 5: Managed Agents (y_rect=294, y_text=316) -->
  <text x="30" y="316" font-size="13" font-weight="600" fill="#263238">5. Anthropic Managed Agents</text>
  <g filter="url(#ds4)">
    <rect x="265" y="294" width="210" height="34" rx="6" fill="#c8e6c9" stroke="#2e7d32" stroke-width="1.2" />
    <rect x="480" y="294" width="210" height="34" rx="6" fill="#c8e6c9" stroke="#2e7d32" stroke-width="1.2" />
    <rect x="695" y="294" width="210" height="34" rx="6" fill="#c8e6c9" stroke="#2e7d32" stroke-width="1.2" />
    <rect x="910" y="294" width="210" height="34" rx="6" fill="#c8e6c9" stroke="#2e7d32" stroke-width="1.2" />
  </g>
  <g font-size="12" text-anchor="middle" font-weight="700">
    <text x="370" y="316" fill="#1b5e20">Anthropic</text>
    <text x="585" y="316" fill="#1b5e20">Anthropic</text>
    <text x="800" y="316" fill="#1b5e20">Anthropic</text>
    <text x="1015" y="316" fill="#1b5e20">Anthropic</text>
  </g>

  <!-- Row 6: Deep Agents Deploy (y_rect=338, y_text=360) -->
  <text x="30" y="360" font-size="13" font-weight="600" fill="#263238">6. Deep Agents Deploy</text>
  <g filter="url(#ds4)">
    <rect x="265" y="338" width="210" height="34" rx="6" fill="#c8e6c9" stroke="#2e7d32" stroke-width="1.2" />
    <rect x="480" y="338" width="210" height="34" rx="6" fill="#c8e6c9" stroke="#2e7d32" stroke-width="1.2" />
    <rect x="695" y="338" width="210" height="34" rx="6" fill="#c8e6c9" stroke="#2e7d32" stroke-width="1.2" />
    <rect x="910" y="338" width="210" height="34" rx="6" fill="#c8e6c9" stroke="#2e7d32" stroke-width="1.2" />
  </g>
  <g font-size="12" text-anchor="middle">
    <text x="370" y="360" fill="#1b5e20">alojado (intercambiable)</text>
    <text x="585" y="360" fill="#1b5e20">alojado (intercambiable)</text>
    <text x="800" y="360" fill="#1b5e20">alojado (intercambiable)</text>
    <text x="1015" y="360" fill="#1b5e20">LangSmith</text>
  </g>

  <!-- Row 7: Cloud Run (y_rect=382, y_text=404) -->
  <text x="30" y="404" font-size="13" font-weight="600" fill="#263238">7. Cloud Run</text>
  <g filter="url(#ds4)">
    <rect x="265" y="382" width="210" height="34" rx="6" fill="#c8e6c9" stroke="#2e7d32" stroke-width="1.2" />
    <rect x="480" y="382" width="210" height="34" rx="6" fill="#eceff1" stroke="#b0bec5" stroke-width="1.2" />
    <rect x="695" y="382" width="210" height="34" rx="6" fill="#eceff1" stroke="#b0bec5" stroke-width="1.2" />
    <rect x="910" y="382" width="210" height="34" rx="6" fill="#eceff1" stroke="#b0bec5" stroke-width="1.2" />
  </g>
  <g font-size="12" text-anchor="middle">
    <text x="370" y="404" fill="#1b5e20">Cloud Run</text>
    <text x="585" y="404" fill="#455a64">contenedor</text>
    <text x="800" y="404" fill="#455a64">BD externa</text>
    <text x="1015" y="404" fill="#455a64">logs + OTel</text>
  </g>

  <!-- Row 8: Lambda (y_rect=426, y_text=448) -->
  <text x="30" y="448" font-size="13" font-weight="600" fill="#263238">8. Lambda</text>
  <g filter="url(#ds4)">
    <rect x="265" y="426" width="210" height="34" rx="6" fill="#ffcdd2" stroke="#c62828" stroke-width="1.2" />
    <rect x="480" y="426" width="210" height="34" rx="6" fill="#c8e6c9" stroke="#2e7d32" stroke-width="1.2" />
    <rect x="695" y="426" width="210" height="34" rx="6" fill="#eceff1" stroke="#b0bec5" stroke-width="1.2" />
    <rect x="910" y="426" width="210" height="34" rx="6" fill="#eceff1" stroke="#b0bec5" stroke-width="1.2" />
  </g>
  <g font-size="12" text-anchor="middle">
    <text x="370" y="448" fill="#b71c1c" font-weight="700">n/a (límite de 15 min)</text>
    <text x="585" y="448" fill="#1b5e20">función</text>
    <text x="800" y="448" fill="#455a64">externo</text>
    <text x="1015" y="448" fill="#455a64">CloudWatch</text>
  </g>

  <!-- Row 9: Fargate (y_rect=470, y_text=492) -->
  <text x="30" y="492" font-size="13" font-weight="600" fill="#263238">9. Fargate</text>
  <g filter="url(#ds4)">
    <rect x="265" y="470" width="210" height="34" rx="6" fill="#c8e6c9" stroke="#2e7d32" stroke-width="1.2" />
    <rect x="480" y="470" width="210" height="34" rx="6" fill="#c8e6c9" stroke="#2e7d32" stroke-width="1.2" />
    <rect x="695" y="470" width="210" height="34" rx="6" fill="#eceff1" stroke="#b0bec5" stroke-width="1.2" />
    <rect x="910" y="470" width="210" height="34" rx="6" fill="#eceff1" stroke="#b0bec5" stroke-width="1.2" />
  </g>
  <g font-size="12" text-anchor="middle">
    <text x="370" y="492" fill="#1b5e20">tarea de Fargate</text>
    <text x="585" y="492" fill="#1b5e20">tarea de Fargate</text>
    <text x="800" y="492" fill="#455a64">BD externa</text>
    <text x="1015" y="492" fill="#455a64">CloudWatch + OTel</text>
  </g>

  <!-- Row 10: K8s Job (y_rect=514, y_text=536) -->
  <text x="30" y="536" font-size="13" font-weight="600" fill="#263238">10. K8s Job</text>
  <g filter="url(#ds4)">
    <rect x="265" y="514" width="210" height="34" rx="6" fill="#c8e6c9" stroke="#2e7d32" stroke-width="1.2" />
    <rect x="480" y="514" width="210" height="34" rx="6" fill="#c8e6c9" stroke="#2e7d32" stroke-width="1.2" />
    <rect x="695" y="514" width="210" height="34" rx="6" fill="#eceff1" stroke="#b0bec5" stroke-width="1.2" />
    <rect x="910" y="514" width="210" height="34" rx="6" fill="#eceff1" stroke="#b0bec5" stroke-width="1.2" />
  </g>
  <g font-size="12" text-anchor="middle">
    <text x="370" y="536" fill="#1b5e20">pod</text>
    <text x="585" y="536" fill="#1b5e20">pod</text>
    <text x="800" y="536" fill="#455a64">BD externa o PVC</text>
    <text x="1015" y="536" fill="#455a64">en clúster</text>
  </g>

  <!-- Row 11: Docker Compose (dev) (y_rect=558, y_text=580) -->
  <text x="30" y="580" font-size="13" font-weight="600" fill="#263238">11. Docker Compose (dev)</text>
  <g filter="url(#ds4)">
    <rect x="265" y="558" width="210" height="34" rx="6" fill="#c8e6c9" stroke="#2e7d32" stroke-width="1.2" />
    <rect x="480" y="558" width="210" height="34" rx="6" fill="#c8e6c9" stroke="#2e7d32" stroke-width="1.2" />
    <rect x="695" y="558" width="210" height="34" rx="6" fill="#c8e6c9" stroke="#2e7d32" stroke-width="1.2" />
    <rect x="910" y="558" width="210" height="34" rx="6" fill="#eceff1" stroke="#b0bec5" stroke-width="1.2" />
  </g>
  <g font-size="12" text-anchor="middle">
    <text x="370" y="580" fill="#1b5e20">contenedor worker</text>
    <text x="585" y="580" fill="#1b5e20">montaje del workspace</text>
    <text x="800" y="580" fill="#1b5e20">Postgres</text>
    <text x="1015" y="580" fill="#455a64">stack OTel</text>
  </g>

  <!-- Legend -->
  <g font-size="11" fill="#37474f">
    <rect x="280" y="612" width="18" height="14" rx="3" fill="#c8e6c9" stroke="#2e7d32" stroke-width="1" />
    <text x="305" y="623">el modelo proporciona</text>
    <rect x="450" y="612" width="18" height="14" rx="3" fill="#eceff1" stroke="#b0bec5" stroke-width="1" />
    <text x="475" y="623">lo conectas externamente</text>
    <rect x="635" y="612" width="18" height="14" rx="3" fill="#ffcdd2" stroke="#c62828" stroke-width="1" />
    <text x="660" y="623">no aplica</text>
  </g>
</svg>
