<svg xmlns="http://www.w3.org/2000/svg" viewBox="0 0 800 550">

<style>
    .bg { fill: #1e1e1e; }
    .node { fill: #2d2d2d; stroke: #3b82f6; stroke-width: 2; rx: 8; ry: 8; }
    .node-text { fill: #e2e8f0; font-family: sans-serif; font-size: 14px; text-anchor: middle; dominant-baseline: middle; }
    .edge { stroke: #64748b; stroke-width: 2; fill: none; marker-end: url(#arrow); }
    .label { fill: #94a3b8; font-family: sans-serif; font-size: 12px; text-anchor: middle; background-color: #1e1e1e; }
    .title { fill: #f8fafc; font-family: sans-serif; font-size: 18px; font-weight: bold; text-anchor: middle; }
    .group-label { fill: #94a3b8; font-family: sans-serif; font-size: 14px; font-weight: bold; text-anchor: start; }
    .accent-green { stroke: #22c55e; }
    .accent-red { stroke: #ef4444; }
    .accent-yellow { stroke: #eab308; }
    .accent-purple { stroke: #a855f7; }
    .accent-orange { stroke: #f97316; }
    .accent-cyan { stroke: #06b6d4; }
</style>
<defs>
    <marker id="arrow" markerWidth="10" markerHeight="7" refX="9" refY="3.5" orient="auto">
        <polygon points="0 0, 10 3.5, 0 7" fill="#64748b" />
    </marker>
</defs>

<rect width="100%" height="100%" class="bg"/>

<text x="400" y="40" class="title">Context Layer Architecture (7 Components)</text>

<!-- Groups -->
<!-- Static Context -->
<g transform="translate(50, 80)">
    <rect x="0" y="0" width="220" height="250" rx="10" ry="10" style="fill: #1e293b; stroke: #3b82f6; stroke-dasharray: 5 5"/>
    <text x="20" y="30" class="group-label" style="fill: #93c5fd">1. Steering (Static)</text>

    <g transform="translate(35, 60)">
        <rect x="0" y="0" width="150" height="60" class="node" style="stroke: #3b82f6"/>
        <text x="75" y="30" class="node-text">Instructions</text>
    </g>
    <g transform="translate(35, 150)">
        <rect x="0" y="0" width="150" height="60" class="node" style="stroke: #3b82f6"/>
        <text x="75" y="30" class="node-text">Examples</text>
    </g>
</g>

<!-- Dynamic Context -->
<g transform="translate(290, 80)">
    <rect x="0" y="0" width="220" height="340" rx="10" ry="10" style="fill: #1e293b; stroke: #22c55e; stroke-dasharray: 5 5"/>
    <text x="20" y="30" class="group-label" style="fill: #86efac">2. Data (Dynamic)</text>

    <g transform="translate(35, 60)">
        <rect x="0" y="0" width="150" height="60" class="node" style="stroke: #22c55e"/>
        <text x="75" y="30" class="node-text">Knowledge (RAG)</text>
    </g>
    <g transform="translate(35, 150)">
        <rect x="0" y="0" width="150" height="60" class="node" style="stroke: #a855f7"/>
        <text x="75" y="30" class="node-text">Memory</text>
    </g>
    <g transform="translate(35, 240)">
        <rect x="0" y="0" width="150" height="60" class="node" style="stroke: #06b6d4"/>
        <text x="75" y="30" class="node-text">Skills</text>
    </g>
</g>

<!-- Execution & Safety -->
<g transform="translate(530, 80)">
    <rect x="0" y="0" width="220" height="250" rx="10" ry="10" style="fill: #1e293b; stroke: #f97316; stroke-dasharray: 5 5"/>
    <text x="20" y="30" class="group-label" style="fill: #fdba74">3. Controls</text>

    <g transform="translate(35, 60)">
        <rect x="0" y="0" width="150" height="60" class="node" style="stroke: #f97316"/>
        <text x="75" y="30" class="node-text">Tools</text>
    </g>
    <g transform="translate(35, 150)">
        <rect x="0" y="0" width="150" height="60" class="node" style="stroke: #ef4444"/>
        <text x="75" y="30" class="node-text">Guardrails</text>
    </g>
</g>

<!-- Assembly Engine -->
<g transform="translate(200, 450)">
    <rect x="0" y="0" width="400" height="80" class="node" style="stroke: #eab308; fill: #423208"/>
    <text x="200" y="40" class="node-text" style="font-size: 16px; font-weight: bold; fill: #fde047">Context Assembly Engine</text>
</g>

<!-- Edges -->
<!-- From Groups to Engine -->
<path d="M160 330 L250 450" class="edge"/>
<path d="M400 420 L400 450" class="edge"/>
<path d="M640 330 L550 450" class="edge"/>


</svg>
